<?xml version="1.0" encoding="UTF-8" standalone="no"?>
<!DOCTYPE svg PUBLIC "-//W3C//DTD SVG 1.1//EN"
 "http://www.w3.org/Graphics/SVG/1.1/DTD/svg11.dtd">
<!-- Generated by graphviz version 2.43.0 (0)
 -->
<!-- Title: %3 Pages: 1 -->
<svg width="657pt" height="4104pt"
 viewBox="0.00 0.00 657.00 4104.00" xmlns="http://www.w3.org/2000/svg" xmlns:xlink="http://www.w3.org/1999/xlink">
<g id="graph0" class="graph" transform="scale(1 1) rotate(0) translate(36 4068)">
<title>%3</title>
<polygon fill="white" stroke="transparent" points="-36,36 -36,-4068 621,-4068 621,36 -36,36"/>
<!-- customer_tag -->
<g id="node1" class="node">
<title>customer_tag</title>
<polygon fill="none" stroke="black" points="41,-60 41,-80 202,-80 202,-60 41,-60"/>
<text text-anchor="start" x="80.29" y="-66.8" font-family="Times,serif" font-style="italic" font-size="14.00"> customer_tag </text>
<polygon fill="none" stroke="black" points="41,-40 41,-60 202,-60 202,-40 41,-40"/>
<text text-anchor="start" x="43.94" y="-45.8" font-family="Times,serif" font-size="14.00"> customer_tag customer_id </text>
<polygon fill="none" stroke="black" points="41,-20 41,-40 202,-40 202,-20 41,-20"/>
<text text-anchor="start" x="62.99" y="-25.8" font-family="Times,serif" font-size="14.00"> customer_tag index </text>
<polygon fill="none" stroke="black" points="41,0 41,-20 202,-20 202,0 41,0"/>
<text text-anchor="start" x="63.38" y="-5.8" font-family="Times,serif" font-size="14.00"> customer_tag value </text>
</g>
<!-- order_line -->
<g id="node2" class="node">
<title>order_line</title>
<polygon fill="none" stroke="black" points="31,-496 31,-516 212,-516 212,-496 31,-496"/>
<text text-anchor="start" x="89.23" y="-502.8" font-family="Times,serif" font-style="italic" font-size="14.00"> order_line </text>
<polygon fill="none" stroke="black" points="31,-476 31,-496 212,-496 212,-476 31,-476"/>
<text text-anchor="start" x="82.04" y="-481.8" font-family="Times,serif" font-size="14.00"> order_line id </text>
<polygon fill="none" stroke="black" points="31,-456 31,-476 212,-476 212,-456 31,-456"/>
<text text-anchor="start" x="33.83" y="-461.8" font-family="Times,serif" font-size="14.00"> order_line fulfillable_quantity </text>
<polygon fill="none" stroke="black" points="31,-436 31,-456 212,-456 212,-436 31,-436"/>
<text text-anchor="start" x="34.61" y="-441.8" font-family="Times,serif" font-size="14.00"> order_line fulfillment_service </text>
<polygon fill="none" stroke="black" points="31,-416 31,-436 212,-436 212,-416 31,-416"/>
<text text-anchor="start" x="38.48" y="-421.8" font-family="Times,serif" font-size="14.00"> order_line fulfillment_status </text>
<polygon fill="none" stroke="black" points="31,-396 31,-416 212,-416 212,-396 31,-396"/>
<text text-anchor="start" x="62.22" y="-401.8" font-family="Times,serif" font-size="14.00"> order_line gift_card </text>
<polygon fill="none" stroke="black" points="31,-376 31,-396 212,-396 212,-376 31,-376"/>
<text text-anchor="start" x="70.38" y="-381.8" font-family="Times,serif" font-size="14.00"> order_line grams </text>
<polygon fill="none" stroke="black" points="31,-356 31,-376 212,-376 212,-356 31,-356"/>
<text text-anchor="start" x="72.33" y="-361.8" font-family="Times,serif" font-size="14.00"> order_line name </text>
<polygon fill="none" stroke="black" points="31,-336 31,-356 212,-356 212,-336 31,-336"/>
<text text-anchor="start" x="63.77" y="-341.8" font-family="Times,serif" font-size="14.00"> order_line order_id </text>
<polygon fill="none" stroke="black" points="31,-316 31,-336 212,-336 212,-316 31,-316"/>
<text text-anchor="start" x="49" y="-321.8" font-family="Times,serif" font-size="14.00"> order_line pre_tax_price </text>
<polygon fill="none" stroke="black" points="31,-296 31,-316 212,-316 212,-296 31,-296"/>
<text text-anchor="start" x="73.49" y="-301.8" font-family="Times,serif" font-size="14.00"> order_line price </text>
<polygon fill="none" stroke="black" points="31,-276 31,-296 212,-296 212,-276 31,-276"/>
<text text-anchor="start" x="57.16" y="-281.8" font-family="Times,serif" font-size="14.00"> order_line product_id </text>
<polygon fill="none" stroke="black" points="31,-256 31,-276 212,-276 212,-256 31,-256"/>
<text text-anchor="start" x="64.54" y="-261.8" font-family="Times,serif" font-size="14.00"> order_line quantity </text>
<polygon fill="none" stroke="black" points="31,-236 31,-256 212,-256 212,-236 31,-236"/>
<text text-anchor="start" x="37.33" y="-241.8" font-family="Times,serif" font-size="14.00"> order_line requires_shipping </text>
<polygon fill="none" stroke="black" points="31,-216 31,-236 212,-236 212,-216 31,-216"/>
<text text-anchor="start" x="77.76" y="-221.8" font-family="Times,serif" font-size="14.00"> order_line sku </text>
<polygon fill="none" stroke="black" points="31,-196 31,-216 212,-216 212,-196 31,-196"/>
<text text-anchor="start" x="67.27" y="-201.8" font-family="Times,serif" font-size="14.00"> order_line taxable </text>
<polygon fill="none" stroke="black" points="31,-176 31,-196 212,-196 212,-176 31,-176"/>
<text text-anchor="start" x="76.6" y="-181.8" font-family="Times,serif" font-size="14.00"> order_line title </text>
<polygon fill="none" stroke="black" points="31,-156 31,-176 212,-176 212,-156 31,-156"/>
<text text-anchor="start" x="47.82" y="-161.8" font-family="Times,serif" font-size="14.00"> order_line total_discount </text>
<polygon fill="none" stroke="black" points="31,-136 31,-156 212,-156 212,-136 31,-136"/>
<text text-anchor="start" x="59.1" y="-141.8" font-family="Times,serif" font-size="14.00"> order_line variant_id </text>
<polygon fill="none" stroke="black" points="31,-116 31,-136 212,-136 212,-116 31,-116"/>
<text text-anchor="start" x="68.05" y="-121.8" font-family="Times,serif" font-size="14.00"> order_line vendor </text>
</g>
<!-- product_variant -->
<g id="node3" class="node">
<title>product_variant</title>
<polygon fill="none" stroke="black" points="3,-952 3,-972 240,-972 240,-952 3,-952"/>
<text text-anchor="start" x="73.68" y="-958.8" font-family="Times,serif" font-style="italic" font-size="14.00"> product_variant </text>
<polygon fill="none" stroke="black" points="3,-932 3,-952 240,-952 240,-932 3,-932"/>
<text text-anchor="start" x="66.49" y="-937.8" font-family="Times,serif" font-size="14.00"> product_variant id </text>
<polygon fill="none" stroke="black" points="3,-912 3,-932 240,-932 240,-912 3,-912"/>
<text text-anchor="start" x="49.78" y="-917.8" font-family="Times,serif" font-size="14.00"> product_variant barcode </text>
<polygon fill="none" stroke="black" points="3,-892 3,-912 240,-912 240,-892 3,-892"/>
<text text-anchor="start" x="21.79" y="-897.8" font-family="Times,serif" font-size="14.00"> product_variant compare_at_price </text>
<polygon fill="none" stroke="black" points="3,-872 3,-892 240,-892 240,-872 3,-872"/>
<text text-anchor="start" x="19.06" y="-877.8" font-family="Times,serif" font-size="14.00"> product_variant fulfillment_service </text>
<polygon fill="none" stroke="black" points="3,-852 3,-872 240,-872 240,-852 3,-852"/>
<text text-anchor="start" x="54.83" y="-857.8" font-family="Times,serif" font-size="14.00"> product_variant grams </text>
<polygon fill="none" stroke="black" points="3,-832 3,-852 240,-852 240,-832 3,-832"/>
<text text-anchor="start" x="45.88" y="-837.8" font-family="Times,serif" font-size="14.00"> product_variant image_id </text>
<polygon fill="none" stroke="black" points="3,-812 3,-832 240,-832 240,-812 3,-812"/>
<text text-anchor="start" x="20.22" y="-817.8" font-family="Times,serif" font-size="14.00"> product_variant inventory_item_id </text>
<polygon fill="none" stroke="black" points="3,-792 3,-812 240,-812 240,-792 3,-792"/>
<text text-anchor="start" x="5.84" y="-797.8" font-family="Times,serif" font-size="14.00"> product_variant inventory_management </text>
<polygon fill="none" stroke="black" points="3,-772 3,-792 240,-792 240,-772 3,-772"/>
<text text-anchor="start" x="24.11" y="-777.8" font-family="Times,serif" font-size="14.00"> product_variant inventory_policy </text>
<polygon fill="none" stroke="black" points="3,-752 3,-772 240,-772 240,-752 3,-752"/>
<text text-anchor="start" x="18.66" y="-757.8" font-family="Times,serif" font-size="14.00"> product_variant inventory_quantity </text>
<polygon fill="none" stroke="black" points="3,-732 3,-752 240,-752 240,-732 3,-732"/>
<text text-anchor="start" x="6.22" y="-737.8" font-family="Times,serif" font-size="14.00"> product_variant old_inventory_quantity </text>
<polygon fill="none" stroke="black" points="3,-712 3,-732 240,-732 240,-712 3,-712"/>
<text text-anchor="start" x="49.37" y="-717.8" font-family="Times,serif" font-size="14.00"> product_variant position </text>
<polygon fill="none" stroke="black" points="3,-692 3,-712 240,-712 240,-692 3,-692"/>
<text text-anchor="start" x="57.94" y="-697.8" font-family="Times,serif" font-size="14.00"> product_variant price </text>
<polygon fill="none" stroke="black" points="3,-672 3,-692 240,-692 240,-672 3,-672"/>
<text text-anchor="start" x="41.6" y="-677.8" font-family="Times,serif" font-size="14.00"> product_variant product_id </text>
<polygon fill="none" stroke="black" points="3,-652 3,-672 240,-672 240,-652 3,-652"/>
<text text-anchor="start" x="21.77" y="-657.8" font-family="Times,serif" font-size="14.00"> product_variant requires_shipping </text>
<polygon fill="none" stroke="black" points="3,-632 3,-652 240,-652 240,-632 3,-632"/>
<text text-anchor="start" x="62.21" y="-637.8" font-family="Times,serif" font-size="14.00"> product_variant sku </text>
<polygon fill="none" stroke="black" points="3,-612 3,-632 240,-632 240,-612 3,-612"/>
<text text-anchor="start" x="51.72" y="-617.8" font-family="Times,serif" font-size="14.00"> product_variant taxable </text>
<polygon fill="none" stroke="black" points="3,-592 3,-612 240,-612 240,-592 3,-592"/>
<text text-anchor="start" x="61.05" y="-597.8" font-family="Times,serif" font-size="14.00"> product_variant title </text>
<polygon fill="none" stroke="black" points="3,-572 3,-592 240,-592 240,-572 3,-572"/>
<text text-anchor="start" x="52.88" y="-577.8" font-family="Times,serif" font-size="14.00"> product_variant weight </text>
<polygon fill="none" stroke="black" points="3,-552 3,-572 240,-572 240,-552 3,-552"/>
<text text-anchor="start" x="38.49" y="-557.8" font-family="Times,serif" font-size="14.00"> product_variant weight_unit </text>
</g>
<!-- product_tag -->
<g id="node4" class="node">
<title>product_tag</title>
<polygon fill="none" stroke="black" points="49,-1068 49,-1088 193,-1088 193,-1068 49,-1068"/>
<text text-anchor="start" x="84.07" y="-1074.8" font-family="Times,serif" font-style="italic" font-size="14.00"> product_tag </text>
<polygon fill="none" stroke="black" points="49,-1048 49,-1068 193,-1068 193,-1048 49,-1048"/>
<text text-anchor="start" x="66.76" y="-1053.8" font-family="Times,serif" font-size="14.00"> product_tag index </text>
<polygon fill="none" stroke="black" points="49,-1028 49,-1048 193,-1048 193,-1028 49,-1028"/>
<text text-anchor="start" x="51.99" y="-1033.8" font-family="Times,serif" font-size="14.00"> product_tag product_id </text>
<polygon fill="none" stroke="black" points="49,-1008 49,-1028 193,-1028 193,-1008 49,-1008"/>
<text text-anchor="start" x="67.16" y="-1013.8" font-family="Times,serif" font-size="14.00"> product_tag value </text>
</g>
<!-- collection -->
<g id="node5" class="node">
<title>collection</title>
<polygon fill="none" stroke="black" points="37,-1224 37,-1244 205,-1244 205,-1224 37,-1224"/>
<text text-anchor="start" x="89.9" y="-1230.8" font-family="Times,serif" font-style="italic" font-size="14.00"> collection </text>
<polygon fill="none" stroke="black" points="37,-1204 37,-1224 205,-1224 205,-1204 37,-1204"/>
<text text-anchor="start" x="82.71" y="-1209.8" font-family="Times,serif" font-size="14.00"> collection id </text>
<polygon fill="none" stroke="black" points="37,-1184 37,-1204 205,-1204 205,-1184 37,-1184"/>
<text text-anchor="start" x="39.56" y="-1189.8" font-family="Times,serif" font-size="14.00"> collection _fivetran_deleted </text>
<polygon fill="none" stroke="black" points="37,-1164 37,-1184 205,-1184 205,-1164 37,-1164"/>
<text text-anchor="start" x="69.49" y="-1169.8" font-family="Times,serif" font-size="14.00"> collection handle </text>
<polygon fill="none" stroke="black" points="37,-1144 37,-1164 205,-1164 205,-1144 37,-1144"/>
<text text-anchor="start" x="41.49" y="-1149.8" font-family="Times,serif" font-size="14.00"> collection published_scope </text>
<polygon fill="none" stroke="black" points="37,-1124 37,-1144 205,-1144 205,-1124 37,-1124"/>
<text text-anchor="start" x="77.26" y="-1129.8" font-family="Times,serif" font-size="14.00"> collection title </text>
</g>
<!-- order_tag -->
<g id="node6" class="node">
<title>order_tag</title>
<polygon fill="none" stroke="black" points="63,-1340 63,-1360 180,-1360 180,-1340 63,-1340"/>
<text text-anchor="start" x="91.18" y="-1346.8" font-family="Times,serif" font-style="italic" font-size="14.00"> order_tag </text>
<polygon fill="none" stroke="black" points="63,-1320 63,-1340 180,-1340 180,-1320 63,-1320"/>
<text text-anchor="start" x="73.88" y="-1325.8" font-family="Times,serif" font-size="14.00"> order_tag index </text>
<polygon fill="none" stroke="black" points="63,-1300 63,-1320 180,-1320 180,-1300 63,-1300"/>
<text text-anchor="start" x="65.72" y="-1305.8" font-family="Times,serif" font-size="14.00"> order_tag order_id </text>
<polygon fill="none" stroke="black" points="63,-1280 63,-1300 180,-1300 180,-1280 63,-1280"/>
<text text-anchor="start" x="74.27" y="-1285.8" font-family="Times,serif" font-size="14.00"> order_tag value </text>
</g>
<!-- customer -->
<g id="node7" class="node">
<title>customer</title>
<polygon fill="none" stroke="black" points="35,-1656 35,-1676 208,-1676 208,-1656 35,-1656"/>
<text text-anchor="start" x="92.34" y="-1662.8" font-family="Times,serif" font-style="italic" font-size="14.00"> customer </text>
<polygon fill="none" stroke="black" points="35,-1636 35,-1656 208,-1656 208,-1636 35,-1636"/>
<text text-anchor="start" x="85.15" y="-1641.8" font-family="Times,serif" font-size="14.00"> customer id </text>
<polygon fill="none" stroke="black" points="35,-1616 35,-1636 208,-1636 208,-1616 35,-1616"/>
<text text-anchor="start" x="38.12" y="-1621.8" font-family="Times,serif" font-size="14.00"> customer accepts_marketing </text>
<polygon fill="none" stroke="black" points="35,-1596 35,-1616 208,-1616 208,-1596 35,-1596"/>
<text text-anchor="start" x="37.72" y="-1601.8" font-family="Times,serif" font-size="14.00"> customer default_address_id </text>
<polygon fill="none" stroke="black" points="35,-1576 35,-1596 208,-1596 208,-1576 35,-1576"/>
<text text-anchor="start" x="75.04" y="-1581.8" font-family="Times,serif" font-size="14.00"> customer email </text>
<polygon fill="none" stroke="black" points="35,-1556 35,-1576 208,-1576 208,-1556 35,-1556"/>
<text text-anchor="start" x="61.04" y="-1561.8" font-family="Times,serif" font-size="14.00"> customer first_name </text>
<polygon fill="none" stroke="black" points="35,-1536 35,-1556 208,-1556 208,-1536 35,-1536"/>
<text text-anchor="start" x="62.21" y="-1541.8" font-family="Times,serif" font-size="14.00"> customer last_name </text>
<polygon fill="none" stroke="black" points="35,-1516 35,-1536 208,-1536 208,-1516 35,-1516"/>
<text text-anchor="start" x="54.05" y="-1521.8" font-family="Times,serif" font-size="14.00"> customer orders_count </text>
<polygon fill="none" stroke="black" points="35,-1496 35,-1516 208,-1516 208,-1496 35,-1496"/>
<text text-anchor="start" x="48.61" y="-1501.8" font-family="Times,serif" font-size="14.00"> customer new_vs_repeat </text>
<polygon fill="none" stroke="black" points="35,-1476 35,-1496 208,-1496 208,-1476 35,-1476"/>
<text text-anchor="start" x="73.48" y="-1481.8" font-family="Times,serif" font-size="14.00"> customer phone </text>
<polygon fill="none" stroke="black" points="35,-1456 35,-1476 208,-1476 208,-1456 35,-1456"/>
<text text-anchor="start" x="77.76" y="-1461.8" font-family="Times,serif" font-size="14.00"> customer state </text>
<polygon fill="none" stroke="black" points="35,-1436 35,-1456 208,-1456 208,-1436 35,-1436"/>
<text text-anchor="start" x="57.94" y="-1441.8" font-family="Times,serif" font-size="14.00"> customer tax_exempt </text>
<polygon fill="none" stroke="black" points="35,-1416 35,-1436 208,-1436 208,-1416 35,-1416"/>
<text text-anchor="start" x="59.87" y="-1421.8" font-family="Times,serif" font-size="14.00"> customer total_spent </text>
<polygon fill="none" stroke="black" points="35,-1396 35,-1416 208,-1416 208,-1396 35,-1396"/>
<text text-anchor="start" x="50.16" y="-1401.8" font-family="Times,serif" font-size="14.00"> customer verified_email </text>
</g>
<!-- collect -->
<g id="node8" class="node">
<title>collect</title>
<polygon fill="none" stroke="black" points="58,-1812 58,-1832 184,-1832 184,-1812 58,-1812"/>
<text text-anchor="start" x="98.84" y="-1818.8" font-family="Times,serif" font-style="italic" font-size="14.00"> collect </text>
<polygon fill="none" stroke="black" points="58,-1792 58,-1812 184,-1812 184,-1792 58,-1792"/>
<text text-anchor="start" x="91.65" y="-1797.8" font-family="Times,serif" font-size="14.00"> collect id </text>
<polygon fill="none" stroke="black" points="58,-1772 58,-1792 184,-1792 184,-1772 58,-1772"/>
<text text-anchor="start" x="60.55" y="-1777.8" font-family="Times,serif" font-size="14.00"> collect collection_id </text>
<polygon fill="none" stroke="black" points="58,-1752 58,-1772 184,-1772 184,-1752 58,-1752"/>
<text text-anchor="start" x="74.17" y="-1757.8" font-family="Times,serif" font-size="14.00"> collect featured </text>
<polygon fill="none" stroke="black" points="58,-1732 58,-1752 184,-1752 184,-1732 58,-1732"/>
<text text-anchor="start" x="74.54" y="-1737.8" font-family="Times,serif" font-size="14.00"> collect position </text>
<polygon fill="none" stroke="black" points="58,-1712 58,-1732 184,-1732 184,-1712 58,-1712"/>
<text text-anchor="start" x="66.77" y="-1717.8" font-family="Times,serif" font-size="14.00"> collect product_id </text>
</g>
<!-- order -->
<g id="node9" class="node">
<title>order</title>
<polygon fill="none" stroke="black" points="5,-3068 5,-3088 237,-3088 237,-3068 5,-3068"/>
<text text-anchor="start" x="102.73" y="-3074.8" font-family="Times,serif" font-style="italic" font-size="14.00"> order </text>
<polygon fill="none" stroke="black" points="5,-3048 5,-3068 237,-3068 237,-3048 5,-3048"/>
<text text-anchor="start" x="95.54" y="-3053.8" font-family="Times,serif" font-size="14.00"> order id </text>
<polygon fill="none" stroke="black" points="5,-3028 5,-3048 237,-3048 237,-3028 5,-3028"/>
<text text-anchor="start" x="26.72" y="-3033.8" font-family="Times,serif" font-size="14.00"> order billing_address_address_1 </text>
<polygon fill="none" stroke="black" points="5,-3008 5,-3028 237,-3028 237,-3008 5,-3008"/>
<text text-anchor="start" x="26.72" y="-3013.8" font-family="Times,serif" font-size="14.00"> order billing_address_address_2 </text>
<polygon fill="none" stroke="black" points="5,-2988 5,-3008 237,-3008 237,-2988 5,-2988"/>
<text text-anchor="start" x="44.21" y="-2993.8" font-family="Times,serif" font-size="14.00"> order billing_address_city </text>
<polygon fill="none" stroke="black" points="5,-2968 5,-2988 237,-2988 237,-2968 5,-2968"/>
<text text-anchor="start" x="29.05" y="-2973.8" font-family="Times,serif" font-size="14.00"> order billing_address_company </text>
<polygon fill="none" stroke="black" points="5,-2948 5,-2968 237,-2968 237,-2948 5,-2948"/>
<text text-anchor="start" x="33.33" y="-2953.8" font-family="Times,serif" font-size="14.00"> order billing_address_country </text>
<polygon fill="none" stroke="black" points="5,-2928 5,-2948 237,-2948 237,-2928 5,-2928"/>
<text text-anchor="start" x="16.61" y="-2933.8" font-family="Times,serif" font-size="14.00"> order billing_address_country_code </text>
<polygon fill="none" stroke="black" points="5,-2908 5,-2928 237,-2928 237,-2908 5,-2908"/>
<text text-anchor="start" x="25.16" y="-2913.8" font-family="Times,serif" font-size="14.00"> order billing_address_first_name </text>
<polygon fill="none" stroke="black" points="5,-2888 5,-2908 237,-2908 237,-2888 5,-2888"/>
<text text-anchor="start" x="26.33" y="-2893.8" font-family="Times,serif" font-size="14.00"> order billing_address_last_name </text>
<polygon fill="none" stroke="black" points="5,-2868 5,-2888 237,-2888 237,-2868 5,-2868"/>
<text text-anchor="start" x="33.72" y="-2873.8" font-family="Times,serif" font-size="14.00"> order billing_address_latitude </text>
<polygon fill="none" stroke="black" points="5,-2848 5,-2868 237,-2868 237,-2848 5,-2848"/>
<text text-anchor="start" x="28.27" y="-2853.8" font-family="Times,serif" font-size="14.00"> order billing_address_longitude </text>
<polygon fill="none" stroke="black" points="5,-2828 5,-2848 237,-2848 237,-2828 5,-2828"/>
<text text-anchor="start" x="39.55" y="-2833.8" font-family="Times,serif" font-size="14.00"> order billing_address_name </text>
<polygon fill="none" stroke="black" points="5,-2808 5,-2828 237,-2828 237,-2808 5,-2808"/>
<text text-anchor="start" x="37.6" y="-2813.8" font-family="Times,serif" font-size="14.00"> order billing_address_phone </text>
<polygon fill="none" stroke="black" points="5,-2788 5,-2808 237,-2808 237,-2788 5,-2788"/>
<text text-anchor="start" x="30.22" y="-2793.8" font-family="Times,serif" font-size="14.00"> order billing_address_province </text>
<polygon fill="none" stroke="black" points="5,-2768 5,-2788 237,-2788 237,-2768 5,-2768"/>
<text text-anchor="start" x="13.5" y="-2773.8" font-family="Times,serif" font-size="14.00"> order billing_address_province_code </text>
<polygon fill="none" stroke="black" points="5,-2748 5,-2768 237,-2768 237,-2748 5,-2748"/>
<text text-anchor="start" x="46.16" y="-2753.8" font-family="Times,serif" font-size="14.00"> order billing_address_zip </text>
<polygon fill="none" stroke="black" points="5,-2728 5,-2748 237,-2748 237,-2728 5,-2728"/>
<text text-anchor="start" x="69.49" y="-2733.8" font-family="Times,serif" font-size="14.00"> order browser_ip </text>
<polygon fill="none" stroke="black" points="5,-2708 5,-2728 237,-2728 237,-2708 5,-2708"/>
<text text-anchor="start" x="29.07" y="-2713.8" font-family="Times,serif" font-size="14.00"> order buyer_accepts_marketing </text>
<polygon fill="none" stroke="black" points="5,-2688 5,-2708 237,-2708 237,-2688 5,-2688"/>
<text text-anchor="start" x="61.34" y="-2693.8" font-family="Times,serif" font-size="14.00"> order cancel_reason </text>
<polygon fill="none" stroke="black" points="5,-2668 5,-2688 237,-2688 237,-2668 5,-2668"/>
<text text-anchor="start" x="71.44" y="-2673.8" font-family="Times,serif" font-size="14.00"> order cart_token </text>
<polygon fill="none" stroke="black" points="5,-2648 5,-2668 237,-2668 237,-2648 5,-2648"/>
<text text-anchor="start" x="56.66" y="-2653.8" font-family="Times,serif" font-size="14.00"> order checkout_token </text>
<polygon fill="none" stroke="black" points="5,-2628 5,-2648 237,-2648 237,-2628 5,-2628"/>
<text text-anchor="start" x="76.5" y="-2633.8" font-family="Times,serif" font-size="14.00"> order currency </text>
<polygon fill="none" stroke="black" points="5,-2608 5,-2628 237,-2628 237,-2608 5,-2608"/>
<text text-anchor="start" x="66.38" y="-2613.8" font-family="Times,serif" font-size="14.00"> order customer_id </text>
<polygon fill="none" stroke="black" points="5,-2588 5,-2608 237,-2608 237,-2588 5,-2588"/>
<text text-anchor="start" x="85.43" y="-2593.8" font-family="Times,serif" font-size="14.00"> order email </text>
<polygon fill="none" stroke="black" points="5,-2568 5,-2588 237,-2588 237,-2568 5,-2568"/>
<text text-anchor="start" x="57.43" y="-2573.8" font-family="Times,serif" font-size="14.00"> order financial_status </text>
<polygon fill="none" stroke="black" points="5,-2548 5,-2568 237,-2568 237,-2548 5,-2548"/>
<text text-anchor="start" x="51.98" y="-2553.8" font-family="Times,serif" font-size="14.00"> order fulfillment_status </text>
<polygon fill="none" stroke="black" points="5,-2528 5,-2548 237,-2548 237,-2528 5,-2528"/>
<text text-anchor="start" x="39.55" y="-2533.8" font-family="Times,serif" font-size="14.00"> order landing_site_base_url </text>
<polygon fill="none" stroke="black" points="5,-2508 5,-2528 237,-2528 237,-2508 5,-2508"/>
<text text-anchor="start" x="69.49" y="-2513.8" font-family="Times,serif" font-size="14.00"> order location_id </text>
<polygon fill="none" stroke="black" points="5,-2488 5,-2508 237,-2508 237,-2488 5,-2488"/>
<text text-anchor="start" x="85.82" y="-2493.8" font-family="Times,serif" font-size="14.00"> order name </text>
<polygon fill="none" stroke="black" points="5,-2468 5,-2488 237,-2488 237,-2468 5,-2468"/>
<text text-anchor="start" x="88.93" y="-2473.8" font-family="Times,serif" font-size="14.00"> order note </text>
<polygon fill="none" stroke="black" points="5,-2448 5,-2468 237,-2468 237,-2448 5,-2448"/>
<text text-anchor="start" x="79.6" y="-2453.8" font-family="Times,serif" font-size="14.00"> order number </text>
<polygon fill="none" stroke="black" points="5,-2428 5,-2448 237,-2448 237,-2428 5,-2428"/>
<text text-anchor="start" x="61.33" y="-2433.8" font-family="Times,serif" font-size="14.00"> order order_number </text>
<polygon fill="none" stroke="black" points="5,-2408 5,-2428 237,-2428 237,-2408 5,-2408"/>
<text text-anchor="start" x="46.55" y="-2413.8" font-family="Times,serif" font-size="14.00"> order processing_method </text>
<polygon fill="none" stroke="black" points="5,-2388 5,-2408 237,-2408 237,-2388 5,-2388"/>
<text text-anchor="start" x="63.28" y="-2393.8" font-family="Times,serif" font-size="14.00"> order referring_site </text>
<polygon fill="none" stroke="black" points="5,-2368 5,-2388 237,-2388 237,-2368 5,-2368"/>
<text text-anchor="start" x="20.88" y="-2373.8" font-family="Times,serif" font-size="14.00"> order shipping_address_address_1 </text>
<polygon fill="none" stroke="black" points="5,-2348 5,-2368 237,-2368 237,-2348 5,-2348"/>
<text text-anchor="start" x="20.88" y="-2353.8" font-family="Times,serif" font-size="14.00"> order shipping_address_address_2 </text>
<polygon fill="none" stroke="black" points="5,-2328 5,-2348 237,-2348 237,-2328 5,-2328"/>
<text text-anchor="start" x="38.38" y="-2333.8" font-family="Times,serif" font-size="14.00"> order shipping_address_city </text>
<polygon fill="none" stroke="black" points="5,-2308 5,-2328 237,-2328 237,-2308 5,-2308"/>
<text text-anchor="start" x="23.22" y="-2313.8" font-family="Times,serif" font-size="14.00"> order shipping_address_company </text>
<polygon fill="none" stroke="black" points="5,-2288 5,-2308 237,-2308 237,-2288 5,-2288"/>
<text text-anchor="start" x="27.49" y="-2293.8" font-family="Times,serif" font-size="14.00"> order shipping_address_country </text>
<polygon fill="none" stroke="black" points="5,-2268 5,-2288 237,-2288 237,-2268 5,-2268"/>
<text text-anchor="start" x="10.78" y="-2273.8" font-family="Times,serif" font-size="14.00"> order shipping_address_country_code </text>
<polygon fill="none" stroke="black" points="5,-2248 5,-2268 237,-2268 237,-2248 5,-2248"/>
<text text-anchor="start" x="19.32" y="-2253.8" font-family="Times,serif" font-size="14.00"> order shipping_address_first_name </text>
<polygon fill="none" stroke="black" points="5,-2228 5,-2248 237,-2248 237,-2228 5,-2228"/>
<text text-anchor="start" x="20.49" y="-2233.8" font-family="Times,serif" font-size="14.00"> order shipping_address_last_name </text>
<polygon fill="none" stroke="black" points="5,-2208 5,-2228 237,-2228 237,-2208 5,-2208"/>
<text text-anchor="start" x="27.88" y="-2213.8" font-family="Times,serif" font-size="14.00"> order shipping_address_latitude </text>
<polygon fill="none" stroke="black" points="5,-2188 5,-2208 237,-2208 237,-2188 5,-2188"/>
<text text-anchor="start" x="22.43" y="-2193.8" font-family="Times,serif" font-size="14.00"> order shipping_address_longitude </text>
<polygon fill="none" stroke="black" points="5,-2168 5,-2188 237,-2188 237,-2168 5,-2168"/>
<text text-anchor="start" x="50.82" y="-2173.8" font-family="Times,serif" font-size="14.00"> order shipping_location </text>
<polygon fill="none" stroke="black" points="5,-2148 5,-2168 237,-2168 237,-2148 5,-2148"/>
<text text-anchor="start" x="33.72" y="-2153.8" font-family="Times,serif" font-size="14.00"> order shipping_address_name </text>
<polygon fill="none" stroke="black" points="5,-2128 5,-2148 237,-2148 237,-2128 5,-2128"/>
<text text-anchor="start" x="31.77" y="-2133.8" font-family="Times,serif" font-size="14.00"> order shipping_address_phone </text>
<polygon fill="none" stroke="black" points="5,-2108 5,-2128 237,-2128 237,-2108 5,-2108"/>
<text text-anchor="start" x="24.38" y="-2113.8" font-family="Times,serif" font-size="14.00"> order shipping_address_province </text>
<polygon fill="none" stroke="black" points="5,-2088 5,-2108 237,-2108 237,-2088 5,-2088"/>
<text text-anchor="start" x="7.67" y="-2093.8" font-family="Times,serif" font-size="14.00"> order shipping_address_province_code </text>
<polygon fill="none" stroke="black" points="5,-2068 5,-2088 237,-2088 237,-2068 5,-2068"/>
<text text-anchor="start" x="40.32" y="-2073.8" font-family="Times,serif" font-size="14.00"> order shipping_address_zip </text>
<polygon fill="none" stroke="black" points="5,-2048 5,-2068 237,-2068 237,-2048 5,-2048"/>
<text text-anchor="start" x="64.05" y="-2053.8" font-family="Times,serif" font-size="14.00"> order source_name </text>
<polygon fill="none" stroke="black" points="5,-2028 5,-2048 237,-2048 237,-2028 5,-2028"/>
<text text-anchor="start" x="61.33" y="-2033.8" font-family="Times,serif" font-size="14.00"> order subtotal_price </text>
<polygon fill="none" stroke="black" points="5,-2008 5,-2028 237,-2028 237,-2008 5,-2008"/>
<text text-anchor="start" x="58.99" y="-2013.8" font-family="Times,serif" font-size="14.00"> order taxes_included </text>
<polygon fill="none" stroke="black" points="5,-1988 5,-2008 237,-2008 237,-1988 5,-1988"/>
<text text-anchor="start" x="85.43" y="-1993.8" font-family="Times,serif" font-size="14.00"> order token </text>
<polygon fill="none" stroke="black" points="5,-1968 5,-1988 237,-1988 237,-1968 5,-1968"/>
<text text-anchor="start" x="58.59" y="-1973.8" font-family="Times,serif" font-size="14.00"> order total_discounts </text>
<polygon fill="none" stroke="black" points="5,-1948 5,-1968 237,-1968 237,-1948 5,-1948"/>
<text text-anchor="start" x="38.39" y="-1953.8" font-family="Times,serif" font-size="14.00"> order total_line_items_price </text>
<polygon fill="none" stroke="black" points="5,-1928 5,-1948 237,-1948 237,-1928 5,-1928"/>
<text text-anchor="start" x="71.05" y="-1933.8" font-family="Times,serif" font-size="14.00"> order total_price </text>
<polygon fill="none" stroke="black" points="5,-1908 5,-1928 237,-1928 237,-1908 5,-1908"/>
<text text-anchor="start" x="76.49" y="-1913.8" font-family="Times,serif" font-size="14.00"> order total_tax </text>
<polygon fill="none" stroke="black" points="5,-1888 5,-1908 237,-1908 237,-1888 5,-1888"/>
<text text-anchor="start" x="65.99" y="-1893.8" font-family="Times,serif" font-size="14.00"> order total_weight </text>
<polygon fill="none" stroke="black" points="5,-1868 5,-1888 237,-1888 237,-1868 5,-1868"/>
<text text-anchor="start" x="80.37" y="-1873.8" font-family="Times,serif" font-size="14.00"> order user_id </text>
</g>
<!-- product -->
<g id="node10" class="node">
<title>product</title>
<polygon fill="none" stroke="black" points="43,-3264 43,-3284 199,-3284 199,-3264 43,-3264"/>
<text text-anchor="start" x="96.12" y="-3270.8" font-family="Times,serif" font-style="italic" font-size="14.00"> product </text>
<polygon fill="none" stroke="black" points="43,-3244 43,-3264 199,-3264 199,-3244 43,-3244"/>
<text text-anchor="start" x="88.92" y="-3249.8" font-family="Times,serif" font-size="14.00"> product id </text>
<polygon fill="none" stroke="black" points="43,-3224 43,-3244 199,-3244 199,-3224 43,-3224"/>
<text text-anchor="start" x="45.77" y="-3229.8" font-family="Times,serif" font-size="14.00"> product _fivetran_deleted </text>
<polygon fill="none" stroke="black" points="43,-3204 43,-3224 199,-3224 199,-3204 43,-3204"/>
<text text-anchor="start" x="75.71" y="-3209.8" font-family="Times,serif" font-size="14.00"> product handle </text>
<polygon fill="none" stroke="black" points="43,-3184 43,-3204 199,-3204 199,-3184 43,-3184"/>
<text text-anchor="start" x="57.43" y="-3189.8" font-family="Times,serif" font-size="14.00"> product product_type </text>
<polygon fill="none" stroke="black" points="43,-3164 43,-3184 199,-3184 199,-3164 43,-3164"/>
<text text-anchor="start" x="47.71" y="-3169.8" font-family="Times,serif" font-size="14.00"> product published_scope </text>
<polygon fill="none" stroke="black" points="43,-3144 43,-3164 199,-3164 199,-3144 43,-3144"/>
<text text-anchor="start" x="83.48" y="-3149.8" font-family="Times,serif" font-size="14.00"> product title </text>
<polygon fill="none" stroke="black" points="43,-3124 43,-3144 199,-3144 199,-3124 43,-3124"/>
<text text-anchor="start" x="74.93" y="-3129.8" font-family="Times,serif" font-size="14.00"> product vendor </text>
</g>
<!-- product_option -->
<g id="node11" class="node">
<title>product_option</title>
<polygon fill="none" stroke="black" points="40,-3420 40,-3440 202,-3440 202,-3420 40,-3420"/>
<text text-anchor="start" x="74.73" y="-3426.8" font-family="Times,serif" font-style="italic" font-size="14.00"> product_option </text>
<polygon fill="none" stroke="black" points="40,-3400 40,-3420 202,-3420 202,-3400 40,-3400"/>
<text text-anchor="start" x="67.53" y="-3405.8" font-family="Times,serif" font-size="14.00"> product_option id </text>
<polygon fill="none" stroke="black" points="40,-3380 40,-3400 202,-3400 202,-3380 40,-3380"/>
<text text-anchor="start" x="57.82" y="-3385.8" font-family="Times,serif" font-size="14.00"> product_option name </text>
<polygon fill="none" stroke="black" points="40,-3360 40,-3380 202,-3380 202,-3360 40,-3360"/>
<text text-anchor="start" x="50.42" y="-3365.8" font-family="Times,serif" font-size="14.00"> product_option position </text>
<polygon fill="none" stroke="black" points="40,-3340 40,-3360 202,-3360 202,-3340 40,-3340"/>
<text text-anchor="start" x="42.65" y="-3345.8" font-family="Times,serif" font-size="14.00"> product_option product_id </text>
<polygon fill="none" stroke="black" points="40,-3320 40,-3340 202,-3340 202,-3320 40,-3320"/>
<text text-anchor="start" x="55.09" y="-3325.8" font-family="Times,serif" font-size="14.00"> product_option values </text>
</g>
<!-- fivetran_audit -->
<g id="node12" class="node">
<title>fivetran_audit</title>
<polygon fill="none" stroke="black" points="0,-3616 0,-3636 242,-3636 242,-3616 0,-3616"/>
<text text-anchor="start" x="78.62" y="-3622.8" font-family="Times,serif" font-style="italic" font-size="14.00"> fivetran_audit </text>
<polygon fill="none" stroke="black" points="0,-3596 0,-3616 242,-3616 242,-3596 0,-3596"/>
<text text-anchor="start" x="71.43" y="-3601.8" font-family="Times,serif" font-size="14.00"> fivetran_audit id </text>
<polygon fill="none" stroke="black" points="0,-3576 0,-3596 242,-3596 242,-3576 0,-3576"/>
<text text-anchor="start" x="53.16" y="-3581.8" font-family="Times,serif" font-size="14.00"> fivetran_audit message </text>
<polygon fill="none" stroke="black" points="0,-3556 0,-3576 242,-3576 242,-3556 0,-3556"/>
<text text-anchor="start" x="2.61" y="-3561.8" font-family="Times,serif" font-size="14.00"> fivetran_audit rows_updated_or_inserted </text>
<polygon fill="none" stroke="black" points="0,-3536 0,-3556 242,-3556 242,-3536 0,-3536"/>
<text text-anchor="start" x="55.88" y="-3541.8" font-family="Times,serif" font-size="14.00"> fivetran_audit schema </text>
<polygon fill="none" stroke="black" points="0,-3516 0,-3536 242,-3536 242,-3516 0,-3516"/>
<text text-anchor="start" x="60.93" y="-3521.8" font-family="Times,serif" font-size="14.00"> fivetran_audit status </text>
<polygon fill="none" stroke="black" points="0,-3496 0,-3516 242,-3516 242,-3496 0,-3496"/>
<text text-anchor="start" x="63.27" y="-3501.8" font-family="Times,serif" font-size="14.00"> fivetran_audit table </text>
<polygon fill="none" stroke="black" points="0,-3476 0,-3496 242,-3496 242,-3476 0,-3476"/>
<text text-anchor="start" x="49.27" y="-3481.8" font-family="Times,serif" font-size="14.00"> fivetran_audit update_id </text>
</g>
<!-- customer_address -->
<g id="node13" class="node">
<title>customer_address</title>
<polygon fill="none" stroke="black" points="386.5,-4012 386.5,-4032 585.5,-4032 585.5,-4012 386.5,-4012"/>
<text text-anchor="start" x="432.35" y="-4018.8" font-family="Times,serif" font-style="italic" font-size="14.00"> customer_address </text>
<polygon fill="none" stroke="black" points="386.5,-3992 386.5,-4012 585.5,-4012 585.5,-3992 386.5,-3992"/>
<text text-anchor="start" x="425.15" y="-3997.8" font-family="Times,serif" font-size="14.00"> customer_address id </text>
<polygon fill="none" stroke="black" points="386.5,-3972 386.5,-3992 585.5,-3992 585.5,-3972 386.5,-3972"/>
<text text-anchor="start" x="402.6" y="-3977.8" font-family="Times,serif" font-size="14.00"> customer_address address_1 </text>
<polygon fill="none" stroke="black" points="386.5,-3952 386.5,-3972 585.5,-3972 585.5,-3952 386.5,-3952"/>
<text text-anchor="start" x="402.6" y="-3957.8" font-family="Times,serif" font-size="14.00"> customer_address address_2 </text>
<polygon fill="none" stroke="black" points="386.5,-3932 386.5,-3952 585.5,-3952 585.5,-3932 386.5,-3932"/>
<text text-anchor="start" x="420.1" y="-3937.8" font-family="Times,serif" font-size="14.00"> customer_address city </text>
<polygon fill="none" stroke="black" points="386.5,-3912 386.5,-3932 585.5,-3932 585.5,-3912 386.5,-3912"/>
<text text-anchor="start" x="404.94" y="-3917.8" font-family="Times,serif" font-size="14.00"> customer_address company </text>
<polygon fill="none" stroke="black" points="386.5,-3892 386.5,-3912 585.5,-3912 585.5,-3892 386.5,-3892"/>
<text text-anchor="start" x="409.22" y="-3897.8" font-family="Times,serif" font-size="14.00"> customer_address country </text>
<polygon fill="none" stroke="black" points="386.5,-3872 386.5,-3892 585.5,-3892 585.5,-3872 386.5,-3872"/>
<text text-anchor="start" x="392.5" y="-3877.8" font-family="Times,serif" font-size="14.00"> customer_address country_code </text>
<polygon fill="none" stroke="black" points="386.5,-3852 386.5,-3872 585.5,-3872 585.5,-3852 386.5,-3852"/>
<text text-anchor="start" x="395.99" y="-3857.8" font-family="Times,serif" font-size="14.00"> customer_address customer_id </text>
<polygon fill="none" stroke="black" points="386.5,-3832 386.5,-3852 585.5,-3852 585.5,-3832 386.5,-3832"/>
<text text-anchor="start" x="401.05" y="-3837.8" font-family="Times,serif" font-size="14.00"> customer_address first_name </text>
<polygon fill="none" stroke="black" points="386.5,-3812 386.5,-3832 585.5,-3832 585.5,-3812 386.5,-3812"/>
<text text-anchor="start" x="402.22" y="-3817.8" font-family="Times,serif" font-size="14.00"> customer_address last_name </text>
<polygon fill="none" stroke="black" points="386.5,-3792 386.5,-3812 585.5,-3812 585.5,-3792 386.5,-3792"/>
<text text-anchor="start" x="409.6" y="-3797.8" font-family="Times,serif" font-size="14.00"> customer_address latitude </text>
<polygon fill="none" stroke="black" points="386.5,-3772 386.5,-3792 585.5,-3792 585.5,-3772 386.5,-3772"/>
<text text-anchor="start" x="404.16" y="-3777.8" font-family="Times,serif" font-size="14.00"> customer_address longitude </text>
<polygon fill="none" stroke="black" points="386.5,-3752 386.5,-3772 585.5,-3772 585.5,-3752 386.5,-3752"/>
<text text-anchor="start" x="415.44" y="-3757.8" font-family="Times,serif" font-size="14.00"> customer_address name </text>
<polygon fill="none" stroke="black" points="386.5,-3732 386.5,-3752 585.5,-3752 585.5,-3732 386.5,-3732"/>
<text text-anchor="start" x="413.49" y="-3737.8" font-family="Times,serif" font-size="14.00"> customer_address phone </text>
<polygon fill="none" stroke="black" points="386.5,-3712 386.5,-3732 585.5,-3732 585.5,-3712 386.5,-3712"/>
<text text-anchor="start" x="406.11" y="-3717.8" font-family="Times,serif" font-size="14.00"> customer_address province </text>
<polygon fill="none" stroke="black" points="386.5,-3692 386.5,-3712 585.5,-3712 585.5,-3692 386.5,-3692"/>
<text text-anchor="start" x="389.39" y="-3697.8" font-family="Times,serif" font-size="14.00"> customer_address province_code </text>
<polygon fill="none" stroke="black" points="386.5,-3672 386.5,-3692 585.5,-3692 585.5,-3672 386.5,-3672"/>
<text text-anchor="start" x="422.05" y="-3677.8" font-family="Times,serif" font-size="14.00"> customer_address zip </text>
</g>
<!-- location -->
<g id="node14" class="node">
<title>location</title>
<polygon fill="none" stroke="black" points="63,-3892 63,-3912 180,-3912 180,-3892 63,-3892"/>
<text text-anchor="start" x="95.45" y="-3898.8" font-family="Times,serif" font-style="italic" font-size="14.00"> location </text>
<polygon fill="none" stroke="black" points="63,-3872 63,-3892 180,-3892 180,-3872 63,-3872"/>
<text text-anchor="start" x="88.26" y="-3877.8" font-family="Times,serif" font-size="14.00"> location id </text>
<polygon fill="none" stroke="black" points="63,-3852 63,-3872 180,-3872 180,-3852 63,-3852"/>
<text text-anchor="start" x="76.99" y="-3857.8" font-family="Times,serif" font-size="14.00"> location active </text>
<polygon fill="none" stroke="black" points="63,-3832 63,-3852 180,-3852 180,-3832 63,-3832"/>
<text text-anchor="start" x="65.71" y="-3837.8" font-family="Times,serif" font-size="14.00"> location address_1 </text>
<polygon fill="none" stroke="black" points="63,-3812 63,-3832 180,-3832 180,-3812 63,-3812"/>
<text text-anchor="start" x="65.71" y="-3817.8" font-family="Times,serif" font-size="14.00"> location address_2 </text>
<polygon fill="none" stroke="black" points="63,-3792 63,-3812 180,-3812 180,-3792 63,-3792"/>
<text text-anchor="start" x="83.21" y="-3797.8" font-family="Times,serif" font-size="14.00"> location city </text>
<polygon fill="none" stroke="black" points="63,-3772 63,-3792 180,-3792 180,-3772 63,-3772"/>
<text text-anchor="start" x="72.32" y="-3777.8" font-family="Times,serif" font-size="14.00"> location country </text>
<polygon fill="none" stroke="black" points="63,-3752 63,-3772 180,-3772 180,-3752 63,-3752"/>
<text text-anchor="start" x="75.44" y="-3757.8" font-family="Times,serif" font-size="14.00"> location legacy </text>
<polygon fill="none" stroke="black" points="63,-3732 63,-3752 180,-3752 180,-3732 63,-3732"/>
<text text-anchor="start" x="78.54" y="-3737.8" font-family="Times,serif" font-size="14.00"> location name </text>
<polygon fill="none" stroke="black" points="63,-3712 63,-3732 180,-3732 180,-3712 63,-3712"/>
<text text-anchor="start" x="76.59" y="-3717.8" font-family="Times,serif" font-size="14.00"> location phone </text>
<polygon fill="none" stroke="black" points="63,-3692 63,-3712 180,-3712 180,-3692 63,-3692"/>
<text text-anchor="start" x="69.21" y="-3697.8" font-family="Times,serif" font-size="14.00"> location province </text>
<polygon fill="none" stroke="black" points="63,-3672 63,-3692 180,-3692 180,-3672 63,-3672"/>
<text text-anchor="start" x="85.15" y="-3677.8" font-family="Times,serif" font-size="14.00"> location zip </text>
</g>
<!-- location&#45;&gt;customer_address -->
<g id="edge1" class="edge">
<title>location:locationid&#45;&gt;customer_address:customer_addresscountry_code</title>
<path fill="none" stroke="black" d="M181,-3882C268.64,-3882 293.05,-3882 375.88,-3882"/>
<polygon fill="black" stroke="black" points="376,-3885.5 386,-3882 376,-3878.5 376,-3885.5"/>
</g>
</g>
</svg>
