<?xml version="1.0" encoding="UTF-8" standalone="no"?>
<!DOCTYPE svg PUBLIC "-//W3C//DTD SVG 1.1//EN"
 "http://www.w3.org/Graphics/SVG/1.1/DTD/svg11.dtd">
<!-- Generated by graphviz version 2.43.0 (0)
 -->
<!-- Title: %3 Pages: 1 -->
<svg width="514pt" height="4104pt"
 viewBox="0.00 0.00 514.00 4104.00" xmlns="http://www.w3.org/2000/svg" xmlns:xlink="http://www.w3.org/1999/xlink">
<g id="graph0" class="graph" transform="scale(1 1) rotate(0) translate(36 4068)">
<title>%3</title>
<polygon fill="white" stroke="transparent" points="-36,36 -36,-4068 478,-4068 478,36 -36,36"/>
<!-- customer_tag -->
<g id="node1" class="node">
<title>customer_tag</title>
<polygon fill="none" stroke="black" points="56,-60 56,-80 137,-80 137,-60 56,-60"/>
<text text-anchor="start" x="58.79" y="-66.8" font-family="Times,serif" font-style="italic" font-size="14.00">customer_tag</text>
<polygon fill="none" stroke="black" points="56,-40 56,-60 137,-60 137,-40 56,-40"/>
<text text-anchor="start" x="61.9" y="-45.8" font-family="Times,serif" font-size="14.00">customer_id</text>
<polygon fill="none" stroke="black" points="56,-20 56,-40 137,-40 137,-20 56,-20"/>
<text text-anchor="start" x="80.95" y="-25.8" font-family="Times,serif" font-size="14.00">index</text>
<polygon fill="none" stroke="black" points="56,0 56,-20 137,-20 137,0 56,0"/>
<text text-anchor="start" x="81.34" y="-5.8" font-family="Times,serif" font-size="14.00">value</text>
</g>
<!-- order_line -->
<g id="node2" class="node">
<title>order_line</title>
<polygon fill="none" stroke="black" points="40,-496 40,-516 153,-516 153,-496 40,-496"/>
<text text-anchor="start" x="67.73" y="-502.8" font-family="Times,serif" font-style="italic" font-size="14.00">order_line</text>
<polygon fill="none" stroke="black" points="40,-476 40,-496 153,-496 153,-476 40,-476"/>
<text text-anchor="start" x="91.06" y="-481.8" font-family="Times,serif" font-size="14.00">id</text>
<polygon fill="none" stroke="black" points="40,-456 40,-476 153,-476 153,-456 40,-456"/>
<text text-anchor="start" x="42.84" y="-461.8" font-family="Times,serif" font-size="14.00">fulfillable_quantity</text>
<polygon fill="none" stroke="black" points="40,-436 40,-456 153,-456 153,-436 40,-436"/>
<text text-anchor="start" x="43.62" y="-441.8" font-family="Times,serif" font-size="14.00">fulfillment_service</text>
<polygon fill="none" stroke="black" points="40,-416 40,-436 153,-436 153,-416 40,-416"/>
<text text-anchor="start" x="47.5" y="-421.8" font-family="Times,serif" font-size="14.00">fulfillment_status</text>
<polygon fill="none" stroke="black" points="40,-396 40,-416 153,-416 153,-396 40,-396"/>
<text text-anchor="start" x="71.23" y="-401.8" font-family="Times,serif" font-size="14.00">gift_card</text>
<polygon fill="none" stroke="black" points="40,-376 40,-396 153,-396 153,-376 40,-376"/>
<text text-anchor="start" x="79.39" y="-381.8" font-family="Times,serif" font-size="14.00">grams</text>
<polygon fill="none" stroke="black" points="40,-356 40,-376 153,-376 153,-356 40,-356"/>
<text text-anchor="start" x="81.34" y="-361.8" font-family="Times,serif" font-size="14.00">name</text>
<polygon fill="none" stroke="black" points="40,-336 40,-356 153,-356 153,-336 40,-336"/>
<text text-anchor="start" x="72.79" y="-341.8" font-family="Times,serif" font-size="14.00">order_id</text>
<polygon fill="none" stroke="black" points="40,-316 40,-336 153,-336 153,-316 40,-316"/>
<text text-anchor="start" x="58.02" y="-321.8" font-family="Times,serif" font-size="14.00">pre_tax_price</text>
<polygon fill="none" stroke="black" points="40,-296 40,-316 153,-316 153,-296 40,-296"/>
<text text-anchor="start" x="82.51" y="-301.8" font-family="Times,serif" font-size="14.00">price</text>
<polygon fill="none" stroke="black" points="40,-276 40,-296 153,-296 153,-276 40,-276"/>
<text text-anchor="start" x="66.17" y="-281.8" font-family="Times,serif" font-size="14.00">product_id</text>
<polygon fill="none" stroke="black" points="40,-256 40,-276 153,-276 153,-256 40,-256"/>
<text text-anchor="start" x="73.56" y="-261.8" font-family="Times,serif" font-size="14.00">quantity</text>
<polygon fill="none" stroke="black" points="40,-236 40,-256 153,-256 153,-236 40,-236"/>
<text text-anchor="start" x="46.34" y="-241.8" font-family="Times,serif" font-size="14.00">requires_shipping</text>
<polygon fill="none" stroke="black" points="40,-216 40,-236 153,-236 153,-216 40,-216"/>
<text text-anchor="start" x="86.78" y="-221.8" font-family="Times,serif" font-size="14.00">sku</text>
<polygon fill="none" stroke="black" points="40,-196 40,-216 153,-216 153,-196 40,-196"/>
<text text-anchor="start" x="76.29" y="-201.8" font-family="Times,serif" font-size="14.00">taxable</text>
<polygon fill="none" stroke="black" points="40,-176 40,-196 153,-196 153,-176 40,-176"/>
<text text-anchor="start" x="85.61" y="-181.8" font-family="Times,serif" font-size="14.00">title</text>
<polygon fill="none" stroke="black" points="40,-156 40,-176 153,-176 153,-156 40,-156"/>
<text text-anchor="start" x="56.84" y="-161.8" font-family="Times,serif" font-size="14.00">total_discount</text>
<polygon fill="none" stroke="black" points="40,-136 40,-156 153,-156 153,-136 40,-136"/>
<text text-anchor="start" x="68.12" y="-141.8" font-family="Times,serif" font-size="14.00">variant_id</text>
<polygon fill="none" stroke="black" points="40,-116 40,-136 153,-136 153,-116 40,-116"/>
<text text-anchor="start" x="77.06" y="-121.8" font-family="Times,serif" font-size="14.00">vendor</text>
</g>
<!-- product_variant -->
<g id="node3" class="node">
<title>product_variant</title>
<polygon fill="none" stroke="black" points="27,-952 27,-972 165,-972 165,-952 27,-952"/>
<text text-anchor="start" x="51.68" y="-958.8" font-family="Times,serif" font-style="italic" font-size="14.00">product_variant</text>
<polygon fill="none" stroke="black" points="27,-932 27,-952 165,-952 165,-932 27,-932"/>
<text text-anchor="start" x="90.56" y="-937.8" font-family="Times,serif" font-size="14.00">id</text>
<polygon fill="none" stroke="black" points="27,-912 27,-932 165,-932 165,-912 27,-912"/>
<text text-anchor="start" x="73.85" y="-917.8" font-family="Times,serif" font-size="14.00">barcode</text>
<polygon fill="none" stroke="black" points="27,-892 27,-912 165,-912 165,-892 27,-892"/>
<text text-anchor="start" x="45.86" y="-897.8" font-family="Times,serif" font-size="14.00">compare_at_price</text>
<polygon fill="none" stroke="black" points="27,-872 27,-892 165,-892 165,-872 27,-872"/>
<text text-anchor="start" x="43.12" y="-877.8" font-family="Times,serif" font-size="14.00">fulfillment_service</text>
<polygon fill="none" stroke="black" points="27,-852 27,-872 165,-872 165,-852 27,-852"/>
<text text-anchor="start" x="78.89" y="-857.8" font-family="Times,serif" font-size="14.00">grams</text>
<polygon fill="none" stroke="black" points="27,-832 27,-852 165,-852 165,-832 27,-832"/>
<text text-anchor="start" x="69.95" y="-837.8" font-family="Times,serif" font-size="14.00">image_id</text>
<polygon fill="none" stroke="black" points="27,-812 27,-832 165,-832 165,-812 27,-812"/>
<text text-anchor="start" x="44.29" y="-817.8" font-family="Times,serif" font-size="14.00">inventory_item_id</text>
<polygon fill="none" stroke="black" points="27,-792 27,-812 165,-812 165,-792 27,-792"/>
<text text-anchor="start" x="29.91" y="-797.8" font-family="Times,serif" font-size="14.00">inventory_management</text>
<polygon fill="none" stroke="black" points="27,-772 27,-792 165,-792 165,-772 27,-772"/>
<text text-anchor="start" x="48.18" y="-777.8" font-family="Times,serif" font-size="14.00">inventory_policy</text>
<polygon fill="none" stroke="black" points="27,-752 27,-772 165,-772 165,-752 27,-752"/>
<text text-anchor="start" x="42.73" y="-757.8" font-family="Times,serif" font-size="14.00">inventory_quantity</text>
<polygon fill="none" stroke="black" points="27,-732 27,-752 165,-752 165,-732 27,-732"/>
<text text-anchor="start" x="30.29" y="-737.8" font-family="Times,serif" font-size="14.00">old_inventory_quantity</text>
<polygon fill="none" stroke="black" points="27,-712 27,-732 165,-732 165,-712 27,-712"/>
<text text-anchor="start" x="73.44" y="-717.8" font-family="Times,serif" font-size="14.00">position</text>
<polygon fill="none" stroke="black" points="27,-692 27,-712 165,-712 165,-692 27,-692"/>
<text text-anchor="start" x="82.01" y="-697.8" font-family="Times,serif" font-size="14.00">price</text>
<polygon fill="none" stroke="black" points="27,-672 27,-692 165,-692 165,-672 27,-672"/>
<text text-anchor="start" x="65.67" y="-677.8" font-family="Times,serif" font-size="14.00">product_id</text>
<polygon fill="none" stroke="black" points="27,-652 27,-672 165,-672 165,-652 27,-652"/>
<text text-anchor="start" x="45.84" y="-657.8" font-family="Times,serif" font-size="14.00">requires_shipping</text>
<polygon fill="none" stroke="black" points="27,-632 27,-652 165,-652 165,-632 27,-632"/>
<text text-anchor="start" x="86.28" y="-637.8" font-family="Times,serif" font-size="14.00">sku</text>
<polygon fill="none" stroke="black" points="27,-612 27,-632 165,-632 165,-612 27,-612"/>
<text text-anchor="start" x="75.79" y="-617.8" font-family="Times,serif" font-size="14.00">taxable</text>
<polygon fill="none" stroke="black" points="27,-592 27,-612 165,-612 165,-592 27,-592"/>
<text text-anchor="start" x="85.11" y="-597.8" font-family="Times,serif" font-size="14.00">title</text>
<polygon fill="none" stroke="black" points="27,-572 27,-592 165,-592 165,-572 27,-572"/>
<text text-anchor="start" x="76.95" y="-577.8" font-family="Times,serif" font-size="14.00">weight</text>
<polygon fill="none" stroke="black" points="27,-552 27,-572 165,-572 165,-552 27,-552"/>
<text text-anchor="start" x="62.56" y="-557.8" font-family="Times,serif" font-size="14.00">weight_unit</text>
</g>
<!-- product_tag -->
<g id="node4" class="node">
<title>product_tag</title>
<polygon fill="none" stroke="black" points="60,-1068 60,-1088 132,-1088 132,-1068 60,-1068"/>
<text text-anchor="start" x="62.57" y="-1074.8" font-family="Times,serif" font-style="italic" font-size="14.00">product_tag</text>
<polygon fill="none" stroke="black" points="60,-1048 60,-1068 132,-1068 132,-1048 60,-1048"/>
<text text-anchor="start" x="80.45" y="-1053.8" font-family="Times,serif" font-size="14.00">index</text>
<polygon fill="none" stroke="black" points="60,-1028 60,-1048 132,-1048 132,-1028 60,-1028"/>
<text text-anchor="start" x="65.67" y="-1033.8" font-family="Times,serif" font-size="14.00">product_id</text>
<polygon fill="none" stroke="black" points="60,-1008 60,-1028 132,-1028 132,-1008 60,-1008"/>
<text text-anchor="start" x="80.84" y="-1013.8" font-family="Times,serif" font-size="14.00">value</text>
</g>
<!-- collection -->
<g id="node5" class="node">
<title>collection</title>
<polygon fill="none" stroke="black" points="45,-1224 45,-1244 148,-1244 148,-1224 45,-1224"/>
<text text-anchor="start" x="68.9" y="-1230.8" font-family="Times,serif" font-style="italic" font-size="14.00">collection</text>
<polygon fill="none" stroke="black" points="45,-1204 45,-1224 148,-1224 148,-1204 45,-1204"/>
<text text-anchor="start" x="91.06" y="-1209.8" font-family="Times,serif" font-size="14.00">id</text>
<polygon fill="none" stroke="black" points="45,-1184 45,-1204 148,-1204 148,-1184 45,-1184"/>
<text text-anchor="start" x="47.91" y="-1189.8" font-family="Times,serif" font-size="14.00">_fivetran_deleted</text>
<polygon fill="none" stroke="black" points="45,-1164 45,-1184 148,-1184 148,-1164 45,-1164"/>
<text text-anchor="start" x="77.84" y="-1169.8" font-family="Times,serif" font-size="14.00">handle</text>
<polygon fill="none" stroke="black" points="45,-1144 45,-1164 148,-1164 148,-1144 45,-1144"/>
<text text-anchor="start" x="49.84" y="-1149.8" font-family="Times,serif" font-size="14.00">published_scope</text>
<polygon fill="none" stroke="black" points="45,-1124 45,-1144 148,-1144 148,-1124 45,-1124"/>
<text text-anchor="start" x="85.61" y="-1129.8" font-family="Times,serif" font-size="14.00">title</text>
</g>
<!-- order_tag -->
<g id="node6" class="node">
<title>order_tag</title>
<polygon fill="none" stroke="black" points="67,-1340 67,-1360 126,-1360 126,-1340 67,-1340"/>
<text text-anchor="start" x="69.68" y="-1346.8" font-family="Times,serif" font-style="italic" font-size="14.00">order_tag</text>
<polygon fill="none" stroke="black" points="67,-1320 67,-1340 126,-1340 126,-1320 67,-1320"/>
<text text-anchor="start" x="80.95" y="-1325.8" font-family="Times,serif" font-size="14.00">index</text>
<polygon fill="none" stroke="black" points="67,-1300 67,-1320 126,-1320 126,-1300 67,-1300"/>
<text text-anchor="start" x="72.79" y="-1305.8" font-family="Times,serif" font-size="14.00">order_id</text>
<polygon fill="none" stroke="black" points="67,-1280 67,-1300 126,-1300 126,-1280 67,-1280"/>
<text text-anchor="start" x="81.34" y="-1285.8" font-family="Times,serif" font-size="14.00">value</text>
</g>
<!-- customer -->
<g id="node7" class="node">
<title>customer</title>
<polygon fill="none" stroke="black" points="41,-1656 41,-1676 152,-1676 152,-1656 41,-1656"/>
<text text-anchor="start" x="70.84" y="-1662.8" font-family="Times,serif" font-style="italic" font-size="14.00">customer</text>
<polygon fill="none" stroke="black" points="41,-1636 41,-1656 152,-1656 152,-1636 41,-1636"/>
<text text-anchor="start" x="91.06" y="-1641.8" font-family="Times,serif" font-size="14.00">id</text>
<polygon fill="none" stroke="black" points="41,-1616 41,-1636 152,-1636 152,-1616 41,-1616"/>
<text text-anchor="start" x="44.02" y="-1621.8" font-family="Times,serif" font-size="14.00">accepts_marketing</text>
<polygon fill="none" stroke="black" points="41,-1596 41,-1616 152,-1616 152,-1596 41,-1596"/>
<text text-anchor="start" x="43.63" y="-1601.8" font-family="Times,serif" font-size="14.00">default_address_id</text>
<polygon fill="none" stroke="black" points="41,-1576 41,-1596 152,-1596 152,-1576 41,-1576"/>
<text text-anchor="start" x="80.95" y="-1581.8" font-family="Times,serif" font-size="14.00">email</text>
<polygon fill="none" stroke="black" points="41,-1556 41,-1576 152,-1576 152,-1556 41,-1556"/>
<text text-anchor="start" x="66.95" y="-1561.8" font-family="Times,serif" font-size="14.00">first_name</text>
<polygon fill="none" stroke="black" points="41,-1536 41,-1556 152,-1556 152,-1536 41,-1536"/>
<text text-anchor="start" x="68.12" y="-1541.8" font-family="Times,serif" font-size="14.00">last_name</text>
<polygon fill="none" stroke="black" points="41,-1516 41,-1536 152,-1536 152,-1516 41,-1516"/>
<text text-anchor="start" x="59.96" y="-1521.8" font-family="Times,serif" font-size="14.00">orders_count</text>
<polygon fill="none" stroke="black" points="41,-1496 41,-1516 152,-1516 152,-1496 41,-1496"/>
<text text-anchor="start" x="54.52" y="-1501.8" font-family="Times,serif" font-size="14.00">new_vs_repeat</text>
<polygon fill="none" stroke="black" points="41,-1476 41,-1496 152,-1496 152,-1476 41,-1476"/>
<text text-anchor="start" x="79.39" y="-1481.8" font-family="Times,serif" font-size="14.00">phone</text>
<polygon fill="none" stroke="black" points="41,-1456 41,-1476 152,-1476 152,-1456 41,-1456"/>
<text text-anchor="start" x="83.67" y="-1461.8" font-family="Times,serif" font-size="14.00">state</text>
<polygon fill="none" stroke="black" points="41,-1436 41,-1456 152,-1456 152,-1436 41,-1436"/>
<text text-anchor="start" x="63.84" y="-1441.8" font-family="Times,serif" font-size="14.00">tax_exempt</text>
<polygon fill="none" stroke="black" points="41,-1416 41,-1436 152,-1436 152,-1416 41,-1416"/>
<text text-anchor="start" x="65.78" y="-1421.8" font-family="Times,serif" font-size="14.00">total_spent</text>
<polygon fill="none" stroke="black" points="41,-1396 41,-1416 152,-1416 152,-1396 41,-1396"/>
<text text-anchor="start" x="56.07" y="-1401.8" font-family="Times,serif" font-size="14.00">verified_email</text>
</g>
<!-- collect -->
<g id="node8" class="node">
<title>collect</title>
<polygon fill="none" stroke="black" points="57,-1812 57,-1832 136,-1832 136,-1812 57,-1812"/>
<text text-anchor="start" x="77.84" y="-1818.8" font-family="Times,serif" font-style="italic" font-size="14.00">collect</text>
<polygon fill="none" stroke="black" points="57,-1792 57,-1812 136,-1812 136,-1792 57,-1792"/>
<text text-anchor="start" x="91.06" y="-1797.8" font-family="Times,serif" font-size="14.00">id</text>
<polygon fill="none" stroke="black" points="57,-1772 57,-1792 136,-1792 136,-1772 57,-1772"/>
<text text-anchor="start" x="59.96" y="-1777.8" font-family="Times,serif" font-size="14.00">collection_id</text>
<polygon fill="none" stroke="black" points="57,-1752 57,-1772 136,-1772 136,-1752 57,-1752"/>
<text text-anchor="start" x="73.57" y="-1757.8" font-family="Times,serif" font-size="14.00">featured</text>
<polygon fill="none" stroke="black" points="57,-1732 57,-1752 136,-1752 136,-1732 57,-1732"/>
<text text-anchor="start" x="73.94" y="-1737.8" font-family="Times,serif" font-size="14.00">position</text>
<polygon fill="none" stroke="black" points="57,-1712 57,-1732 136,-1732 136,-1712 57,-1712"/>
<text text-anchor="start" x="66.17" y="-1717.8" font-family="Times,serif" font-size="14.00">product_id</text>
</g>
<!-- order -->
<g id="node9" class="node">
<title>order</title>
<polygon fill="none" stroke="black" points="0,-3068 0,-3088 192,-3088 192,-3068 0,-3068"/>
<text text-anchor="start" x="81.23" y="-3074.8" font-family="Times,serif" font-style="italic" font-size="14.00">order</text>
<polygon fill="none" stroke="black" points="0,-3048 0,-3068 192,-3068 192,-3048 0,-3048"/>
<text text-anchor="start" x="90.56" y="-3053.8" font-family="Times,serif" font-size="14.00">id</text>
<polygon fill="none" stroke="black" points="0,-3028 0,-3048 192,-3048 192,-3028 0,-3028"/>
<text text-anchor="start" x="21.73" y="-3033.8" font-family="Times,serif" font-size="14.00">billing_address_address_1</text>
<polygon fill="none" stroke="black" points="0,-3008 0,-3028 192,-3028 192,-3008 0,-3008"/>
<text text-anchor="start" x="21.73" y="-3013.8" font-family="Times,serif" font-size="14.00">billing_address_address_2</text>
<polygon fill="none" stroke="black" points="0,-2988 0,-3008 192,-3008 192,-2988 0,-2988"/>
<text text-anchor="start" x="39.23" y="-2993.8" font-family="Times,serif" font-size="14.00">billing_address_city</text>
<polygon fill="none" stroke="black" points="0,-2968 0,-2988 192,-2988 192,-2968 0,-2968"/>
<text text-anchor="start" x="24.07" y="-2973.8" font-family="Times,serif" font-size="14.00">billing_address_company</text>
<polygon fill="none" stroke="black" points="0,-2948 0,-2968 192,-2968 192,-2948 0,-2948"/>
<text text-anchor="start" x="28.34" y="-2953.8" font-family="Times,serif" font-size="14.00">billing_address_country</text>
<polygon fill="none" stroke="black" points="0,-2928 0,-2948 192,-2948 192,-2928 0,-2928"/>
<text text-anchor="start" x="11.63" y="-2933.8" font-family="Times,serif" font-size="14.00">billing_address_country_code</text>
<polygon fill="none" stroke="black" points="0,-2908 0,-2928 192,-2928 192,-2908 0,-2908"/>
<text text-anchor="start" x="20.18" y="-2913.8" font-family="Times,serif" font-size="14.00">billing_address_first_name</text>
<polygon fill="none" stroke="black" points="0,-2888 0,-2908 192,-2908 192,-2888 0,-2888"/>
<text text-anchor="start" x="21.35" y="-2893.8" font-family="Times,serif" font-size="14.00">billing_address_last_name</text>
<polygon fill="none" stroke="black" points="0,-2868 0,-2888 192,-2888 192,-2868 0,-2868"/>
<text text-anchor="start" x="28.73" y="-2873.8" font-family="Times,serif" font-size="14.00">billing_address_latitude</text>
<polygon fill="none" stroke="black" points="0,-2848 0,-2868 192,-2868 192,-2848 0,-2848"/>
<text text-anchor="start" x="23.29" y="-2853.8" font-family="Times,serif" font-size="14.00">billing_address_longitude</text>
<polygon fill="none" stroke="black" points="0,-2828 0,-2848 192,-2848 192,-2828 0,-2828"/>
<text text-anchor="start" x="34.57" y="-2833.8" font-family="Times,serif" font-size="14.00">billing_address_name</text>
<polygon fill="none" stroke="black" points="0,-2808 0,-2828 192,-2828 192,-2808 0,-2808"/>
<text text-anchor="start" x="32.62" y="-2813.8" font-family="Times,serif" font-size="14.00">billing_address_phone</text>
<polygon fill="none" stroke="black" points="0,-2788 0,-2808 192,-2808 192,-2788 0,-2788"/>
<text text-anchor="start" x="25.24" y="-2793.8" font-family="Times,serif" font-size="14.00">billing_address_province</text>
<polygon fill="none" stroke="black" points="0,-2768 0,-2788 192,-2788 192,-2768 0,-2768"/>
<text text-anchor="start" x="8.52" y="-2773.8" font-family="Times,serif" font-size="14.00">billing_address_province_code</text>
<polygon fill="none" stroke="black" points="0,-2748 0,-2768 192,-2768 192,-2748 0,-2748"/>
<text text-anchor="start" x="41.18" y="-2753.8" font-family="Times,serif" font-size="14.00">billing_address_zip</text>
<polygon fill="none" stroke="black" points="0,-2728 0,-2748 192,-2748 192,-2728 0,-2728"/>
<text text-anchor="start" x="64.51" y="-2733.8" font-family="Times,serif" font-size="14.00">browser_ip</text>
<polygon fill="none" stroke="black" points="0,-2708 0,-2728 192,-2728 192,-2708 0,-2708"/>
<text text-anchor="start" x="24.09" y="-2713.8" font-family="Times,serif" font-size="14.00">buyer_accepts_marketing</text>
<polygon fill="none" stroke="black" points="0,-2688 0,-2708 192,-2708 192,-2688 0,-2688"/>
<text text-anchor="start" x="56.36" y="-2693.8" font-family="Times,serif" font-size="14.00">cancel_reason</text>
<polygon fill="none" stroke="black" points="0,-2668 0,-2688 192,-2688 192,-2668 0,-2668"/>
<text text-anchor="start" x="66.46" y="-2673.8" font-family="Times,serif" font-size="14.00">cart_token</text>
<polygon fill="none" stroke="black" points="0,-2648 0,-2668 192,-2668 192,-2648 0,-2648"/>
<text text-anchor="start" x="51.68" y="-2653.8" font-family="Times,serif" font-size="14.00">checkout_token</text>
<polygon fill="none" stroke="black" points="0,-2628 0,-2648 192,-2648 192,-2628 0,-2628"/>
<text text-anchor="start" x="71.52" y="-2633.8" font-family="Times,serif" font-size="14.00">currency</text>
<polygon fill="none" stroke="black" points="0,-2608 0,-2628 192,-2628 192,-2608 0,-2608"/>
<text text-anchor="start" x="61.4" y="-2613.8" font-family="Times,serif" font-size="14.00">customer_id</text>
<polygon fill="none" stroke="black" points="0,-2588 0,-2608 192,-2608 192,-2588 0,-2588"/>
<text text-anchor="start" x="80.45" y="-2593.8" font-family="Times,serif" font-size="14.00">email</text>
<polygon fill="none" stroke="black" points="0,-2568 0,-2588 192,-2588 192,-2568 0,-2568"/>
<text text-anchor="start" x="52.45" y="-2573.8" font-family="Times,serif" font-size="14.00">financial_status</text>
<polygon fill="none" stroke="black" points="0,-2548 0,-2568 192,-2568 192,-2548 0,-2548"/>
<text text-anchor="start" x="47" y="-2553.8" font-family="Times,serif" font-size="14.00">fulfillment_status</text>
<polygon fill="none" stroke="black" points="0,-2528 0,-2548 192,-2548 192,-2528 0,-2528"/>
<text text-anchor="start" x="34.57" y="-2533.8" font-family="Times,serif" font-size="14.00">landing_site_base_url</text>
<polygon fill="none" stroke="black" points="0,-2508 0,-2528 192,-2528 192,-2508 0,-2508"/>
<text text-anchor="start" x="64.51" y="-2513.8" font-family="Times,serif" font-size="14.00">location_id</text>
<polygon fill="none" stroke="black" points="0,-2488 0,-2508 192,-2508 192,-2488 0,-2488"/>
<text text-anchor="start" x="80.84" y="-2493.8" font-family="Times,serif" font-size="14.00">name</text>
<polygon fill="none" stroke="black" points="0,-2468 0,-2488 192,-2488 192,-2468 0,-2468"/>
<text text-anchor="start" x="83.95" y="-2473.8" font-family="Times,serif" font-size="14.00">note</text>
<polygon fill="none" stroke="black" points="0,-2448 0,-2468 192,-2468 192,-2448 0,-2448"/>
<text text-anchor="start" x="74.62" y="-2453.8" font-family="Times,serif" font-size="14.00">number</text>
<polygon fill="none" stroke="black" points="0,-2428 0,-2448 192,-2448 192,-2428 0,-2428"/>
<text text-anchor="start" x="56.35" y="-2433.8" font-family="Times,serif" font-size="14.00">order_number</text>
<polygon fill="none" stroke="black" points="0,-2408 0,-2428 192,-2428 192,-2408 0,-2408"/>
<text text-anchor="start" x="41.57" y="-2413.8" font-family="Times,serif" font-size="14.00">processing_method</text>
<polygon fill="none" stroke="black" points="0,-2388 0,-2408 192,-2408 192,-2388 0,-2388"/>
<text text-anchor="start" x="58.3" y="-2393.8" font-family="Times,serif" font-size="14.00">referring_site</text>
<polygon fill="none" stroke="black" points="0,-2368 0,-2388 192,-2388 192,-2368 0,-2368"/>
<text text-anchor="start" x="15.9" y="-2373.8" font-family="Times,serif" font-size="14.00">shipping_address_address_1</text>
<polygon fill="none" stroke="black" points="0,-2348 0,-2368 192,-2368 192,-2348 0,-2348"/>
<text text-anchor="start" x="15.9" y="-2353.8" font-family="Times,serif" font-size="14.00">shipping_address_address_2</text>
<polygon fill="none" stroke="black" points="0,-2328 0,-2348 192,-2348 192,-2328 0,-2328"/>
<text text-anchor="start" x="33.4" y="-2333.8" font-family="Times,serif" font-size="14.00">shipping_address_city</text>
<polygon fill="none" stroke="black" points="0,-2308 0,-2328 192,-2328 192,-2308 0,-2308"/>
<text text-anchor="start" x="18.23" y="-2313.8" font-family="Times,serif" font-size="14.00">shipping_address_company</text>
<polygon fill="none" stroke="black" points="0,-2288 0,-2308 192,-2308 192,-2288 0,-2288"/>
<text text-anchor="start" x="22.51" y="-2293.8" font-family="Times,serif" font-size="14.00">shipping_address_country</text>
<polygon fill="none" stroke="black" points="0,-2268 0,-2288 192,-2288 192,-2268 0,-2268"/>
<text text-anchor="start" x="5.8" y="-2273.8" font-family="Times,serif" font-size="14.00">shipping_address_country_code</text>
<polygon fill="none" stroke="black" points="0,-2248 0,-2268 192,-2268 192,-2248 0,-2248"/>
<text text-anchor="start" x="14.34" y="-2253.8" font-family="Times,serif" font-size="14.00">shipping_address_first_name</text>
<polygon fill="none" stroke="black" points="0,-2228 0,-2248 192,-2248 192,-2228 0,-2228"/>
<text text-anchor="start" x="15.51" y="-2233.8" font-family="Times,serif" font-size="14.00">shipping_address_last_name</text>
<polygon fill="none" stroke="black" points="0,-2208 0,-2228 192,-2228 192,-2208 0,-2208"/>
<text text-anchor="start" x="22.9" y="-2213.8" font-family="Times,serif" font-size="14.00">shipping_address_latitude</text>
<polygon fill="none" stroke="black" points="0,-2188 0,-2208 192,-2208 192,-2188 0,-2188"/>
<text text-anchor="start" x="17.45" y="-2193.8" font-family="Times,serif" font-size="14.00">shipping_address_longitude</text>
<polygon fill="none" stroke="black" points="0,-2168 0,-2188 192,-2188 192,-2168 0,-2168"/>
<text text-anchor="start" x="45.84" y="-2173.8" font-family="Times,serif" font-size="14.00">shipping_location</text>
<polygon fill="none" stroke="black" points="0,-2148 0,-2168 192,-2168 192,-2148 0,-2148"/>
<text text-anchor="start" x="28.73" y="-2153.8" font-family="Times,serif" font-size="14.00">shipping_address_name</text>
<polygon fill="none" stroke="black" points="0,-2128 0,-2148 192,-2148 192,-2128 0,-2128"/>
<text text-anchor="start" x="26.79" y="-2133.8" font-family="Times,serif" font-size="14.00">shipping_address_phone</text>
<polygon fill="none" stroke="black" points="0,-2108 0,-2128 192,-2128 192,-2108 0,-2108"/>
<text text-anchor="start" x="19.4" y="-2113.8" font-family="Times,serif" font-size="14.00">shipping_address_province</text>
<polygon fill="none" stroke="black" points="0,-2088 0,-2108 192,-2108 192,-2088 0,-2088"/>
<text text-anchor="start" x="2.69" y="-2093.8" font-family="Times,serif" font-size="14.00">shipping_address_province_code</text>
<polygon fill="none" stroke="black" points="0,-2068 0,-2088 192,-2088 192,-2068 0,-2068"/>
<text text-anchor="start" x="35.34" y="-2073.8" font-family="Times,serif" font-size="14.00">shipping_address_zip</text>
<polygon fill="none" stroke="black" points="0,-2048 0,-2068 192,-2068 192,-2048 0,-2048"/>
<text text-anchor="start" x="59.07" y="-2053.8" font-family="Times,serif" font-size="14.00">source_name</text>
<polygon fill="none" stroke="black" points="0,-2028 0,-2048 192,-2048 192,-2028 0,-2028"/>
<text text-anchor="start" x="56.34" y="-2033.8" font-family="Times,serif" font-size="14.00">subtotal_price</text>
<polygon fill="none" stroke="black" points="0,-2008 0,-2028 192,-2028 192,-2008 0,-2008"/>
<text text-anchor="start" x="54.01" y="-2013.8" font-family="Times,serif" font-size="14.00">taxes_included</text>
<polygon fill="none" stroke="black" points="0,-1988 0,-2008 192,-2008 192,-1988 0,-1988"/>
<text text-anchor="start" x="80.45" y="-1993.8" font-family="Times,serif" font-size="14.00">token</text>
<polygon fill="none" stroke="black" points="0,-1968 0,-1988 192,-1988 192,-1968 0,-1968"/>
<text text-anchor="start" x="53.61" y="-1973.8" font-family="Times,serif" font-size="14.00">total_discounts</text>
<polygon fill="none" stroke="black" points="0,-1948 0,-1968 192,-1968 192,-1948 0,-1948"/>
<text text-anchor="start" x="33.41" y="-1953.8" font-family="Times,serif" font-size="14.00">total_line_items_price</text>
<polygon fill="none" stroke="black" points="0,-1928 0,-1948 192,-1948 192,-1928 0,-1928"/>
<text text-anchor="start" x="66.07" y="-1933.8" font-family="Times,serif" font-size="14.00">total_price</text>
<polygon fill="none" stroke="black" points="0,-1908 0,-1928 192,-1928 192,-1908 0,-1908"/>
<text text-anchor="start" x="71.51" y="-1913.8" font-family="Times,serif" font-size="14.00">total_tax</text>
<polygon fill="none" stroke="black" points="0,-1888 0,-1908 192,-1908 192,-1888 0,-1888"/>
<text text-anchor="start" x="61.01" y="-1893.8" font-family="Times,serif" font-size="14.00">total_weight</text>
<polygon fill="none" stroke="black" points="0,-1868 0,-1888 192,-1888 192,-1868 0,-1868"/>
<text text-anchor="start" x="75.39" y="-1873.8" font-family="Times,serif" font-size="14.00">user_id</text>
</g>
<!-- product -->
<g id="node10" class="node">
<title>product</title>
<polygon fill="none" stroke="black" points="45,-3264 45,-3284 148,-3284 148,-3264 45,-3264"/>
<text text-anchor="start" x="75.12" y="-3270.8" font-family="Times,serif" font-style="italic" font-size="14.00">product</text>
<polygon fill="none" stroke="black" points="45,-3244 45,-3264 148,-3264 148,-3244 45,-3244"/>
<text text-anchor="start" x="91.06" y="-3249.8" font-family="Times,serif" font-size="14.00">id</text>
<polygon fill="none" stroke="black" points="45,-3224 45,-3244 148,-3244 148,-3224 45,-3224"/>
<text text-anchor="start" x="47.91" y="-3229.8" font-family="Times,serif" font-size="14.00">_fivetran_deleted</text>
<polygon fill="none" stroke="black" points="45,-3204 45,-3224 148,-3224 148,-3204 45,-3204"/>
<text text-anchor="start" x="77.84" y="-3209.8" font-family="Times,serif" font-size="14.00">handle</text>
<polygon fill="none" stroke="black" points="45,-3184 45,-3204 148,-3204 148,-3184 45,-3184"/>
<text text-anchor="start" x="59.57" y="-3189.8" font-family="Times,serif" font-size="14.00">product_type</text>
<polygon fill="none" stroke="black" points="45,-3164 45,-3184 148,-3184 148,-3164 45,-3164"/>
<text text-anchor="start" x="49.84" y="-3169.8" font-family="Times,serif" font-size="14.00">published_scope</text>
<polygon fill="none" stroke="black" points="45,-3144 45,-3164 148,-3164 148,-3144 45,-3144"/>
<text text-anchor="start" x="85.61" y="-3149.8" font-family="Times,serif" font-size="14.00">title</text>
<polygon fill="none" stroke="black" points="45,-3124 45,-3144 148,-3144 148,-3124 45,-3124"/>
<text text-anchor="start" x="77.06" y="-3129.8" font-family="Times,serif" font-size="14.00">vendor</text>
</g>
<!-- product_option -->
<g id="node11" class="node">
<title>product_option</title>
<polygon fill="none" stroke="black" points="51,-3420 51,-3440 142,-3440 142,-3420 51,-3420"/>
<text text-anchor="start" x="53.73" y="-3426.8" font-family="Times,serif" font-style="italic" font-size="14.00">product_option</text>
<polygon fill="none" stroke="black" points="51,-3400 51,-3420 142,-3420 142,-3400 51,-3400"/>
<text text-anchor="start" x="91.06" y="-3405.8" font-family="Times,serif" font-size="14.00">id</text>
<polygon fill="none" stroke="black" points="51,-3380 51,-3400 142,-3400 142,-3380 51,-3380"/>
<text text-anchor="start" x="81.34" y="-3385.8" font-family="Times,serif" font-size="14.00">name</text>
<polygon fill="none" stroke="black" points="51,-3360 51,-3380 142,-3380 142,-3360 51,-3360"/>
<text text-anchor="start" x="73.94" y="-3365.8" font-family="Times,serif" font-size="14.00">position</text>
<polygon fill="none" stroke="black" points="51,-3340 51,-3360 142,-3360 142,-3340 51,-3340"/>
<text text-anchor="start" x="66.17" y="-3345.8" font-family="Times,serif" font-size="14.00">product_id</text>
<polygon fill="none" stroke="black" points="51,-3320 51,-3340 142,-3340 142,-3320 51,-3320"/>
<text text-anchor="start" x="78.62" y="-3325.8" font-family="Times,serif" font-size="14.00">values</text>
</g>
<!-- fivetran_audit -->
<g id="node12" class="node">
<title>fivetran_audit</title>
<polygon fill="none" stroke="black" points="19,-3616 19,-3636 173,-3636 173,-3616 19,-3616"/>
<text text-anchor="start" x="57.12" y="-3622.8" font-family="Times,serif" font-style="italic" font-size="14.00">fivetran_audit</text>
<polygon fill="none" stroke="black" points="19,-3596 19,-3616 173,-3616 173,-3596 19,-3596"/>
<text text-anchor="start" x="90.56" y="-3601.8" font-family="Times,serif" font-size="14.00">id</text>
<polygon fill="none" stroke="black" points="19,-3576 19,-3596 173,-3596 173,-3576 19,-3576"/>
<text text-anchor="start" x="72.29" y="-3581.8" font-family="Times,serif" font-size="14.00">message</text>
<polygon fill="none" stroke="black" points="19,-3556 19,-3576 173,-3576 173,-3556 19,-3556"/>
<text text-anchor="start" x="21.74" y="-3561.8" font-family="Times,serif" font-size="14.00">rows_updated_or_inserted</text>
<polygon fill="none" stroke="black" points="19,-3536 19,-3556 173,-3556 173,-3536 19,-3536"/>
<text text-anchor="start" x="75.01" y="-3541.8" font-family="Times,serif" font-size="14.00">schema</text>
<polygon fill="none" stroke="black" points="19,-3516 19,-3536 173,-3536 173,-3516 19,-3516"/>
<text text-anchor="start" x="80.06" y="-3521.8" font-family="Times,serif" font-size="14.00">status</text>
<polygon fill="none" stroke="black" points="19,-3496 19,-3516 173,-3516 173,-3496 19,-3496"/>
<text text-anchor="start" x="82.4" y="-3501.8" font-family="Times,serif" font-size="14.00">table</text>
<polygon fill="none" stroke="black" points="19,-3476 19,-3496 173,-3496 173,-3476 19,-3476"/>
<text text-anchor="start" x="68.4" y="-3481.8" font-family="Times,serif" font-size="14.00">update_id</text>
</g>
<!-- customer_address -->
<g id="node13" class="node">
<title>customer_address</title>
<polygon fill="none" stroke="black" points="336,-4012 336,-4032 442,-4032 442,-4012 336,-4012"/>
<text text-anchor="start" x="338.85" y="-4018.8" font-family="Times,serif" font-style="italic" font-size="14.00">customer_address</text>
<polygon fill="none" stroke="black" points="336,-3992 336,-4012 442,-4012 442,-3992 336,-3992"/>
<text text-anchor="start" x="383.56" y="-3997.8" font-family="Times,serif" font-size="14.00">id</text>
<polygon fill="none" stroke="black" points="336,-3972 336,-3992 442,-3992 442,-3972 336,-3972"/>
<text text-anchor="start" x="361.01" y="-3977.8" font-family="Times,serif" font-size="14.00">address_1</text>
<polygon fill="none" stroke="black" points="336,-3952 336,-3972 442,-3972 442,-3952 336,-3952"/>
<text text-anchor="start" x="361.01" y="-3957.8" font-family="Times,serif" font-size="14.00">address_2</text>
<polygon fill="none" stroke="black" points="336,-3932 336,-3952 442,-3952 442,-3932 336,-3932"/>
<text text-anchor="start" x="378.5" y="-3937.8" font-family="Times,serif" font-size="14.00">city</text>
<polygon fill="none" stroke="black" points="336,-3912 336,-3932 442,-3932 442,-3912 336,-3912"/>
<text text-anchor="start" x="363.34" y="-3917.8" font-family="Times,serif" font-size="14.00">company</text>
<polygon fill="none" stroke="black" points="336,-3892 336,-3912 442,-3912 442,-3892 336,-3892"/>
<text text-anchor="start" x="367.62" y="-3897.8" font-family="Times,serif" font-size="14.00">country</text>
<polygon fill="none" stroke="black" points="336,-3872 336,-3892 442,-3892 442,-3872 336,-3872"/>
<text text-anchor="start" x="350.9" y="-3877.8" font-family="Times,serif" font-size="14.00">country_code</text>
<polygon fill="none" stroke="black" points="336,-3852 336,-3872 442,-3872 442,-3852 336,-3852"/>
<text text-anchor="start" x="354.4" y="-3857.8" font-family="Times,serif" font-size="14.00">customer_id</text>
<polygon fill="none" stroke="black" points="336,-3832 336,-3852 442,-3852 442,-3832 336,-3832"/>
<text text-anchor="start" x="359.45" y="-3837.8" font-family="Times,serif" font-size="14.00">first_name</text>
<polygon fill="none" stroke="black" points="336,-3812 336,-3832 442,-3832 442,-3812 336,-3812"/>
<text text-anchor="start" x="360.62" y="-3817.8" font-family="Times,serif" font-size="14.00">last_name</text>
<polygon fill="none" stroke="black" points="336,-3792 336,-3812 442,-3812 442,-3792 336,-3792"/>
<text text-anchor="start" x="368.01" y="-3797.8" font-family="Times,serif" font-size="14.00">latitude</text>
<polygon fill="none" stroke="black" points="336,-3772 336,-3792 442,-3792 442,-3772 336,-3772"/>
<text text-anchor="start" x="362.56" y="-3777.8" font-family="Times,serif" font-size="14.00">longitude</text>
<polygon fill="none" stroke="black" points="336,-3752 336,-3772 442,-3772 442,-3752 336,-3752"/>
<text text-anchor="start" x="373.84" y="-3757.8" font-family="Times,serif" font-size="14.00">name</text>
<polygon fill="none" stroke="black" points="336,-3732 336,-3752 442,-3752 442,-3732 336,-3732"/>
<text text-anchor="start" x="371.89" y="-3737.8" font-family="Times,serif" font-size="14.00">phone</text>
<polygon fill="none" stroke="black" points="336,-3712 336,-3732 442,-3732 442,-3712 336,-3712"/>
<text text-anchor="start" x="364.51" y="-3717.8" font-family="Times,serif" font-size="14.00">province</text>
<polygon fill="none" stroke="black" points="336,-3692 336,-3712 442,-3712 442,-3692 336,-3692"/>
<text text-anchor="start" x="347.8" y="-3697.8" font-family="Times,serif" font-size="14.00">province_code</text>
<polygon fill="none" stroke="black" points="336,-3672 336,-3692 442,-3692 442,-3672 336,-3672"/>
<text text-anchor="start" x="380.45" y="-3677.8" font-family="Times,serif" font-size="14.00">zip</text>
</g>
<!-- location -->
<g id="node14" class="node">
<title>location</title>
<polygon fill="none" stroke="black" points="66,-3892 66,-3912 127,-3912 127,-3892 66,-3892"/>
<text text-anchor="start" x="73.95" y="-3898.8" font-family="Times,serif" font-style="italic" font-size="14.00">location</text>
<polygon fill="none" stroke="black" points="66,-3872 66,-3892 127,-3892 127,-3872 66,-3872"/>
<text text-anchor="start" x="91.06" y="-3877.8" font-family="Times,serif" font-size="14.00">id</text>
<polygon fill="none" stroke="black" points="66,-3852 66,-3872 127,-3872 127,-3852 66,-3852"/>
<text text-anchor="start" x="79.79" y="-3857.8" font-family="Times,serif" font-size="14.00">active</text>
<polygon fill="none" stroke="black" points="66,-3832 66,-3852 127,-3852 127,-3832 66,-3832"/>
<text text-anchor="start" x="68.51" y="-3837.8" font-family="Times,serif" font-size="14.00">address_1</text>
<polygon fill="none" stroke="black" points="66,-3812 66,-3832 127,-3832 127,-3812 66,-3812"/>
<text text-anchor="start" x="68.51" y="-3817.8" font-family="Times,serif" font-size="14.00">address_2</text>
<polygon fill="none" stroke="black" points="66,-3792 66,-3812 127,-3812 127,-3792 66,-3792"/>
<text text-anchor="start" x="86" y="-3797.8" font-family="Times,serif" font-size="14.00">city</text>
<polygon fill="none" stroke="black" points="66,-3772 66,-3792 127,-3792 127,-3772 66,-3772"/>
<text text-anchor="start" x="75.12" y="-3777.8" font-family="Times,serif" font-size="14.00">country</text>
<polygon fill="none" stroke="black" points="66,-3752 66,-3772 127,-3772 127,-3752 66,-3752"/>
<text text-anchor="start" x="78.23" y="-3757.8" font-family="Times,serif" font-size="14.00">legacy</text>
<polygon fill="none" stroke="black" points="66,-3732 66,-3752 127,-3752 127,-3732 66,-3732"/>
<text text-anchor="start" x="81.34" y="-3737.8" font-family="Times,serif" font-size="14.00">name</text>
<polygon fill="none" stroke="black" points="66,-3712 66,-3732 127,-3732 127,-3712 66,-3712"/>
<text text-anchor="start" x="79.39" y="-3717.8" font-family="Times,serif" font-size="14.00">phone</text>
<polygon fill="none" stroke="black" points="66,-3692 66,-3712 127,-3712 127,-3692 66,-3692"/>
<text text-anchor="start" x="72.01" y="-3697.8" font-family="Times,serif" font-size="14.00">province</text>
<polygon fill="none" stroke="black" points="66,-3672 66,-3692 127,-3692 127,-3672 66,-3672"/>
<text text-anchor="start" x="87.95" y="-3677.8" font-family="Times,serif" font-size="14.00">zip</text>
</g>
<!-- location&#45;&gt;customer_address -->
<g id="edge1" class="edge">
<title>location:locationid&#45;&gt;customer_address:customer_addresscountry_code</title>
<path fill="none" stroke="black" d="M128,-3882C217.01,-3882 241.74,-3882 325.99,-3882"/>
<polygon fill="black" stroke="black" points="326,-3885.5 336,-3882 326,-3878.5 326,-3885.5"/>
</g>
</g>
</svg>
