<?xml version="1.0" encoding="UTF-8" standalone="no"?>
<!DOCTYPE svg PUBLIC "-//W3C//DTD SVG 1.1//EN"
 "http://www.w3.org/Graphics/SVG/1.1/DTD/svg11.dtd">
<!-- Generated by graphviz version 2.43.0 (0)
 -->
<!-- Title: %3 Pages: 1 -->
<svg width="1336pt" height="1842pt"
 viewBox="0.00 0.00 1336.00 1842.00" xmlns="http://www.w3.org/2000/svg" xmlns:xlink="http://www.w3.org/1999/xlink">
<g id="graph0" class="graph" transform="scale(1 1) rotate(0) translate(36 1806)">
<title>%3</title>
<polygon fill="white" stroke="transparent" points="-36,36 -36,-1806 1300,-1806 1300,36 -36,36"/>
<!-- customer_tag -->
<g id="node1" class="node">
<title>customer_tag</title>
<polygon fill="none" stroke="black" points="562,-817 562,-837 643,-837 643,-817 562,-817"/>
<text text-anchor="start" x="564.79" y="-823.8" font-family="Times,serif" font-style="italic" font-size="14.00">customer_tag</text>
<polygon fill="none" stroke="black" points="562,-797 562,-817 643,-817 643,-797 562,-797"/>
<text text-anchor="start" x="567.9" y="-802.8" font-family="Times,serif" font-size="14.00">customer_id</text>
<polygon fill="none" stroke="black" points="562,-777 562,-797 643,-797 643,-777 562,-777"/>
<text text-anchor="start" x="586.95" y="-782.8" font-family="Times,serif" font-size="14.00">index</text>
<polygon fill="none" stroke="black" points="562,-757 562,-777 643,-777 643,-757 562,-757"/>
<text text-anchor="start" x="587.34" y="-762.8" font-family="Times,serif" font-size="14.00">value</text>
</g>
<!-- customer -->
<g id="node7" class="node">
<title>customer</title>
<polygon fill="none" stroke="black" points="816.5,-767 816.5,-787 927.5,-787 927.5,-767 816.5,-767"/>
<text text-anchor="start" x="846.34" y="-773.8" font-family="Times,serif" font-style="italic" font-size="14.00">customer</text>
<polygon fill="none" stroke="black" points="816.5,-747 816.5,-767 927.5,-767 927.5,-747 816.5,-747"/>
<text text-anchor="start" x="866.56" y="-752.8" font-family="Times,serif" font-size="14.00">id</text>
<polygon fill="none" stroke="black" points="816.5,-727 816.5,-747 927.5,-747 927.5,-727 816.5,-727"/>
<text text-anchor="start" x="819.52" y="-732.8" font-family="Times,serif" font-size="14.00">accepts_marketing</text>
<polygon fill="none" stroke="black" points="816.5,-707 816.5,-727 927.5,-727 927.5,-707 816.5,-707"/>
<text text-anchor="start" x="819.13" y="-712.8" font-family="Times,serif" font-size="14.00">default_address_id</text>
<polygon fill="none" stroke="black" points="816.5,-687 816.5,-707 927.5,-707 927.5,-687 816.5,-687"/>
<text text-anchor="start" x="856.45" y="-692.8" font-family="Times,serif" font-size="14.00">email</text>
<polygon fill="none" stroke="black" points="816.5,-667 816.5,-687 927.5,-687 927.5,-667 816.5,-667"/>
<text text-anchor="start" x="842.45" y="-672.8" font-family="Times,serif" font-size="14.00">first_name</text>
<polygon fill="none" stroke="black" points="816.5,-647 816.5,-667 927.5,-667 927.5,-647 816.5,-647"/>
<text text-anchor="start" x="843.62" y="-652.8" font-family="Times,serif" font-size="14.00">last_name</text>
<polygon fill="none" stroke="black" points="816.5,-627 816.5,-647 927.5,-647 927.5,-627 816.5,-627"/>
<text text-anchor="start" x="835.46" y="-632.8" font-family="Times,serif" font-size="14.00">orders_count</text>
<polygon fill="none" stroke="black" points="816.5,-607 816.5,-627 927.5,-627 927.5,-607 816.5,-607"/>
<text text-anchor="start" x="830.02" y="-612.8" font-family="Times,serif" font-size="14.00">new_vs_repeat</text>
<polygon fill="none" stroke="black" points="816.5,-587 816.5,-607 927.5,-607 927.5,-587 816.5,-587"/>
<text text-anchor="start" x="854.89" y="-592.8" font-family="Times,serif" font-size="14.00">phone</text>
<polygon fill="none" stroke="black" points="816.5,-567 816.5,-587 927.5,-587 927.5,-567 816.5,-567"/>
<text text-anchor="start" x="859.17" y="-572.8" font-family="Times,serif" font-size="14.00">state</text>
<polygon fill="none" stroke="black" points="816.5,-547 816.5,-567 927.5,-567 927.5,-547 816.5,-547"/>
<text text-anchor="start" x="839.34" y="-552.8" font-family="Times,serif" font-size="14.00">tax_exempt</text>
<polygon fill="none" stroke="black" points="816.5,-527 816.5,-547 927.5,-547 927.5,-527 816.5,-527"/>
<text text-anchor="start" x="841.28" y="-532.8" font-family="Times,serif" font-size="14.00">total_spent</text>
<polygon fill="none" stroke="black" points="816.5,-507 816.5,-527 927.5,-527 927.5,-507 816.5,-507"/>
<text text-anchor="start" x="831.57" y="-512.8" font-family="Times,serif" font-size="14.00">verified_email</text>
</g>
<!-- customer_tag&#45;&gt;customer -->
<g id="edge12" class="edge">
<title>customer_tag:customer_tagcustomer_id&#45;&gt;customer:customerid</title>
<path fill="none" stroke="black" d="M644,-807C719.83,-807 734.83,-761.39 805.19,-757.29"/>
<polygon fill="black" stroke="black" points="805.6,-760.78 815.5,-757 805.4,-753.79 805.6,-760.78"/>
</g>
<!-- order_line -->
<g id="node2" class="node">
<title>order_line</title>
<polygon fill="none" stroke="black" points="815.5,-1644 815.5,-1664 928.5,-1664 928.5,-1644 815.5,-1644"/>
<text text-anchor="start" x="843.23" y="-1650.8" font-family="Times,serif" font-style="italic" font-size="14.00">order_line</text>
<polygon fill="none" stroke="black" points="815.5,-1624 815.5,-1644 928.5,-1644 928.5,-1624 815.5,-1624"/>
<text text-anchor="start" x="866.56" y="-1629.8" font-family="Times,serif" font-size="14.00">id</text>
<polygon fill="none" stroke="black" points="815.5,-1604 815.5,-1624 928.5,-1624 928.5,-1604 815.5,-1604"/>
<text text-anchor="start" x="818.34" y="-1609.8" font-family="Times,serif" font-size="14.00">fulfillable_quantity</text>
<polygon fill="none" stroke="black" points="815.5,-1584 815.5,-1604 928.5,-1604 928.5,-1584 815.5,-1584"/>
<text text-anchor="start" x="819.12" y="-1589.8" font-family="Times,serif" font-size="14.00">fulfillment_service</text>
<polygon fill="none" stroke="black" points="815.5,-1564 815.5,-1584 928.5,-1584 928.5,-1564 815.5,-1564"/>
<text text-anchor="start" x="823" y="-1569.8" font-family="Times,serif" font-size="14.00">fulfillment_status</text>
<polygon fill="none" stroke="black" points="815.5,-1544 815.5,-1564 928.5,-1564 928.5,-1544 815.5,-1544"/>
<text text-anchor="start" x="846.73" y="-1549.8" font-family="Times,serif" font-size="14.00">gift_card</text>
<polygon fill="none" stroke="black" points="815.5,-1524 815.5,-1544 928.5,-1544 928.5,-1524 815.5,-1524"/>
<text text-anchor="start" x="854.89" y="-1529.8" font-family="Times,serif" font-size="14.00">grams</text>
<polygon fill="none" stroke="black" points="815.5,-1504 815.5,-1524 928.5,-1524 928.5,-1504 815.5,-1504"/>
<text text-anchor="start" x="856.84" y="-1509.8" font-family="Times,serif" font-size="14.00">name</text>
<polygon fill="none" stroke="black" points="815.5,-1484 815.5,-1504 928.5,-1504 928.5,-1484 815.5,-1484"/>
<text text-anchor="start" x="848.29" y="-1489.8" font-family="Times,serif" font-size="14.00">order_id</text>
<polygon fill="none" stroke="black" points="815.5,-1464 815.5,-1484 928.5,-1484 928.5,-1464 815.5,-1464"/>
<text text-anchor="start" x="833.52" y="-1469.8" font-family="Times,serif" font-size="14.00">pre_tax_price</text>
<polygon fill="none" stroke="black" points="815.5,-1444 815.5,-1464 928.5,-1464 928.5,-1444 815.5,-1444"/>
<text text-anchor="start" x="858.01" y="-1449.8" font-family="Times,serif" font-size="14.00">price</text>
<polygon fill="none" stroke="black" points="815.5,-1424 815.5,-1444 928.5,-1444 928.5,-1424 815.5,-1424"/>
<text text-anchor="start" x="841.67" y="-1429.8" font-family="Times,serif" font-size="14.00">product_id</text>
<polygon fill="none" stroke="black" points="815.5,-1404 815.5,-1424 928.5,-1424 928.5,-1404 815.5,-1404"/>
<text text-anchor="start" x="849.06" y="-1409.8" font-family="Times,serif" font-size="14.00">quantity</text>
<polygon fill="none" stroke="black" points="815.5,-1384 815.5,-1404 928.5,-1404 928.5,-1384 815.5,-1384"/>
<text text-anchor="start" x="821.84" y="-1389.8" font-family="Times,serif" font-size="14.00">requires_shipping</text>
<polygon fill="none" stroke="black" points="815.5,-1364 815.5,-1384 928.5,-1384 928.5,-1364 815.5,-1364"/>
<text text-anchor="start" x="862.28" y="-1369.8" font-family="Times,serif" font-size="14.00">sku</text>
<polygon fill="none" stroke="black" points="815.5,-1344 815.5,-1364 928.5,-1364 928.5,-1344 815.5,-1344"/>
<text text-anchor="start" x="851.79" y="-1349.8" font-family="Times,serif" font-size="14.00">taxable</text>
<polygon fill="none" stroke="black" points="815.5,-1324 815.5,-1344 928.5,-1344 928.5,-1324 815.5,-1324"/>
<text text-anchor="start" x="861.11" y="-1329.8" font-family="Times,serif" font-size="14.00">title</text>
<polygon fill="none" stroke="black" points="815.5,-1304 815.5,-1324 928.5,-1324 928.5,-1304 815.5,-1304"/>
<text text-anchor="start" x="832.34" y="-1309.8" font-family="Times,serif" font-size="14.00">total_discount</text>
<polygon fill="none" stroke="black" points="815.5,-1284 815.5,-1304 928.5,-1304 928.5,-1284 815.5,-1284"/>
<text text-anchor="start" x="843.62" y="-1289.8" font-family="Times,serif" font-size="14.00">variant_id</text>
<polygon fill="none" stroke="black" points="815.5,-1264 815.5,-1284 928.5,-1284 928.5,-1264 815.5,-1264"/>
<text text-anchor="start" x="852.56" y="-1269.8" font-family="Times,serif" font-size="14.00">vendor</text>
</g>
<!-- order -->
<g id="node9" class="node">
<title>order</title>
<polygon fill="none" stroke="black" points="1072,-1200 1072,-1220 1264,-1220 1264,-1200 1072,-1200"/>
<text text-anchor="start" x="1153.23" y="-1206.8" font-family="Times,serif" font-style="italic" font-size="14.00">order</text>
<polygon fill="none" stroke="black" points="1072,-1180 1072,-1200 1264,-1200 1264,-1180 1072,-1180"/>
<text text-anchor="start" x="1162.56" y="-1185.8" font-family="Times,serif" font-size="14.00">id</text>
<polygon fill="none" stroke="black" points="1072,-1160 1072,-1180 1264,-1180 1264,-1160 1072,-1160"/>
<text text-anchor="start" x="1093.73" y="-1165.8" font-family="Times,serif" font-size="14.00">billing_address_address_1</text>
<polygon fill="none" stroke="black" points="1072,-1140 1072,-1160 1264,-1160 1264,-1140 1072,-1140"/>
<text text-anchor="start" x="1093.73" y="-1145.8" font-family="Times,serif" font-size="14.00">billing_address_address_2</text>
<polygon fill="none" stroke="black" points="1072,-1120 1072,-1140 1264,-1140 1264,-1120 1072,-1120"/>
<text text-anchor="start" x="1111.23" y="-1125.8" font-family="Times,serif" font-size="14.00">billing_address_city</text>
<polygon fill="none" stroke="black" points="1072,-1100 1072,-1120 1264,-1120 1264,-1100 1072,-1100"/>
<text text-anchor="start" x="1096.07" y="-1105.8" font-family="Times,serif" font-size="14.00">billing_address_company</text>
<polygon fill="none" stroke="black" points="1072,-1080 1072,-1100 1264,-1100 1264,-1080 1072,-1080"/>
<text text-anchor="start" x="1100.34" y="-1085.8" font-family="Times,serif" font-size="14.00">billing_address_country</text>
<polygon fill="none" stroke="black" points="1072,-1060 1072,-1080 1264,-1080 1264,-1060 1072,-1060"/>
<text text-anchor="start" x="1083.63" y="-1065.8" font-family="Times,serif" font-size="14.00">billing_address_country_code</text>
<polygon fill="none" stroke="black" points="1072,-1040 1072,-1060 1264,-1060 1264,-1040 1072,-1040"/>
<text text-anchor="start" x="1092.18" y="-1045.8" font-family="Times,serif" font-size="14.00">billing_address_first_name</text>
<polygon fill="none" stroke="black" points="1072,-1020 1072,-1040 1264,-1040 1264,-1020 1072,-1020"/>
<text text-anchor="start" x="1093.35" y="-1025.8" font-family="Times,serif" font-size="14.00">billing_address_last_name</text>
<polygon fill="none" stroke="black" points="1072,-1000 1072,-1020 1264,-1020 1264,-1000 1072,-1000"/>
<text text-anchor="start" x="1100.73" y="-1005.8" font-family="Times,serif" font-size="14.00">billing_address_latitude</text>
<polygon fill="none" stroke="black" points="1072,-980 1072,-1000 1264,-1000 1264,-980 1072,-980"/>
<text text-anchor="start" x="1095.29" y="-985.8" font-family="Times,serif" font-size="14.00">billing_address_longitude</text>
<polygon fill="none" stroke="black" points="1072,-960 1072,-980 1264,-980 1264,-960 1072,-960"/>
<text text-anchor="start" x="1106.57" y="-965.8" font-family="Times,serif" font-size="14.00">billing_address_name</text>
<polygon fill="none" stroke="black" points="1072,-940 1072,-960 1264,-960 1264,-940 1072,-940"/>
<text text-anchor="start" x="1104.62" y="-945.8" font-family="Times,serif" font-size="14.00">billing_address_phone</text>
<polygon fill="none" stroke="black" points="1072,-920 1072,-940 1264,-940 1264,-920 1072,-920"/>
<text text-anchor="start" x="1097.24" y="-925.8" font-family="Times,serif" font-size="14.00">billing_address_province</text>
<polygon fill="none" stroke="black" points="1072,-900 1072,-920 1264,-920 1264,-900 1072,-900"/>
<text text-anchor="start" x="1080.52" y="-905.8" font-family="Times,serif" font-size="14.00">billing_address_province_code</text>
<polygon fill="none" stroke="black" points="1072,-880 1072,-900 1264,-900 1264,-880 1072,-880"/>
<text text-anchor="start" x="1113.18" y="-885.8" font-family="Times,serif" font-size="14.00">billing_address_zip</text>
<polygon fill="none" stroke="black" points="1072,-860 1072,-880 1264,-880 1264,-860 1072,-860"/>
<text text-anchor="start" x="1136.51" y="-865.8" font-family="Times,serif" font-size="14.00">browser_ip</text>
<polygon fill="none" stroke="black" points="1072,-840 1072,-860 1264,-860 1264,-840 1072,-840"/>
<text text-anchor="start" x="1096.09" y="-845.8" font-family="Times,serif" font-size="14.00">buyer_accepts_marketing</text>
<polygon fill="none" stroke="black" points="1072,-820 1072,-840 1264,-840 1264,-820 1072,-820"/>
<text text-anchor="start" x="1128.36" y="-825.8" font-family="Times,serif" font-size="14.00">cancel_reason</text>
<polygon fill="none" stroke="black" points="1072,-800 1072,-820 1264,-820 1264,-800 1072,-800"/>
<text text-anchor="start" x="1138.46" y="-805.8" font-family="Times,serif" font-size="14.00">cart_token</text>
<polygon fill="none" stroke="black" points="1072,-780 1072,-800 1264,-800 1264,-780 1072,-780"/>
<text text-anchor="start" x="1123.68" y="-785.8" font-family="Times,serif" font-size="14.00">checkout_token</text>
<polygon fill="none" stroke="black" points="1072,-760 1072,-780 1264,-780 1264,-760 1072,-760"/>
<text text-anchor="start" x="1143.52" y="-765.8" font-family="Times,serif" font-size="14.00">currency</text>
<polygon fill="none" stroke="black" points="1072,-740 1072,-760 1264,-760 1264,-740 1072,-740"/>
<text text-anchor="start" x="1133.4" y="-745.8" font-family="Times,serif" font-size="14.00">customer_id</text>
<polygon fill="none" stroke="black" points="1072,-720 1072,-740 1264,-740 1264,-720 1072,-720"/>
<text text-anchor="start" x="1152.45" y="-725.8" font-family="Times,serif" font-size="14.00">email</text>
<polygon fill="none" stroke="black" points="1072,-700 1072,-720 1264,-720 1264,-700 1072,-700"/>
<text text-anchor="start" x="1124.45" y="-705.8" font-family="Times,serif" font-size="14.00">financial_status</text>
<polygon fill="none" stroke="black" points="1072,-680 1072,-700 1264,-700 1264,-680 1072,-680"/>
<text text-anchor="start" x="1119" y="-685.8" font-family="Times,serif" font-size="14.00">fulfillment_status</text>
<polygon fill="none" stroke="black" points="1072,-660 1072,-680 1264,-680 1264,-660 1072,-660"/>
<text text-anchor="start" x="1106.57" y="-665.8" font-family="Times,serif" font-size="14.00">landing_site_base_url</text>
<polygon fill="none" stroke="black" points="1072,-640 1072,-660 1264,-660 1264,-640 1072,-640"/>
<text text-anchor="start" x="1136.51" y="-645.8" font-family="Times,serif" font-size="14.00">location_id</text>
<polygon fill="none" stroke="black" points="1072,-620 1072,-640 1264,-640 1264,-620 1072,-620"/>
<text text-anchor="start" x="1152.84" y="-625.8" font-family="Times,serif" font-size="14.00">name</text>
<polygon fill="none" stroke="black" points="1072,-600 1072,-620 1264,-620 1264,-600 1072,-600"/>
<text text-anchor="start" x="1155.95" y="-605.8" font-family="Times,serif" font-size="14.00">note</text>
<polygon fill="none" stroke="black" points="1072,-580 1072,-600 1264,-600 1264,-580 1072,-580"/>
<text text-anchor="start" x="1146.62" y="-585.8" font-family="Times,serif" font-size="14.00">number</text>
<polygon fill="none" stroke="black" points="1072,-560 1072,-580 1264,-580 1264,-560 1072,-560"/>
<text text-anchor="start" x="1128.35" y="-565.8" font-family="Times,serif" font-size="14.00">order_number</text>
<polygon fill="none" stroke="black" points="1072,-540 1072,-560 1264,-560 1264,-540 1072,-540"/>
<text text-anchor="start" x="1113.57" y="-545.8" font-family="Times,serif" font-size="14.00">processing_method</text>
<polygon fill="none" stroke="black" points="1072,-520 1072,-540 1264,-540 1264,-520 1072,-520"/>
<text text-anchor="start" x="1130.3" y="-525.8" font-family="Times,serif" font-size="14.00">referring_site</text>
<polygon fill="none" stroke="black" points="1072,-500 1072,-520 1264,-520 1264,-500 1072,-500"/>
<text text-anchor="start" x="1087.9" y="-505.8" font-family="Times,serif" font-size="14.00">shipping_address_address_1</text>
<polygon fill="none" stroke="black" points="1072,-480 1072,-500 1264,-500 1264,-480 1072,-480"/>
<text text-anchor="start" x="1087.9" y="-485.8" font-family="Times,serif" font-size="14.00">shipping_address_address_2</text>
<polygon fill="none" stroke="black" points="1072,-460 1072,-480 1264,-480 1264,-460 1072,-460"/>
<text text-anchor="start" x="1105.4" y="-465.8" font-family="Times,serif" font-size="14.00">shipping_address_city</text>
<polygon fill="none" stroke="black" points="1072,-440 1072,-460 1264,-460 1264,-440 1072,-440"/>
<text text-anchor="start" x="1090.23" y="-445.8" font-family="Times,serif" font-size="14.00">shipping_address_company</text>
<polygon fill="none" stroke="black" points="1072,-420 1072,-440 1264,-440 1264,-420 1072,-420"/>
<text text-anchor="start" x="1094.51" y="-425.8" font-family="Times,serif" font-size="14.00">shipping_address_country</text>
<polygon fill="none" stroke="black" points="1072,-400 1072,-420 1264,-420 1264,-400 1072,-400"/>
<text text-anchor="start" x="1077.8" y="-405.8" font-family="Times,serif" font-size="14.00">shipping_address_country_code</text>
<polygon fill="none" stroke="black" points="1072,-380 1072,-400 1264,-400 1264,-380 1072,-380"/>
<text text-anchor="start" x="1086.34" y="-385.8" font-family="Times,serif" font-size="14.00">shipping_address_first_name</text>
<polygon fill="none" stroke="black" points="1072,-360 1072,-380 1264,-380 1264,-360 1072,-360"/>
<text text-anchor="start" x="1087.51" y="-365.8" font-family="Times,serif" font-size="14.00">shipping_address_last_name</text>
<polygon fill="none" stroke="black" points="1072,-340 1072,-360 1264,-360 1264,-340 1072,-340"/>
<text text-anchor="start" x="1094.9" y="-345.8" font-family="Times,serif" font-size="14.00">shipping_address_latitude</text>
<polygon fill="none" stroke="black" points="1072,-320 1072,-340 1264,-340 1264,-320 1072,-320"/>
<text text-anchor="start" x="1089.45" y="-325.8" font-family="Times,serif" font-size="14.00">shipping_address_longitude</text>
<polygon fill="none" stroke="black" points="1072,-300 1072,-320 1264,-320 1264,-300 1072,-300"/>
<text text-anchor="start" x="1117.84" y="-305.8" font-family="Times,serif" font-size="14.00">shipping_location</text>
<polygon fill="none" stroke="black" points="1072,-280 1072,-300 1264,-300 1264,-280 1072,-280"/>
<text text-anchor="start" x="1100.73" y="-285.8" font-family="Times,serif" font-size="14.00">shipping_address_name</text>
<polygon fill="none" stroke="black" points="1072,-260 1072,-280 1264,-280 1264,-260 1072,-260"/>
<text text-anchor="start" x="1098.79" y="-265.8" font-family="Times,serif" font-size="14.00">shipping_address_phone</text>
<polygon fill="none" stroke="black" points="1072,-240 1072,-260 1264,-260 1264,-240 1072,-240"/>
<text text-anchor="start" x="1091.4" y="-245.8" font-family="Times,serif" font-size="14.00">shipping_address_province</text>
<polygon fill="none" stroke="black" points="1072,-220 1072,-240 1264,-240 1264,-220 1072,-220"/>
<text text-anchor="start" x="1074.69" y="-225.8" font-family="Times,serif" font-size="14.00">shipping_address_province_code</text>
<polygon fill="none" stroke="black" points="1072,-200 1072,-220 1264,-220 1264,-200 1072,-200"/>
<text text-anchor="start" x="1107.34" y="-205.8" font-family="Times,serif" font-size="14.00">shipping_address_zip</text>
<polygon fill="none" stroke="black" points="1072,-180 1072,-200 1264,-200 1264,-180 1072,-180"/>
<text text-anchor="start" x="1131.07" y="-185.8" font-family="Times,serif" font-size="14.00">source_name</text>
<polygon fill="none" stroke="black" points="1072,-160 1072,-180 1264,-180 1264,-160 1072,-160"/>
<text text-anchor="start" x="1128.34" y="-165.8" font-family="Times,serif" font-size="14.00">subtotal_price</text>
<polygon fill="none" stroke="black" points="1072,-140 1072,-160 1264,-160 1264,-140 1072,-140"/>
<text text-anchor="start" x="1126.01" y="-145.8" font-family="Times,serif" font-size="14.00">taxes_included</text>
<polygon fill="none" stroke="black" points="1072,-120 1072,-140 1264,-140 1264,-120 1072,-120"/>
<text text-anchor="start" x="1152.45" y="-125.8" font-family="Times,serif" font-size="14.00">token</text>
<polygon fill="none" stroke="black" points="1072,-100 1072,-120 1264,-120 1264,-100 1072,-100"/>
<text text-anchor="start" x="1125.61" y="-105.8" font-family="Times,serif" font-size="14.00">total_discounts</text>
<polygon fill="none" stroke="black" points="1072,-80 1072,-100 1264,-100 1264,-80 1072,-80"/>
<text text-anchor="start" x="1105.41" y="-85.8" font-family="Times,serif" font-size="14.00">total_line_items_price</text>
<polygon fill="none" stroke="black" points="1072,-60 1072,-80 1264,-80 1264,-60 1072,-60"/>
<text text-anchor="start" x="1138.07" y="-65.8" font-family="Times,serif" font-size="14.00">total_price</text>
<polygon fill="none" stroke="black" points="1072,-40 1072,-60 1264,-60 1264,-40 1072,-40"/>
<text text-anchor="start" x="1143.51" y="-45.8" font-family="Times,serif" font-size="14.00">total_tax</text>
<polygon fill="none" stroke="black" points="1072,-20 1072,-40 1264,-40 1264,-20 1072,-20"/>
<text text-anchor="start" x="1133.01" y="-25.8" font-family="Times,serif" font-size="14.00">total_weight</text>
<polygon fill="none" stroke="black" points="1072,0 1072,-20 1264,-20 1264,0 1072,0"/>
<text text-anchor="start" x="1147.39" y="-5.8" font-family="Times,serif" font-size="14.00">user_id</text>
</g>
<!-- order_line&#45;&gt;order -->
<g id="edge1" class="edge">
<title>order_line:order_lineorder_id&#45;&gt;order:orderid</title>
<path fill="none" stroke="black" d="M928,-1494C1074,-1494 929.6,-1204.08 1061.98,-1190.49"/>
<polygon fill="black" stroke="black" points="1062.18,-1193.99 1072,-1190 1061.84,-1187 1062.18,-1193.99"/>
</g>
<!-- product_variant -->
<g id="node3" class="node">
<title>product_variant</title>
<polygon fill="none" stroke="black" points="533,-1298 533,-1318 671,-1318 671,-1298 533,-1298"/>
<text text-anchor="start" x="557.68" y="-1304.8" font-family="Times,serif" font-style="italic" font-size="14.00">product_variant</text>
<polygon fill="none" stroke="black" points="533,-1278 533,-1298 671,-1298 671,-1278 533,-1278"/>
<text text-anchor="start" x="596.56" y="-1283.8" font-family="Times,serif" font-size="14.00">id</text>
<polygon fill="none" stroke="black" points="533,-1258 533,-1278 671,-1278 671,-1258 533,-1258"/>
<text text-anchor="start" x="579.85" y="-1263.8" font-family="Times,serif" font-size="14.00">barcode</text>
<polygon fill="none" stroke="black" points="533,-1238 533,-1258 671,-1258 671,-1238 533,-1238"/>
<text text-anchor="start" x="551.86" y="-1243.8" font-family="Times,serif" font-size="14.00">compare_at_price</text>
<polygon fill="none" stroke="black" points="533,-1218 533,-1238 671,-1238 671,-1218 533,-1218"/>
<text text-anchor="start" x="549.12" y="-1223.8" font-family="Times,serif" font-size="14.00">fulfillment_service</text>
<polygon fill="none" stroke="black" points="533,-1198 533,-1218 671,-1218 671,-1198 533,-1198"/>
<text text-anchor="start" x="584.89" y="-1203.8" font-family="Times,serif" font-size="14.00">grams</text>
<polygon fill="none" stroke="black" points="533,-1178 533,-1198 671,-1198 671,-1178 533,-1178"/>
<text text-anchor="start" x="575.95" y="-1183.8" font-family="Times,serif" font-size="14.00">image_id</text>
<polygon fill="none" stroke="black" points="533,-1158 533,-1178 671,-1178 671,-1158 533,-1158"/>
<text text-anchor="start" x="550.29" y="-1163.8" font-family="Times,serif" font-size="14.00">inventory_item_id</text>
<polygon fill="none" stroke="black" points="533,-1138 533,-1158 671,-1158 671,-1138 533,-1138"/>
<text text-anchor="start" x="535.91" y="-1143.8" font-family="Times,serif" font-size="14.00">inventory_management</text>
<polygon fill="none" stroke="black" points="533,-1118 533,-1138 671,-1138 671,-1118 533,-1118"/>
<text text-anchor="start" x="554.18" y="-1123.8" font-family="Times,serif" font-size="14.00">inventory_policy</text>
<polygon fill="none" stroke="black" points="533,-1098 533,-1118 671,-1118 671,-1098 533,-1098"/>
<text text-anchor="start" x="548.73" y="-1103.8" font-family="Times,serif" font-size="14.00">inventory_quantity</text>
<polygon fill="none" stroke="black" points="533,-1078 533,-1098 671,-1098 671,-1078 533,-1078"/>
<text text-anchor="start" x="536.29" y="-1083.8" font-family="Times,serif" font-size="14.00">old_inventory_quantity</text>
<polygon fill="none" stroke="black" points="533,-1058 533,-1078 671,-1078 671,-1058 533,-1058"/>
<text text-anchor="start" x="579.44" y="-1063.8" font-family="Times,serif" font-size="14.00">position</text>
<polygon fill="none" stroke="black" points="533,-1038 533,-1058 671,-1058 671,-1038 533,-1038"/>
<text text-anchor="start" x="588.01" y="-1043.8" font-family="Times,serif" font-size="14.00">price</text>
<polygon fill="none" stroke="black" points="533,-1018 533,-1038 671,-1038 671,-1018 533,-1018"/>
<text text-anchor="start" x="571.67" y="-1023.8" font-family="Times,serif" font-size="14.00">product_id</text>
<polygon fill="none" stroke="black" points="533,-998 533,-1018 671,-1018 671,-998 533,-998"/>
<text text-anchor="start" x="551.84" y="-1003.8" font-family="Times,serif" font-size="14.00">requires_shipping</text>
<polygon fill="none" stroke="black" points="533,-978 533,-998 671,-998 671,-978 533,-978"/>
<text text-anchor="start" x="592.28" y="-983.8" font-family="Times,serif" font-size="14.00">sku</text>
<polygon fill="none" stroke="black" points="533,-958 533,-978 671,-978 671,-958 533,-958"/>
<text text-anchor="start" x="581.79" y="-963.8" font-family="Times,serif" font-size="14.00">taxable</text>
<polygon fill="none" stroke="black" points="533,-938 533,-958 671,-958 671,-938 533,-938"/>
<text text-anchor="start" x="591.11" y="-943.8" font-family="Times,serif" font-size="14.00">title</text>
<polygon fill="none" stroke="black" points="533,-918 533,-938 671,-938 671,-918 533,-918"/>
<text text-anchor="start" x="582.95" y="-923.8" font-family="Times,serif" font-size="14.00">weight</text>
<polygon fill="none" stroke="black" points="533,-898 533,-918 671,-918 671,-898 533,-898"/>
<text text-anchor="start" x="568.56" y="-903.8" font-family="Times,serif" font-size="14.00">weight_unit</text>
</g>
<!-- product_variant&#45;&gt;order_line -->
<g id="edge9" class="edge">
<title>product_variant:product_variantid&#45;&gt;order_line:order_linevariant_id</title>
<path fill="none" stroke="black" d="M671,-1288C731.55,-1288 749.06,-1293.36 804.91,-1293.95"/>
<polygon fill="black" stroke="black" points="804.98,-1297.45 815,-1294 805.02,-1290.45 804.98,-1297.45"/>
</g>
<!-- product_tag -->
<g id="node4" class="node">
<title>product_tag</title>
<polygon fill="none" stroke="black" points="307.5,-1690 307.5,-1710 379.5,-1710 379.5,-1690 307.5,-1690"/>
<text text-anchor="start" x="310.07" y="-1696.8" font-family="Times,serif" font-style="italic" font-size="14.00">product_tag</text>
<polygon fill="none" stroke="black" points="307.5,-1670 307.5,-1690 379.5,-1690 379.5,-1670 307.5,-1670"/>
<text text-anchor="start" x="327.95" y="-1675.8" font-family="Times,serif" font-size="14.00">index</text>
<polygon fill="none" stroke="black" points="307.5,-1650 307.5,-1670 379.5,-1670 379.5,-1650 307.5,-1650"/>
<text text-anchor="start" x="313.17" y="-1655.8" font-family="Times,serif" font-size="14.00">product_id</text>
<polygon fill="none" stroke="black" points="307.5,-1630 307.5,-1650 379.5,-1650 379.5,-1630 307.5,-1630"/>
<text text-anchor="start" x="328.34" y="-1635.8" font-family="Times,serif" font-size="14.00">value</text>
</g>
<!-- product -->
<g id="node10" class="node">
<title>product</title>
<polygon fill="none" stroke="black" points="551,-1494 551,-1514 654,-1514 654,-1494 551,-1494"/>
<text text-anchor="start" x="581.12" y="-1500.8" font-family="Times,serif" font-style="italic" font-size="14.00">product</text>
<polygon fill="none" stroke="black" points="551,-1474 551,-1494 654,-1494 654,-1474 551,-1474"/>
<text text-anchor="start" x="597.06" y="-1479.8" font-family="Times,serif" font-size="14.00">id</text>
<polygon fill="none" stroke="black" points="551,-1454 551,-1474 654,-1474 654,-1454 551,-1454"/>
<text text-anchor="start" x="553.91" y="-1459.8" font-family="Times,serif" font-size="14.00">_fivetran_deleted</text>
<polygon fill="none" stroke="black" points="551,-1434 551,-1454 654,-1454 654,-1434 551,-1434"/>
<text text-anchor="start" x="583.84" y="-1439.8" font-family="Times,serif" font-size="14.00">handle</text>
<polygon fill="none" stroke="black" points="551,-1414 551,-1434 654,-1434 654,-1414 551,-1414"/>
<text text-anchor="start" x="565.57" y="-1419.8" font-family="Times,serif" font-size="14.00">product_type</text>
<polygon fill="none" stroke="black" points="551,-1394 551,-1414 654,-1414 654,-1394 551,-1394"/>
<text text-anchor="start" x="555.84" y="-1399.8" font-family="Times,serif" font-size="14.00">published_scope</text>
<polygon fill="none" stroke="black" points="551,-1374 551,-1394 654,-1394 654,-1374 551,-1374"/>
<text text-anchor="start" x="591.61" y="-1379.8" font-family="Times,serif" font-size="14.00">title</text>
<polygon fill="none" stroke="black" points="551,-1354 551,-1374 654,-1374 654,-1354 551,-1354"/>
<text text-anchor="start" x="583.06" y="-1359.8" font-family="Times,serif" font-size="14.00">vendor</text>
</g>
<!-- product_tag&#45;&gt;product -->
<g id="edge8" class="edge">
<title>product_tag:product_tagproduct_id&#45;&gt;product:productid</title>
<path fill="none" stroke="black" d="M380.5,-1660C485.6,-1660 444.31,-1495.16 539.98,-1484.54"/>
<polygon fill="black" stroke="black" points="540.2,-1488.03 550,-1484 539.83,-1481.04 540.2,-1488.03"/>
</g>
<!-- collection -->
<g id="node5" class="node">
<title>collection</title>
<polygon fill="none" stroke="black" points="26,-1554 26,-1574 129,-1574 129,-1554 26,-1554"/>
<text text-anchor="start" x="49.9" y="-1560.8" font-family="Times,serif" font-style="italic" font-size="14.00">collection</text>
<polygon fill="none" stroke="black" points="26,-1534 26,-1554 129,-1554 129,-1534 26,-1534"/>
<text text-anchor="start" x="72.06" y="-1539.8" font-family="Times,serif" font-size="14.00">id</text>
<polygon fill="none" stroke="black" points="26,-1514 26,-1534 129,-1534 129,-1514 26,-1514"/>
<text text-anchor="start" x="28.91" y="-1519.8" font-family="Times,serif" font-size="14.00">_fivetran_deleted</text>
<polygon fill="none" stroke="black" points="26,-1494 26,-1514 129,-1514 129,-1494 26,-1494"/>
<text text-anchor="start" x="58.84" y="-1499.8" font-family="Times,serif" font-size="14.00">handle</text>
<polygon fill="none" stroke="black" points="26,-1474 26,-1494 129,-1494 129,-1474 26,-1474"/>
<text text-anchor="start" x="30.84" y="-1479.8" font-family="Times,serif" font-size="14.00">published_scope</text>
<polygon fill="none" stroke="black" points="26,-1454 26,-1474 129,-1474 129,-1454 26,-1454"/>
<text text-anchor="start" x="66.61" y="-1459.8" font-family="Times,serif" font-size="14.00">title</text>
</g>
<!-- collect -->
<g id="node8" class="node">
<title>collect</title>
<polygon fill="none" stroke="black" points="304.5,-1574 304.5,-1594 383.5,-1594 383.5,-1574 304.5,-1574"/>
<text text-anchor="start" x="325.34" y="-1580.8" font-family="Times,serif" font-style="italic" font-size="14.00">collect</text>
<polygon fill="none" stroke="black" points="304.5,-1554 304.5,-1574 383.5,-1574 383.5,-1554 304.5,-1554"/>
<text text-anchor="start" x="338.56" y="-1559.8" font-family="Times,serif" font-size="14.00">id</text>
<polygon fill="none" stroke="black" points="304.5,-1534 304.5,-1554 383.5,-1554 383.5,-1534 304.5,-1534"/>
<text text-anchor="start" x="307.46" y="-1539.8" font-family="Times,serif" font-size="14.00">collection_id</text>
<polygon fill="none" stroke="black" points="304.5,-1514 304.5,-1534 383.5,-1534 383.5,-1514 304.5,-1514"/>
<text text-anchor="start" x="321.07" y="-1519.8" font-family="Times,serif" font-size="14.00">featured</text>
<polygon fill="none" stroke="black" points="304.5,-1494 304.5,-1514 383.5,-1514 383.5,-1494 304.5,-1494"/>
<text text-anchor="start" x="321.44" y="-1499.8" font-family="Times,serif" font-size="14.00">position</text>
<polygon fill="none" stroke="black" points="304.5,-1474 304.5,-1494 383.5,-1494 383.5,-1474 304.5,-1474"/>
<text text-anchor="start" x="313.67" y="-1479.8" font-family="Times,serif" font-size="14.00">product_id</text>
</g>
<!-- collection&#45;&gt;collect -->
<g id="edge6" class="edge">
<title>collection:collectionid&#45;&gt;collect:collectcollection_id</title>
<path fill="none" stroke="black" d="M130,-1544C203.65,-1544 224.54,-1544 293.45,-1544"/>
<polygon fill="black" stroke="black" points="293.5,-1547.5 303.5,-1544 293.5,-1540.5 293.5,-1547.5"/>
</g>
<!-- order_tag -->
<g id="node6" class="node">
<title>order_tag</title>
<polygon fill="none" stroke="black" points="842.5,-1208 842.5,-1228 901.5,-1228 901.5,-1208 842.5,-1208"/>
<text text-anchor="start" x="845.18" y="-1214.8" font-family="Times,serif" font-style="italic" font-size="14.00">order_tag</text>
<polygon fill="none" stroke="black" points="842.5,-1188 842.5,-1208 901.5,-1208 901.5,-1188 842.5,-1188"/>
<text text-anchor="start" x="856.45" y="-1193.8" font-family="Times,serif" font-size="14.00">index</text>
<polygon fill="none" stroke="black" points="842.5,-1168 842.5,-1188 901.5,-1188 901.5,-1168 842.5,-1168"/>
<text text-anchor="start" x="848.29" y="-1173.8" font-family="Times,serif" font-size="14.00">order_id</text>
<polygon fill="none" stroke="black" points="842.5,-1148 842.5,-1168 901.5,-1168 901.5,-1148 842.5,-1148"/>
<text text-anchor="start" x="856.84" y="-1153.8" font-family="Times,serif" font-size="14.00">value</text>
</g>
<!-- order_tag&#45;&gt;order -->
<g id="edge2" class="edge">
<title>order_tag:order_tagorder_id&#45;&gt;order:orderid</title>
<path fill="none" stroke="black" d="M902.5,-1178C974.48,-1178 994.62,-1188.9 1061.74,-1189.92"/>
<polygon fill="black" stroke="black" points="1061.97,-1193.43 1072,-1190 1062.03,-1186.43 1061.97,-1193.43"/>
</g>
<!-- customer&#45;&gt;order -->
<g id="edge10" class="edge">
<title>customer:customerid&#45;&gt;order:ordercustomer_id</title>
<path fill="none" stroke="black" d="M928,-757C988.57,-757 1006.05,-750.74 1061.9,-750.06"/>
<polygon fill="black" stroke="black" points="1062.02,-753.56 1072,-750 1061.98,-746.56 1062.02,-753.56"/>
</g>
<!-- collect&#45;&gt;product -->
<g id="edge5" class="edge">
<title>collect:collectproduct_id&#45;&gt;product:productid</title>
<path fill="none" stroke="black" d="M384.5,-1484C454.46,-1484 474.52,-1484 539.61,-1484"/>
<polygon fill="black" stroke="black" points="540,-1487.5 550,-1484 540,-1480.5 540,-1487.5"/>
</g>
<!-- product&#45;&gt;order_line -->
<g id="edge4" class="edge">
<title>product:productid&#45;&gt;order_line:order_lineproduct_id</title>
<path fill="none" stroke="black" d="M655,-1484C726.01,-1484 739.33,-1438.58 804.93,-1434.32"/>
<polygon fill="black" stroke="black" points="805.12,-1437.82 815,-1434 804.89,-1430.82 805.12,-1437.82"/>
</g>
<!-- product_option -->
<g id="node11" class="node">
<title>product_option</title>
<polygon fill="none" stroke="black" points="298.5,-1418 298.5,-1438 389.5,-1438 389.5,-1418 298.5,-1418"/>
<text text-anchor="start" x="301.23" y="-1424.8" font-family="Times,serif" font-style="italic" font-size="14.00">product_option</text>
<polygon fill="none" stroke="black" points="298.5,-1398 298.5,-1418 389.5,-1418 389.5,-1398 298.5,-1398"/>
<text text-anchor="start" x="338.56" y="-1403.8" font-family="Times,serif" font-size="14.00">id</text>
<polygon fill="none" stroke="black" points="298.5,-1378 298.5,-1398 389.5,-1398 389.5,-1378 298.5,-1378"/>
<text text-anchor="start" x="328.84" y="-1383.8" font-family="Times,serif" font-size="14.00">name</text>
<polygon fill="none" stroke="black" points="298.5,-1358 298.5,-1378 389.5,-1378 389.5,-1358 298.5,-1358"/>
<text text-anchor="start" x="321.44" y="-1363.8" font-family="Times,serif" font-size="14.00">position</text>
<polygon fill="none" stroke="black" points="298.5,-1338 298.5,-1358 389.5,-1358 389.5,-1338 298.5,-1338"/>
<text text-anchor="start" x="313.67" y="-1343.8" font-family="Times,serif" font-size="14.00">product_id</text>
<polygon fill="none" stroke="black" points="298.5,-1318 298.5,-1338 389.5,-1338 389.5,-1318 298.5,-1318"/>
<text text-anchor="start" x="326.12" y="-1323.8" font-family="Times,serif" font-size="14.00">values</text>
</g>
<!-- product_option&#45;&gt;product -->
<g id="edge7" class="edge">
<title>product_option:product_optionproduct_id&#45;&gt;product:productid</title>
<path fill="none" stroke="black" d="M389,-1348C479.01,-1348 458.21,-1473.58 539.56,-1483.39"/>
<polygon fill="black" stroke="black" points="539.81,-1486.91 550,-1484 540.22,-1479.93 539.81,-1486.91"/>
</g>
<!-- fivetran_audit -->
<g id="node12" class="node">
<title>fivetran_audit</title>
<polygon fill="none" stroke="black" points="0,-1750 0,-1770 154,-1770 154,-1750 0,-1750"/>
<text text-anchor="start" x="38.12" y="-1756.8" font-family="Times,serif" font-style="italic" font-size="14.00">fivetran_audit</text>
<polygon fill="none" stroke="black" points="0,-1730 0,-1750 154,-1750 154,-1730 0,-1730"/>
<text text-anchor="start" x="71.56" y="-1735.8" font-family="Times,serif" font-size="14.00">id</text>
<polygon fill="none" stroke="black" points="0,-1710 0,-1730 154,-1730 154,-1710 0,-1710"/>
<text text-anchor="start" x="53.29" y="-1715.8" font-family="Times,serif" font-size="14.00">message</text>
<polygon fill="none" stroke="black" points="0,-1690 0,-1710 154,-1710 154,-1690 0,-1690"/>
<text text-anchor="start" x="2.74" y="-1695.8" font-family="Times,serif" font-size="14.00">rows_updated_or_inserted</text>
<polygon fill="none" stroke="black" points="0,-1670 0,-1690 154,-1690 154,-1670 0,-1670"/>
<text text-anchor="start" x="56.01" y="-1675.8" font-family="Times,serif" font-size="14.00">schema</text>
<polygon fill="none" stroke="black" points="0,-1650 0,-1670 154,-1670 154,-1650 0,-1650"/>
<text text-anchor="start" x="61.06" y="-1655.8" font-family="Times,serif" font-size="14.00">status</text>
<polygon fill="none" stroke="black" points="0,-1630 0,-1650 154,-1650 154,-1630 0,-1630"/>
<text text-anchor="start" x="63.4" y="-1635.8" font-family="Times,serif" font-size="14.00">table</text>
<polygon fill="none" stroke="black" points="0,-1610 0,-1630 154,-1630 154,-1610 0,-1610"/>
<text text-anchor="start" x="49.4" y="-1615.8" font-family="Times,serif" font-size="14.00">update_id</text>
</g>
<!-- customer_address -->
<g id="node13" class="node">
<title>customer_address</title>
<polygon fill="none" stroke="black" points="549,-701 549,-721 655,-721 655,-701 549,-701"/>
<text text-anchor="start" x="551.85" y="-707.8" font-family="Times,serif" font-style="italic" font-size="14.00">customer_address</text>
<polygon fill="none" stroke="black" points="549,-681 549,-701 655,-701 655,-681 549,-681"/>
<text text-anchor="start" x="596.56" y="-686.8" font-family="Times,serif" font-size="14.00">id</text>
<polygon fill="none" stroke="black" points="549,-661 549,-681 655,-681 655,-661 549,-661"/>
<text text-anchor="start" x="574.01" y="-666.8" font-family="Times,serif" font-size="14.00">address_1</text>
<polygon fill="none" stroke="black" points="549,-641 549,-661 655,-661 655,-641 549,-641"/>
<text text-anchor="start" x="574.01" y="-646.8" font-family="Times,serif" font-size="14.00">address_2</text>
<polygon fill="none" stroke="black" points="549,-621 549,-641 655,-641 655,-621 549,-621"/>
<text text-anchor="start" x="591.5" y="-626.8" font-family="Times,serif" font-size="14.00">city</text>
<polygon fill="none" stroke="black" points="549,-601 549,-621 655,-621 655,-601 549,-601"/>
<text text-anchor="start" x="576.34" y="-606.8" font-family="Times,serif" font-size="14.00">company</text>
<polygon fill="none" stroke="black" points="549,-581 549,-601 655,-601 655,-581 549,-581"/>
<text text-anchor="start" x="580.62" y="-586.8" font-family="Times,serif" font-size="14.00">country</text>
<polygon fill="none" stroke="black" points="549,-561 549,-581 655,-581 655,-561 549,-561"/>
<text text-anchor="start" x="563.9" y="-566.8" font-family="Times,serif" font-size="14.00">country_code</text>
<polygon fill="none" stroke="black" points="549,-541 549,-561 655,-561 655,-541 549,-541"/>
<text text-anchor="start" x="567.4" y="-546.8" font-family="Times,serif" font-size="14.00">customer_id</text>
<polygon fill="none" stroke="black" points="549,-521 549,-541 655,-541 655,-521 549,-521"/>
<text text-anchor="start" x="572.45" y="-526.8" font-family="Times,serif" font-size="14.00">first_name</text>
<polygon fill="none" stroke="black" points="549,-501 549,-521 655,-521 655,-501 549,-501"/>
<text text-anchor="start" x="573.62" y="-506.8" font-family="Times,serif" font-size="14.00">last_name</text>
<polygon fill="none" stroke="black" points="549,-481 549,-501 655,-501 655,-481 549,-481"/>
<text text-anchor="start" x="581.01" y="-486.8" font-family="Times,serif" font-size="14.00">latitude</text>
<polygon fill="none" stroke="black" points="549,-461 549,-481 655,-481 655,-461 549,-461"/>
<text text-anchor="start" x="575.56" y="-466.8" font-family="Times,serif" font-size="14.00">longitude</text>
<polygon fill="none" stroke="black" points="549,-441 549,-461 655,-461 655,-441 549,-441"/>
<text text-anchor="start" x="586.84" y="-446.8" font-family="Times,serif" font-size="14.00">name</text>
<polygon fill="none" stroke="black" points="549,-421 549,-441 655,-441 655,-421 549,-421"/>
<text text-anchor="start" x="584.89" y="-426.8" font-family="Times,serif" font-size="14.00">phone</text>
<polygon fill="none" stroke="black" points="549,-401 549,-421 655,-421 655,-401 549,-401"/>
<text text-anchor="start" x="577.51" y="-406.8" font-family="Times,serif" font-size="14.00">province</text>
<polygon fill="none" stroke="black" points="549,-381 549,-401 655,-401 655,-381 549,-381"/>
<text text-anchor="start" x="560.8" y="-386.8" font-family="Times,serif" font-size="14.00">province_code</text>
<polygon fill="none" stroke="black" points="549,-361 549,-381 655,-381 655,-361 549,-361"/>
<text text-anchor="start" x="593.45" y="-366.8" font-family="Times,serif" font-size="14.00">zip</text>
</g>
<!-- customer_address&#45;&gt;customer -->
<g id="edge11" class="edge">
<title>customer_address:customer_addresscustomer_id&#45;&gt;customer:customerid</title>
<path fill="none" stroke="black" d="M656,-551C768.29,-551 703.9,-744.72 805.49,-756.45"/>
<polygon fill="black" stroke="black" points="805.32,-759.94 815.5,-757 805.71,-752.95 805.32,-759.94"/>
</g>
<!-- location -->
<g id="node14" class="node">
<title>location</title>
<polygon fill="none" stroke="black" points="841.5,-451 841.5,-471 902.5,-471 902.5,-451 841.5,-451"/>
<text text-anchor="start" x="849.45" y="-457.8" font-family="Times,serif" font-style="italic" font-size="14.00">location</text>
<polygon fill="none" stroke="black" points="841.5,-431 841.5,-451 902.5,-451 902.5,-431 841.5,-431"/>
<text text-anchor="start" x="866.56" y="-436.8" font-family="Times,serif" font-size="14.00">id</text>
<polygon fill="none" stroke="black" points="841.5,-411 841.5,-431 902.5,-431 902.5,-411 841.5,-411"/>
<text text-anchor="start" x="855.29" y="-416.8" font-family="Times,serif" font-size="14.00">active</text>
<polygon fill="none" stroke="black" points="841.5,-391 841.5,-411 902.5,-411 902.5,-391 841.5,-391"/>
<text text-anchor="start" x="844.01" y="-396.8" font-family="Times,serif" font-size="14.00">address_1</text>
<polygon fill="none" stroke="black" points="841.5,-371 841.5,-391 902.5,-391 902.5,-371 841.5,-371"/>
<text text-anchor="start" x="844.01" y="-376.8" font-family="Times,serif" font-size="14.00">address_2</text>
<polygon fill="none" stroke="black" points="841.5,-351 841.5,-371 902.5,-371 902.5,-351 841.5,-351"/>
<text text-anchor="start" x="861.5" y="-356.8" font-family="Times,serif" font-size="14.00">city</text>
<polygon fill="none" stroke="black" points="841.5,-331 841.5,-351 902.5,-351 902.5,-331 841.5,-331"/>
<text text-anchor="start" x="850.62" y="-336.8" font-family="Times,serif" font-size="14.00">country</text>
<polygon fill="none" stroke="black" points="841.5,-311 841.5,-331 902.5,-331 902.5,-311 841.5,-311"/>
<text text-anchor="start" x="853.73" y="-316.8" font-family="Times,serif" font-size="14.00">legacy</text>
<polygon fill="none" stroke="black" points="841.5,-291 841.5,-311 902.5,-311 902.5,-291 841.5,-291"/>
<text text-anchor="start" x="856.84" y="-296.8" font-family="Times,serif" font-size="14.00">name</text>
<polygon fill="none" stroke="black" points="841.5,-271 841.5,-291 902.5,-291 902.5,-271 841.5,-271"/>
<text text-anchor="start" x="854.89" y="-276.8" font-family="Times,serif" font-size="14.00">phone</text>
<polygon fill="none" stroke="black" points="841.5,-251 841.5,-271 902.5,-271 902.5,-251 841.5,-251"/>
<text text-anchor="start" x="847.51" y="-256.8" font-family="Times,serif" font-size="14.00">province</text>
<polygon fill="none" stroke="black" points="841.5,-231 841.5,-251 902.5,-251 902.5,-231 841.5,-231"/>
<text text-anchor="start" x="863.45" y="-236.8" font-family="Times,serif" font-size="14.00">zip</text>
</g>
<!-- location&#45;&gt;order -->
<g id="edge3" class="edge">
<title>location:locationid&#45;&gt;order:orderlocation_id</title>
<path fill="none" stroke="black" d="M903.5,-441C1019.32,-441 956.63,-637.93 1061.99,-649.47"/>
<polygon fill="black" stroke="black" points="1061.83,-652.97 1072,-650 1062.2,-645.98 1061.83,-652.97"/>
</g>
</g>
</svg>
