<?xml version="1.0" encoding="UTF-8" standalone="no"?>
<!DOCTYPE svg PUBLIC "-//W3C//DTD SVG 1.1//EN"
 "http://www.w3.org/Graphics/SVG/1.1/DTD/svg11.dtd">
<!-- Generated by graphviz version 2.43.0 (0)
 -->
<!-- Title: %3 Pages: 1 -->
<svg width="1336pt" height="1842pt"
 viewBox="0.00 0.00 1336.00 1842.00" xmlns="http://www.w3.org/2000/svg" xmlns:xlink="http://www.w3.org/1999/xlink">
<g id="graph0" class="graph" transform="scale(1 1) rotate(0) translate(36 1806)">
<title>%3</title>
<polygon fill="white" stroke="transparent" points="-36,36 -36,-1806 1300,-1806 1300,36 -36,36"/>
<!-- customer_tag -->
<g id="node1" class="node">
<title>customer_tag</title>
<polygon fill="none" stroke="black" points="622,-817 622,-837 703,-837 703,-817 622,-817"/>
<text text-anchor="start" x="624.79" y="-823.8" font-family="Times,serif" font-style="italic" font-size="14.00">customer_tag</text>
<polygon fill="none" stroke="black" points="622,-797 622,-817 703,-817 703,-797 622,-797"/>
<text text-anchor="start" x="627.9" y="-802.8" font-family="Times,serif" font-size="14.00">customer_id</text>
<polygon fill="none" stroke="black" points="622,-777 622,-797 703,-797 703,-777 622,-777"/>
<text text-anchor="start" x="646.95" y="-782.8" font-family="Times,serif" font-size="14.00">index</text>
<polygon fill="none" stroke="black" points="622,-757 622,-777 703,-777 703,-757 622,-757"/>
<text text-anchor="start" x="647.34" y="-762.8" font-family="Times,serif" font-size="14.00">value</text>
</g>
<!-- customer -->
<g id="node7" class="node">
<title>customer</title>
<polygon fill="none" stroke="black" points="337.5,-767 337.5,-787 448.5,-787 448.5,-767 337.5,-767"/>
<text text-anchor="start" x="367.34" y="-773.8" font-family="Times,serif" font-style="italic" font-size="14.00">customer</text>
<polygon fill="none" stroke="black" points="337.5,-747 337.5,-767 448.5,-767 448.5,-747 337.5,-747"/>
<text text-anchor="start" x="387.56" y="-752.8" font-family="Times,serif" font-size="14.00">id</text>
<polygon fill="none" stroke="black" points="337.5,-727 337.5,-747 448.5,-747 448.5,-727 337.5,-727"/>
<text text-anchor="start" x="340.52" y="-732.8" font-family="Times,serif" font-size="14.00">accepts_marketing</text>
<polygon fill="none" stroke="black" points="337.5,-707 337.5,-727 448.5,-727 448.5,-707 337.5,-707"/>
<text text-anchor="start" x="340.13" y="-712.8" font-family="Times,serif" font-size="14.00">default_address_id</text>
<polygon fill="none" stroke="black" points="337.5,-687 337.5,-707 448.5,-707 448.5,-687 337.5,-687"/>
<text text-anchor="start" x="377.45" y="-692.8" font-family="Times,serif" font-size="14.00">email</text>
<polygon fill="none" stroke="black" points="337.5,-667 337.5,-687 448.5,-687 448.5,-667 337.5,-667"/>
<text text-anchor="start" x="363.45" y="-672.8" font-family="Times,serif" font-size="14.00">first_name</text>
<polygon fill="none" stroke="black" points="337.5,-647 337.5,-667 448.5,-667 448.5,-647 337.5,-647"/>
<text text-anchor="start" x="364.62" y="-652.8" font-family="Times,serif" font-size="14.00">last_name</text>
<polygon fill="none" stroke="black" points="337.5,-627 337.5,-647 448.5,-647 448.5,-627 337.5,-627"/>
<text text-anchor="start" x="356.46" y="-632.8" font-family="Times,serif" font-size="14.00">orders_count</text>
<polygon fill="none" stroke="black" points="337.5,-607 337.5,-627 448.5,-627 448.5,-607 337.5,-607"/>
<text text-anchor="start" x="351.02" y="-612.8" font-family="Times,serif" font-size="14.00">new_vs_repeat</text>
<polygon fill="none" stroke="black" points="337.5,-587 337.5,-607 448.5,-607 448.5,-587 337.5,-587"/>
<text text-anchor="start" x="375.89" y="-592.8" font-family="Times,serif" font-size="14.00">phone</text>
<polygon fill="none" stroke="black" points="337.5,-567 337.5,-587 448.5,-587 448.5,-567 337.5,-567"/>
<text text-anchor="start" x="380.17" y="-572.8" font-family="Times,serif" font-size="14.00">state</text>
<polygon fill="none" stroke="black" points="337.5,-547 337.5,-567 448.5,-567 448.5,-547 337.5,-547"/>
<text text-anchor="start" x="360.34" y="-552.8" font-family="Times,serif" font-size="14.00">tax_exempt</text>
<polygon fill="none" stroke="black" points="337.5,-527 337.5,-547 448.5,-547 448.5,-527 337.5,-527"/>
<text text-anchor="start" x="362.28" y="-532.8" font-family="Times,serif" font-size="14.00">total_spent</text>
<polygon fill="none" stroke="black" points="337.5,-507 337.5,-527 448.5,-527 448.5,-507 337.5,-507"/>
<text text-anchor="start" x="352.57" y="-512.8" font-family="Times,serif" font-size="14.00">verified_email</text>
</g>
<!-- customer_tag&#45;&gt;customer -->
<g id="edge12" class="edge">
<title>customer_tag:customer_tagcustomer_id&#45;&gt;customer:customerid</title>
<path fill="none" stroke="black" d="M621,-807C544.97,-807 529.89,-761.39 459.34,-757.29"/>
<polygon fill="black" stroke="black" points="459.1,-753.79 449,-757 458.9,-760.78 459.1,-753.79"/>
</g>
<!-- order_line -->
<g id="node2" class="node">
<title>order_line</title>
<polygon fill="none" stroke="black" points="336.5,-1644 336.5,-1664 449.5,-1664 449.5,-1644 336.5,-1644"/>
<text text-anchor="start" x="364.23" y="-1650.8" font-family="Times,serif" font-style="italic" font-size="14.00">order_line</text>
<polygon fill="none" stroke="black" points="336.5,-1624 336.5,-1644 449.5,-1644 449.5,-1624 336.5,-1624"/>
<text text-anchor="start" x="387.56" y="-1629.8" font-family="Times,serif" font-size="14.00">id</text>
<polygon fill="none" stroke="black" points="336.5,-1604 336.5,-1624 449.5,-1624 449.5,-1604 336.5,-1604"/>
<text text-anchor="start" x="339.34" y="-1609.8" font-family="Times,serif" font-size="14.00">fulfillable_quantity</text>
<polygon fill="none" stroke="black" points="336.5,-1584 336.5,-1604 449.5,-1604 449.5,-1584 336.5,-1584"/>
<text text-anchor="start" x="340.12" y="-1589.8" font-family="Times,serif" font-size="14.00">fulfillment_service</text>
<polygon fill="none" stroke="black" points="336.5,-1564 336.5,-1584 449.5,-1584 449.5,-1564 336.5,-1564"/>
<text text-anchor="start" x="344" y="-1569.8" font-family="Times,serif" font-size="14.00">fulfillment_status</text>
<polygon fill="none" stroke="black" points="336.5,-1544 336.5,-1564 449.5,-1564 449.5,-1544 336.5,-1544"/>
<text text-anchor="start" x="367.73" y="-1549.8" font-family="Times,serif" font-size="14.00">gift_card</text>
<polygon fill="none" stroke="black" points="336.5,-1524 336.5,-1544 449.5,-1544 449.5,-1524 336.5,-1524"/>
<text text-anchor="start" x="375.89" y="-1529.8" font-family="Times,serif" font-size="14.00">grams</text>
<polygon fill="none" stroke="black" points="336.5,-1504 336.5,-1524 449.5,-1524 449.5,-1504 336.5,-1504"/>
<text text-anchor="start" x="377.84" y="-1509.8" font-family="Times,serif" font-size="14.00">name</text>
<polygon fill="none" stroke="black" points="336.5,-1484 336.5,-1504 449.5,-1504 449.5,-1484 336.5,-1484"/>
<text text-anchor="start" x="369.29" y="-1489.8" font-family="Times,serif" font-size="14.00">order_id</text>
<polygon fill="none" stroke="black" points="336.5,-1464 336.5,-1484 449.5,-1484 449.5,-1464 336.5,-1464"/>
<text text-anchor="start" x="354.52" y="-1469.8" font-family="Times,serif" font-size="14.00">pre_tax_price</text>
<polygon fill="none" stroke="black" points="336.5,-1444 336.5,-1464 449.5,-1464 449.5,-1444 336.5,-1444"/>
<text text-anchor="start" x="379.01" y="-1449.8" font-family="Times,serif" font-size="14.00">price</text>
<polygon fill="none" stroke="black" points="336.5,-1424 336.5,-1444 449.5,-1444 449.5,-1424 336.5,-1424"/>
<text text-anchor="start" x="362.67" y="-1429.8" font-family="Times,serif" font-size="14.00">product_id</text>
<polygon fill="none" stroke="black" points="336.5,-1404 336.5,-1424 449.5,-1424 449.5,-1404 336.5,-1404"/>
<text text-anchor="start" x="370.06" y="-1409.8" font-family="Times,serif" font-size="14.00">quantity</text>
<polygon fill="none" stroke="black" points="336.5,-1384 336.5,-1404 449.5,-1404 449.5,-1384 336.5,-1384"/>
<text text-anchor="start" x="342.84" y="-1389.8" font-family="Times,serif" font-size="14.00">requires_shipping</text>
<polygon fill="none" stroke="black" points="336.5,-1364 336.5,-1384 449.5,-1384 449.5,-1364 336.5,-1364"/>
<text text-anchor="start" x="383.28" y="-1369.8" font-family="Times,serif" font-size="14.00">sku</text>
<polygon fill="none" stroke="black" points="336.5,-1344 336.5,-1364 449.5,-1364 449.5,-1344 336.5,-1344"/>
<text text-anchor="start" x="372.79" y="-1349.8" font-family="Times,serif" font-size="14.00">taxable</text>
<polygon fill="none" stroke="black" points="336.5,-1324 336.5,-1344 449.5,-1344 449.5,-1324 336.5,-1324"/>
<text text-anchor="start" x="382.11" y="-1329.8" font-family="Times,serif" font-size="14.00">title</text>
<polygon fill="none" stroke="black" points="336.5,-1304 336.5,-1324 449.5,-1324 449.5,-1304 336.5,-1304"/>
<text text-anchor="start" x="353.34" y="-1309.8" font-family="Times,serif" font-size="14.00">total_discount</text>
<polygon fill="none" stroke="black" points="336.5,-1284 336.5,-1304 449.5,-1304 449.5,-1284 336.5,-1284"/>
<text text-anchor="start" x="364.62" y="-1289.8" font-family="Times,serif" font-size="14.00">variant_id</text>
<polygon fill="none" stroke="black" points="336.5,-1264 336.5,-1284 449.5,-1284 449.5,-1264 336.5,-1264"/>
<text text-anchor="start" x="373.56" y="-1269.8" font-family="Times,serif" font-size="14.00">vendor</text>
</g>
<!-- order -->
<g id="node9" class="node">
<title>order</title>
<polygon fill="none" stroke="black" points="0,-1200 0,-1220 192,-1220 192,-1200 0,-1200"/>
<text text-anchor="start" x="81.23" y="-1206.8" font-family="Times,serif" font-style="italic" font-size="14.00">order</text>
<polygon fill="none" stroke="black" points="0,-1180 0,-1200 192,-1200 192,-1180 0,-1180"/>
<text text-anchor="start" x="90.56" y="-1185.8" font-family="Times,serif" font-size="14.00">id</text>
<polygon fill="none" stroke="black" points="0,-1160 0,-1180 192,-1180 192,-1160 0,-1160"/>
<text text-anchor="start" x="21.73" y="-1165.8" font-family="Times,serif" font-size="14.00">billing_address_address_1</text>
<polygon fill="none" stroke="black" points="0,-1140 0,-1160 192,-1160 192,-1140 0,-1140"/>
<text text-anchor="start" x="21.73" y="-1145.8" font-family="Times,serif" font-size="14.00">billing_address_address_2</text>
<polygon fill="none" stroke="black" points="0,-1120 0,-1140 192,-1140 192,-1120 0,-1120"/>
<text text-anchor="start" x="39.23" y="-1125.8" font-family="Times,serif" font-size="14.00">billing_address_city</text>
<polygon fill="none" stroke="black" points="0,-1100 0,-1120 192,-1120 192,-1100 0,-1100"/>
<text text-anchor="start" x="24.07" y="-1105.8" font-family="Times,serif" font-size="14.00">billing_address_company</text>
<polygon fill="none" stroke="black" points="0,-1080 0,-1100 192,-1100 192,-1080 0,-1080"/>
<text text-anchor="start" x="28.34" y="-1085.8" font-family="Times,serif" font-size="14.00">billing_address_country</text>
<polygon fill="none" stroke="black" points="0,-1060 0,-1080 192,-1080 192,-1060 0,-1060"/>
<text text-anchor="start" x="11.63" y="-1065.8" font-family="Times,serif" font-size="14.00">billing_address_country_code</text>
<polygon fill="none" stroke="black" points="0,-1040 0,-1060 192,-1060 192,-1040 0,-1040"/>
<text text-anchor="start" x="20.18" y="-1045.8" font-family="Times,serif" font-size="14.00">billing_address_first_name</text>
<polygon fill="none" stroke="black" points="0,-1020 0,-1040 192,-1040 192,-1020 0,-1020"/>
<text text-anchor="start" x="21.35" y="-1025.8" font-family="Times,serif" font-size="14.00">billing_address_last_name</text>
<polygon fill="none" stroke="black" points="0,-1000 0,-1020 192,-1020 192,-1000 0,-1000"/>
<text text-anchor="start" x="28.73" y="-1005.8" font-family="Times,serif" font-size="14.00">billing_address_latitude</text>
<polygon fill="none" stroke="black" points="0,-980 0,-1000 192,-1000 192,-980 0,-980"/>
<text text-anchor="start" x="23.29" y="-985.8" font-family="Times,serif" font-size="14.00">billing_address_longitude</text>
<polygon fill="none" stroke="black" points="0,-960 0,-980 192,-980 192,-960 0,-960"/>
<text text-anchor="start" x="34.57" y="-965.8" font-family="Times,serif" font-size="14.00">billing_address_name</text>
<polygon fill="none" stroke="black" points="0,-940 0,-960 192,-960 192,-940 0,-940"/>
<text text-anchor="start" x="32.62" y="-945.8" font-family="Times,serif" font-size="14.00">billing_address_phone</text>
<polygon fill="none" stroke="black" points="0,-920 0,-940 192,-940 192,-920 0,-920"/>
<text text-anchor="start" x="25.24" y="-925.8" font-family="Times,serif" font-size="14.00">billing_address_province</text>
<polygon fill="none" stroke="black" points="0,-900 0,-920 192,-920 192,-900 0,-900"/>
<text text-anchor="start" x="8.52" y="-905.8" font-family="Times,serif" font-size="14.00">billing_address_province_code</text>
<polygon fill="none" stroke="black" points="0,-880 0,-900 192,-900 192,-880 0,-880"/>
<text text-anchor="start" x="41.18" y="-885.8" font-family="Times,serif" font-size="14.00">billing_address_zip</text>
<polygon fill="none" stroke="black" points="0,-860 0,-880 192,-880 192,-860 0,-860"/>
<text text-anchor="start" x="64.51" y="-865.8" font-family="Times,serif" font-size="14.00">browser_ip</text>
<polygon fill="none" stroke="black" points="0,-840 0,-860 192,-860 192,-840 0,-840"/>
<text text-anchor="start" x="24.09" y="-845.8" font-family="Times,serif" font-size="14.00">buyer_accepts_marketing</text>
<polygon fill="none" stroke="black" points="0,-820 0,-840 192,-840 192,-820 0,-820"/>
<text text-anchor="start" x="56.36" y="-825.8" font-family="Times,serif" font-size="14.00">cancel_reason</text>
<polygon fill="none" stroke="black" points="0,-800 0,-820 192,-820 192,-800 0,-800"/>
<text text-anchor="start" x="66.46" y="-805.8" font-family="Times,serif" font-size="14.00">cart_token</text>
<polygon fill="none" stroke="black" points="0,-780 0,-800 192,-800 192,-780 0,-780"/>
<text text-anchor="start" x="51.68" y="-785.8" font-family="Times,serif" font-size="14.00">checkout_token</text>
<polygon fill="none" stroke="black" points="0,-760 0,-780 192,-780 192,-760 0,-760"/>
<text text-anchor="start" x="71.52" y="-765.8" font-family="Times,serif" font-size="14.00">currency</text>
<polygon fill="none" stroke="black" points="0,-740 0,-760 192,-760 192,-740 0,-740"/>
<text text-anchor="start" x="61.4" y="-745.8" font-family="Times,serif" font-size="14.00">customer_id</text>
<polygon fill="none" stroke="black" points="0,-720 0,-740 192,-740 192,-720 0,-720"/>
<text text-anchor="start" x="80.45" y="-725.8" font-family="Times,serif" font-size="14.00">email</text>
<polygon fill="none" stroke="black" points="0,-700 0,-720 192,-720 192,-700 0,-700"/>
<text text-anchor="start" x="52.45" y="-705.8" font-family="Times,serif" font-size="14.00">financial_status</text>
<polygon fill="none" stroke="black" points="0,-680 0,-700 192,-700 192,-680 0,-680"/>
<text text-anchor="start" x="47" y="-685.8" font-family="Times,serif" font-size="14.00">fulfillment_status</text>
<polygon fill="none" stroke="black" points="0,-660 0,-680 192,-680 192,-660 0,-660"/>
<text text-anchor="start" x="34.57" y="-665.8" font-family="Times,serif" font-size="14.00">landing_site_base_url</text>
<polygon fill="none" stroke="black" points="0,-640 0,-660 192,-660 192,-640 0,-640"/>
<text text-anchor="start" x="64.51" y="-645.8" font-family="Times,serif" font-size="14.00">location_id</text>
<polygon fill="none" stroke="black" points="0,-620 0,-640 192,-640 192,-620 0,-620"/>
<text text-anchor="start" x="80.84" y="-625.8" font-family="Times,serif" font-size="14.00">name</text>
<polygon fill="none" stroke="black" points="0,-600 0,-620 192,-620 192,-600 0,-600"/>
<text text-anchor="start" x="83.95" y="-605.8" font-family="Times,serif" font-size="14.00">note</text>
<polygon fill="none" stroke="black" points="0,-580 0,-600 192,-600 192,-580 0,-580"/>
<text text-anchor="start" x="74.62" y="-585.8" font-family="Times,serif" font-size="14.00">number</text>
<polygon fill="none" stroke="black" points="0,-560 0,-580 192,-580 192,-560 0,-560"/>
<text text-anchor="start" x="56.35" y="-565.8" font-family="Times,serif" font-size="14.00">order_number</text>
<polygon fill="none" stroke="black" points="0,-540 0,-560 192,-560 192,-540 0,-540"/>
<text text-anchor="start" x="41.57" y="-545.8" font-family="Times,serif" font-size="14.00">processing_method</text>
<polygon fill="none" stroke="black" points="0,-520 0,-540 192,-540 192,-520 0,-520"/>
<text text-anchor="start" x="58.3" y="-525.8" font-family="Times,serif" font-size="14.00">referring_site</text>
<polygon fill="none" stroke="black" points="0,-500 0,-520 192,-520 192,-500 0,-500"/>
<text text-anchor="start" x="15.9" y="-505.8" font-family="Times,serif" font-size="14.00">shipping_address_address_1</text>
<polygon fill="none" stroke="black" points="0,-480 0,-500 192,-500 192,-480 0,-480"/>
<text text-anchor="start" x="15.9" y="-485.8" font-family="Times,serif" font-size="14.00">shipping_address_address_2</text>
<polygon fill="none" stroke="black" points="0,-460 0,-480 192,-480 192,-460 0,-460"/>
<text text-anchor="start" x="33.4" y="-465.8" font-family="Times,serif" font-size="14.00">shipping_address_city</text>
<polygon fill="none" stroke="black" points="0,-440 0,-460 192,-460 192,-440 0,-440"/>
<text text-anchor="start" x="18.23" y="-445.8" font-family="Times,serif" font-size="14.00">shipping_address_company</text>
<polygon fill="none" stroke="black" points="0,-420 0,-440 192,-440 192,-420 0,-420"/>
<text text-anchor="start" x="22.51" y="-425.8" font-family="Times,serif" font-size="14.00">shipping_address_country</text>
<polygon fill="none" stroke="black" points="0,-400 0,-420 192,-420 192,-400 0,-400"/>
<text text-anchor="start" x="5.8" y="-405.8" font-family="Times,serif" font-size="14.00">shipping_address_country_code</text>
<polygon fill="none" stroke="black" points="0,-380 0,-400 192,-400 192,-380 0,-380"/>
<text text-anchor="start" x="14.34" y="-385.8" font-family="Times,serif" font-size="14.00">shipping_address_first_name</text>
<polygon fill="none" stroke="black" points="0,-360 0,-380 192,-380 192,-360 0,-360"/>
<text text-anchor="start" x="15.51" y="-365.8" font-family="Times,serif" font-size="14.00">shipping_address_last_name</text>
<polygon fill="none" stroke="black" points="0,-340 0,-360 192,-360 192,-340 0,-340"/>
<text text-anchor="start" x="22.9" y="-345.8" font-family="Times,serif" font-size="14.00">shipping_address_latitude</text>
<polygon fill="none" stroke="black" points="0,-320 0,-340 192,-340 192,-320 0,-320"/>
<text text-anchor="start" x="17.45" y="-325.8" font-family="Times,serif" font-size="14.00">shipping_address_longitude</text>
<polygon fill="none" stroke="black" points="0,-300 0,-320 192,-320 192,-300 0,-300"/>
<text text-anchor="start" x="45.84" y="-305.8" font-family="Times,serif" font-size="14.00">shipping_location</text>
<polygon fill="none" stroke="black" points="0,-280 0,-300 192,-300 192,-280 0,-280"/>
<text text-anchor="start" x="28.73" y="-285.8" font-family="Times,serif" font-size="14.00">shipping_address_name</text>
<polygon fill="none" stroke="black" points="0,-260 0,-280 192,-280 192,-260 0,-260"/>
<text text-anchor="start" x="26.79" y="-265.8" font-family="Times,serif" font-size="14.00">shipping_address_phone</text>
<polygon fill="none" stroke="black" points="0,-240 0,-260 192,-260 192,-240 0,-240"/>
<text text-anchor="start" x="19.4" y="-245.8" font-family="Times,serif" font-size="14.00">shipping_address_province</text>
<polygon fill="none" stroke="black" points="0,-220 0,-240 192,-240 192,-220 0,-220"/>
<text text-anchor="start" x="2.69" y="-225.8" font-family="Times,serif" font-size="14.00">shipping_address_province_code</text>
<polygon fill="none" stroke="black" points="0,-200 0,-220 192,-220 192,-200 0,-200"/>
<text text-anchor="start" x="35.34" y="-205.8" font-family="Times,serif" font-size="14.00">shipping_address_zip</text>
<polygon fill="none" stroke="black" points="0,-180 0,-200 192,-200 192,-180 0,-180"/>
<text text-anchor="start" x="59.07" y="-185.8" font-family="Times,serif" font-size="14.00">source_name</text>
<polygon fill="none" stroke="black" points="0,-160 0,-180 192,-180 192,-160 0,-160"/>
<text text-anchor="start" x="56.34" y="-165.8" font-family="Times,serif" font-size="14.00">subtotal_price</text>
<polygon fill="none" stroke="black" points="0,-140 0,-160 192,-160 192,-140 0,-140"/>
<text text-anchor="start" x="54.01" y="-145.8" font-family="Times,serif" font-size="14.00">taxes_included</text>
<polygon fill="none" stroke="black" points="0,-120 0,-140 192,-140 192,-120 0,-120"/>
<text text-anchor="start" x="80.45" y="-125.8" font-family="Times,serif" font-size="14.00">token</text>
<polygon fill="none" stroke="black" points="0,-100 0,-120 192,-120 192,-100 0,-100"/>
<text text-anchor="start" x="53.61" y="-105.8" font-family="Times,serif" font-size="14.00">total_discounts</text>
<polygon fill="none" stroke="black" points="0,-80 0,-100 192,-100 192,-80 0,-80"/>
<text text-anchor="start" x="33.41" y="-85.8" font-family="Times,serif" font-size="14.00">total_line_items_price</text>
<polygon fill="none" stroke="black" points="0,-60 0,-80 192,-80 192,-60 0,-60"/>
<text text-anchor="start" x="66.07" y="-65.8" font-family="Times,serif" font-size="14.00">total_price</text>
<polygon fill="none" stroke="black" points="0,-40 0,-60 192,-60 192,-40 0,-40"/>
<text text-anchor="start" x="71.51" y="-45.8" font-family="Times,serif" font-size="14.00">total_tax</text>
<polygon fill="none" stroke="black" points="0,-20 0,-40 192,-40 192,-20 0,-20"/>
<text text-anchor="start" x="61.01" y="-25.8" font-family="Times,serif" font-size="14.00">total_weight</text>
<polygon fill="none" stroke="black" points="0,0 0,-20 192,-20 192,0 0,0"/>
<text text-anchor="start" x="75.39" y="-5.8" font-family="Times,serif" font-size="14.00">user_id</text>
</g>
<!-- order_line&#45;&gt;order -->
<g id="edge1" class="edge">
<title>order_line:order_lineorder_id&#45;&gt;order:orderid</title>
<path fill="none" stroke="black" d="M336,-1494C190,-1494 334.4,-1204.08 202.02,-1190.49"/>
<polygon fill="black" stroke="black" points="202.16,-1187 192,-1190 201.82,-1193.99 202.16,-1187"/>
</g>
<!-- product_variant -->
<g id="node3" class="node">
<title>product_variant</title>
<polygon fill="none" stroke="black" points="593,-1298 593,-1318 731,-1318 731,-1298 593,-1298"/>
<text text-anchor="start" x="617.68" y="-1304.8" font-family="Times,serif" font-style="italic" font-size="14.00">product_variant</text>
<polygon fill="none" stroke="black" points="593,-1278 593,-1298 731,-1298 731,-1278 593,-1278"/>
<text text-anchor="start" x="656.56" y="-1283.8" font-family="Times,serif" font-size="14.00">id</text>
<polygon fill="none" stroke="black" points="593,-1258 593,-1278 731,-1278 731,-1258 593,-1258"/>
<text text-anchor="start" x="639.85" y="-1263.8" font-family="Times,serif" font-size="14.00">barcode</text>
<polygon fill="none" stroke="black" points="593,-1238 593,-1258 731,-1258 731,-1238 593,-1238"/>
<text text-anchor="start" x="611.86" y="-1243.8" font-family="Times,serif" font-size="14.00">compare_at_price</text>
<polygon fill="none" stroke="black" points="593,-1218 593,-1238 731,-1238 731,-1218 593,-1218"/>
<text text-anchor="start" x="609.12" y="-1223.8" font-family="Times,serif" font-size="14.00">fulfillment_service</text>
<polygon fill="none" stroke="black" points="593,-1198 593,-1218 731,-1218 731,-1198 593,-1198"/>
<text text-anchor="start" x="644.89" y="-1203.8" font-family="Times,serif" font-size="14.00">grams</text>
<polygon fill="none" stroke="black" points="593,-1178 593,-1198 731,-1198 731,-1178 593,-1178"/>
<text text-anchor="start" x="635.95" y="-1183.8" font-family="Times,serif" font-size="14.00">image_id</text>
<polygon fill="none" stroke="black" points="593,-1158 593,-1178 731,-1178 731,-1158 593,-1158"/>
<text text-anchor="start" x="610.29" y="-1163.8" font-family="Times,serif" font-size="14.00">inventory_item_id</text>
<polygon fill="none" stroke="black" points="593,-1138 593,-1158 731,-1158 731,-1138 593,-1138"/>
<text text-anchor="start" x="595.91" y="-1143.8" font-family="Times,serif" font-size="14.00">inventory_management</text>
<polygon fill="none" stroke="black" points="593,-1118 593,-1138 731,-1138 731,-1118 593,-1118"/>
<text text-anchor="start" x="614.18" y="-1123.8" font-family="Times,serif" font-size="14.00">inventory_policy</text>
<polygon fill="none" stroke="black" points="593,-1098 593,-1118 731,-1118 731,-1098 593,-1098"/>
<text text-anchor="start" x="608.73" y="-1103.8" font-family="Times,serif" font-size="14.00">inventory_quantity</text>
<polygon fill="none" stroke="black" points="593,-1078 593,-1098 731,-1098 731,-1078 593,-1078"/>
<text text-anchor="start" x="596.29" y="-1083.8" font-family="Times,serif" font-size="14.00">old_inventory_quantity</text>
<polygon fill="none" stroke="black" points="593,-1058 593,-1078 731,-1078 731,-1058 593,-1058"/>
<text text-anchor="start" x="639.44" y="-1063.8" font-family="Times,serif" font-size="14.00">position</text>
<polygon fill="none" stroke="black" points="593,-1038 593,-1058 731,-1058 731,-1038 593,-1038"/>
<text text-anchor="start" x="648.01" y="-1043.8" font-family="Times,serif" font-size="14.00">price</text>
<polygon fill="none" stroke="black" points="593,-1018 593,-1038 731,-1038 731,-1018 593,-1018"/>
<text text-anchor="start" x="631.67" y="-1023.8" font-family="Times,serif" font-size="14.00">product_id</text>
<polygon fill="none" stroke="black" points="593,-998 593,-1018 731,-1018 731,-998 593,-998"/>
<text text-anchor="start" x="611.84" y="-1003.8" font-family="Times,serif" font-size="14.00">requires_shipping</text>
<polygon fill="none" stroke="black" points="593,-978 593,-998 731,-998 731,-978 593,-978"/>
<text text-anchor="start" x="652.28" y="-983.8" font-family="Times,serif" font-size="14.00">sku</text>
<polygon fill="none" stroke="black" points="593,-958 593,-978 731,-978 731,-958 593,-958"/>
<text text-anchor="start" x="641.79" y="-963.8" font-family="Times,serif" font-size="14.00">taxable</text>
<polygon fill="none" stroke="black" points="593,-938 593,-958 731,-958 731,-938 593,-938"/>
<text text-anchor="start" x="651.11" y="-943.8" font-family="Times,serif" font-size="14.00">title</text>
<polygon fill="none" stroke="black" points="593,-918 593,-938 731,-938 731,-918 593,-918"/>
<text text-anchor="start" x="642.95" y="-923.8" font-family="Times,serif" font-size="14.00">weight</text>
<polygon fill="none" stroke="black" points="593,-898 593,-918 731,-918 731,-898 593,-898"/>
<text text-anchor="start" x="628.56" y="-903.8" font-family="Times,serif" font-size="14.00">weight_unit</text>
</g>
<!-- product_variant&#45;&gt;order_line -->
<g id="edge9" class="edge">
<title>product_variant:product_variantid&#45;&gt;order_line:order_linevariant_id</title>
<path fill="none" stroke="black" d="M593,-1288C532.45,-1288 514.94,-1293.36 459.09,-1293.95"/>
<polygon fill="black" stroke="black" points="458.98,-1290.45 449,-1294 459.02,-1297.45 458.98,-1290.45"/>
</g>
<!-- product_tag -->
<g id="node4" class="node">
<title>product_tag</title>
<polygon fill="none" stroke="black" points="884.5,-1690 884.5,-1710 956.5,-1710 956.5,-1690 884.5,-1690"/>
<text text-anchor="start" x="887.07" y="-1696.8" font-family="Times,serif" font-style="italic" font-size="14.00">product_tag</text>
<polygon fill="none" stroke="black" points="884.5,-1670 884.5,-1690 956.5,-1690 956.5,-1670 884.5,-1670"/>
<text text-anchor="start" x="904.95" y="-1675.8" font-family="Times,serif" font-size="14.00">index</text>
<polygon fill="none" stroke="black" points="884.5,-1650 884.5,-1670 956.5,-1670 956.5,-1650 884.5,-1650"/>
<text text-anchor="start" x="890.17" y="-1655.8" font-family="Times,serif" font-size="14.00">product_id</text>
<polygon fill="none" stroke="black" points="884.5,-1630 884.5,-1650 956.5,-1650 956.5,-1630 884.5,-1630"/>
<text text-anchor="start" x="905.34" y="-1635.8" font-family="Times,serif" font-size="14.00">value</text>
</g>
<!-- product -->
<g id="node10" class="node">
<title>product</title>
<polygon fill="none" stroke="black" points="611,-1494 611,-1514 714,-1514 714,-1494 611,-1494"/>
<text text-anchor="start" x="641.12" y="-1500.8" font-family="Times,serif" font-style="italic" font-size="14.00">product</text>
<polygon fill="none" stroke="black" points="611,-1474 611,-1494 714,-1494 714,-1474 611,-1474"/>
<text text-anchor="start" x="657.06" y="-1479.8" font-family="Times,serif" font-size="14.00">id</text>
<polygon fill="none" stroke="black" points="611,-1454 611,-1474 714,-1474 714,-1454 611,-1454"/>
<text text-anchor="start" x="613.91" y="-1459.8" font-family="Times,serif" font-size="14.00">_fivetran_deleted</text>
<polygon fill="none" stroke="black" points="611,-1434 611,-1454 714,-1454 714,-1434 611,-1434"/>
<text text-anchor="start" x="643.84" y="-1439.8" font-family="Times,serif" font-size="14.00">handle</text>
<polygon fill="none" stroke="black" points="611,-1414 611,-1434 714,-1434 714,-1414 611,-1414"/>
<text text-anchor="start" x="625.57" y="-1419.8" font-family="Times,serif" font-size="14.00">product_type</text>
<polygon fill="none" stroke="black" points="611,-1394 611,-1414 714,-1414 714,-1394 611,-1394"/>
<text text-anchor="start" x="615.84" y="-1399.8" font-family="Times,serif" font-size="14.00">published_scope</text>
<polygon fill="none" stroke="black" points="611,-1374 611,-1394 714,-1394 714,-1374 611,-1374"/>
<text text-anchor="start" x="651.61" y="-1379.8" font-family="Times,serif" font-size="14.00">title</text>
<polygon fill="none" stroke="black" points="611,-1354 611,-1374 714,-1374 714,-1354 611,-1354"/>
<text text-anchor="start" x="643.06" y="-1359.8" font-family="Times,serif" font-size="14.00">vendor</text>
</g>
<!-- product_tag&#45;&gt;product -->
<g id="edge8" class="edge">
<title>product_tag:product_tagproduct_id&#45;&gt;product:productid</title>
<path fill="none" stroke="black" d="M883.5,-1660C778.7,-1660 820.35,-1495.16 724.99,-1484.54"/>
<polygon fill="black" stroke="black" points="725.17,-1481.04 715,-1484 724.8,-1488.03 725.17,-1481.04"/>
</g>
<!-- collection -->
<g id="node5" class="node">
<title>collection</title>
<polygon fill="none" stroke="black" points="1136,-1554 1136,-1574 1239,-1574 1239,-1554 1136,-1554"/>
<text text-anchor="start" x="1159.9" y="-1560.8" font-family="Times,serif" font-style="italic" font-size="14.00">collection</text>
<polygon fill="none" stroke="black" points="1136,-1534 1136,-1554 1239,-1554 1239,-1534 1136,-1534"/>
<text text-anchor="start" x="1182.06" y="-1539.8" font-family="Times,serif" font-size="14.00">id</text>
<polygon fill="none" stroke="black" points="1136,-1514 1136,-1534 1239,-1534 1239,-1514 1136,-1514"/>
<text text-anchor="start" x="1138.91" y="-1519.8" font-family="Times,serif" font-size="14.00">_fivetran_deleted</text>
<polygon fill="none" stroke="black" points="1136,-1494 1136,-1514 1239,-1514 1239,-1494 1136,-1494"/>
<text text-anchor="start" x="1168.84" y="-1499.8" font-family="Times,serif" font-size="14.00">handle</text>
<polygon fill="none" stroke="black" points="1136,-1474 1136,-1494 1239,-1494 1239,-1474 1136,-1474"/>
<text text-anchor="start" x="1140.84" y="-1479.8" font-family="Times,serif" font-size="14.00">published_scope</text>
<polygon fill="none" stroke="black" points="1136,-1454 1136,-1474 1239,-1474 1239,-1454 1136,-1454"/>
<text text-anchor="start" x="1176.61" y="-1459.8" font-family="Times,serif" font-size="14.00">title</text>
</g>
<!-- collect -->
<g id="node8" class="node">
<title>collect</title>
<polygon fill="none" stroke="black" points="881.5,-1574 881.5,-1594 960.5,-1594 960.5,-1574 881.5,-1574"/>
<text text-anchor="start" x="902.34" y="-1580.8" font-family="Times,serif" font-style="italic" font-size="14.00">collect</text>
<polygon fill="none" stroke="black" points="881.5,-1554 881.5,-1574 960.5,-1574 960.5,-1554 881.5,-1554"/>
<text text-anchor="start" x="915.56" y="-1559.8" font-family="Times,serif" font-size="14.00">id</text>
<polygon fill="none" stroke="black" points="881.5,-1534 881.5,-1554 960.5,-1554 960.5,-1534 881.5,-1534"/>
<text text-anchor="start" x="884.46" y="-1539.8" font-family="Times,serif" font-size="14.00">collection_id</text>
<polygon fill="none" stroke="black" points="881.5,-1514 881.5,-1534 960.5,-1534 960.5,-1514 881.5,-1514"/>
<text text-anchor="start" x="898.07" y="-1519.8" font-family="Times,serif" font-size="14.00">featured</text>
<polygon fill="none" stroke="black" points="881.5,-1494 881.5,-1514 960.5,-1514 960.5,-1494 881.5,-1494"/>
<text text-anchor="start" x="898.44" y="-1499.8" font-family="Times,serif" font-size="14.00">position</text>
<polygon fill="none" stroke="black" points="881.5,-1474 881.5,-1494 960.5,-1494 960.5,-1474 881.5,-1474"/>
<text text-anchor="start" x="890.67" y="-1479.8" font-family="Times,serif" font-size="14.00">product_id</text>
</g>
<!-- collection&#45;&gt;collect -->
<g id="edge6" class="edge">
<title>collection:collectionid&#45;&gt;collect:collectcollection_id</title>
<path fill="none" stroke="black" d="M1135,-1544C1061.35,-1544 1040.46,-1544 971.55,-1544"/>
<polygon fill="black" stroke="black" points="971.5,-1540.5 961.5,-1544 971.5,-1547.5 971.5,-1540.5"/>
</g>
<!-- order_tag -->
<g id="node6" class="node">
<title>order_tag</title>
<polygon fill="none" stroke="black" points="363.5,-1208 363.5,-1228 422.5,-1228 422.5,-1208 363.5,-1208"/>
<text text-anchor="start" x="366.18" y="-1214.8" font-family="Times,serif" font-style="italic" font-size="14.00">order_tag</text>
<polygon fill="none" stroke="black" points="363.5,-1188 363.5,-1208 422.5,-1208 422.5,-1188 363.5,-1188"/>
<text text-anchor="start" x="377.45" y="-1193.8" font-family="Times,serif" font-size="14.00">index</text>
<polygon fill="none" stroke="black" points="363.5,-1168 363.5,-1188 422.5,-1188 422.5,-1168 363.5,-1168"/>
<text text-anchor="start" x="369.29" y="-1173.8" font-family="Times,serif" font-size="14.00">order_id</text>
<polygon fill="none" stroke="black" points="363.5,-1148 363.5,-1168 422.5,-1168 422.5,-1148 363.5,-1148"/>
<text text-anchor="start" x="377.84" y="-1153.8" font-family="Times,serif" font-size="14.00">value</text>
</g>
<!-- order_tag&#45;&gt;order -->
<g id="edge2" class="edge">
<title>order_tag:order_tagorder_id&#45;&gt;order:orderid</title>
<path fill="none" stroke="black" d="M362.5,-1178C290.1,-1178 269.83,-1188.9 202.32,-1189.92"/>
<polygon fill="black" stroke="black" points="201.97,-1186.43 192,-1190 202.03,-1193.43 201.97,-1186.43"/>
</g>
<!-- customer&#45;&gt;order -->
<g id="edge10" class="edge">
<title>customer:customerid&#45;&gt;order:ordercustomer_id</title>
<path fill="none" stroke="black" d="M336.5,-757C275.72,-757 258.18,-750.74 202.13,-750.06"/>
<polygon fill="black" stroke="black" points="202.02,-746.56 192,-750 201.98,-753.56 202.02,-746.56"/>
</g>
<!-- collect&#45;&gt;product -->
<g id="edge5" class="edge">
<title>collect:collectproduct_id&#45;&gt;product:productid</title>
<path fill="none" stroke="black" d="M880.5,-1484C810.54,-1484 790.48,-1484 725.39,-1484"/>
<polygon fill="black" stroke="black" points="725,-1480.5 715,-1484 725,-1487.5 725,-1480.5"/>
</g>
<!-- product&#45;&gt;order_line -->
<g id="edge4" class="edge">
<title>product:productid&#45;&gt;order_line:order_lineproduct_id</title>
<path fill="none" stroke="black" d="M610,-1484C538.59,-1484 525.11,-1438.58 459.13,-1434.32"/>
<polygon fill="black" stroke="black" points="459.11,-1430.82 449,-1434 458.88,-1437.81 459.11,-1430.82"/>
</g>
<!-- product_option -->
<g id="node11" class="node">
<title>product_option</title>
<polygon fill="none" stroke="black" points="875.5,-1418 875.5,-1438 966.5,-1438 966.5,-1418 875.5,-1418"/>
<text text-anchor="start" x="878.23" y="-1424.8" font-family="Times,serif" font-style="italic" font-size="14.00">product_option</text>
<polygon fill="none" stroke="black" points="875.5,-1398 875.5,-1418 966.5,-1418 966.5,-1398 875.5,-1398"/>
<text text-anchor="start" x="915.56" y="-1403.8" font-family="Times,serif" font-size="14.00">id</text>
<polygon fill="none" stroke="black" points="875.5,-1378 875.5,-1398 966.5,-1398 966.5,-1378 875.5,-1378"/>
<text text-anchor="start" x="905.84" y="-1383.8" font-family="Times,serif" font-size="14.00">name</text>
<polygon fill="none" stroke="black" points="875.5,-1358 875.5,-1378 966.5,-1378 966.5,-1358 875.5,-1358"/>
<text text-anchor="start" x="898.44" y="-1363.8" font-family="Times,serif" font-size="14.00">position</text>
<polygon fill="none" stroke="black" points="875.5,-1338 875.5,-1358 966.5,-1358 966.5,-1338 875.5,-1338"/>
<text text-anchor="start" x="890.67" y="-1343.8" font-family="Times,serif" font-size="14.00">product_id</text>
<polygon fill="none" stroke="black" points="875.5,-1318 875.5,-1338 966.5,-1338 966.5,-1318 875.5,-1318"/>
<text text-anchor="start" x="903.12" y="-1323.8" font-family="Times,serif" font-size="14.00">values</text>
</g>
<!-- product_option&#45;&gt;product -->
<g id="edge7" class="edge">
<title>product_option:product_optionproduct_id&#45;&gt;product:productid</title>
<path fill="none" stroke="black" d="M875,-1348C785.32,-1348 806.43,-1473.58 725.4,-1483.39"/>
<polygon fill="black" stroke="black" points="724.78,-1479.92 715,-1484 725.19,-1486.91 724.78,-1479.92"/>
</g>
<!-- fivetran_audit -->
<g id="node12" class="node">
<title>fivetran_audit</title>
<polygon fill="none" stroke="black" points="1110,-1750 1110,-1770 1264,-1770 1264,-1750 1110,-1750"/>
<text text-anchor="start" x="1148.12" y="-1756.8" font-family="Times,serif" font-style="italic" font-size="14.00">fivetran_audit</text>
<polygon fill="none" stroke="black" points="1110,-1730 1110,-1750 1264,-1750 1264,-1730 1110,-1730"/>
<text text-anchor="start" x="1181.56" y="-1735.8" font-family="Times,serif" font-size="14.00">id</text>
<polygon fill="none" stroke="black" points="1110,-1710 1110,-1730 1264,-1730 1264,-1710 1110,-1710"/>
<text text-anchor="start" x="1163.29" y="-1715.8" font-family="Times,serif" font-size="14.00">message</text>
<polygon fill="none" stroke="black" points="1110,-1690 1110,-1710 1264,-1710 1264,-1690 1110,-1690"/>
<text text-anchor="start" x="1112.74" y="-1695.8" font-family="Times,serif" font-size="14.00">rows_updated_or_inserted</text>
<polygon fill="none" stroke="black" points="1110,-1670 1110,-1690 1264,-1690 1264,-1670 1110,-1670"/>
<text text-anchor="start" x="1166.01" y="-1675.8" font-family="Times,serif" font-size="14.00">schema</text>
<polygon fill="none" stroke="black" points="1110,-1650 1110,-1670 1264,-1670 1264,-1650 1110,-1650"/>
<text text-anchor="start" x="1171.06" y="-1655.8" font-family="Times,serif" font-size="14.00">status</text>
<polygon fill="none" stroke="black" points="1110,-1630 1110,-1650 1264,-1650 1264,-1630 1110,-1630"/>
<text text-anchor="start" x="1173.4" y="-1635.8" font-family="Times,serif" font-size="14.00">table</text>
<polygon fill="none" stroke="black" points="1110,-1610 1110,-1630 1264,-1630 1264,-1610 1110,-1610"/>
<text text-anchor="start" x="1159.4" y="-1615.8" font-family="Times,serif" font-size="14.00">update_id</text>
</g>
<!-- customer_address -->
<g id="node13" class="node">
<title>customer_address</title>
<polygon fill="none" stroke="black" points="609,-701 609,-721 715,-721 715,-701 609,-701"/>
<text text-anchor="start" x="611.85" y="-707.8" font-family="Times,serif" font-style="italic" font-size="14.00">customer_address</text>
<polygon fill="none" stroke="black" points="609,-681 609,-701 715,-701 715,-681 609,-681"/>
<text text-anchor="start" x="656.56" y="-686.8" font-family="Times,serif" font-size="14.00">id</text>
<polygon fill="none" stroke="black" points="609,-661 609,-681 715,-681 715,-661 609,-661"/>
<text text-anchor="start" x="634.01" y="-666.8" font-family="Times,serif" font-size="14.00">address_1</text>
<polygon fill="none" stroke="black" points="609,-641 609,-661 715,-661 715,-641 609,-641"/>
<text text-anchor="start" x="634.01" y="-646.8" font-family="Times,serif" font-size="14.00">address_2</text>
<polygon fill="none" stroke="black" points="609,-621 609,-641 715,-641 715,-621 609,-621"/>
<text text-anchor="start" x="651.5" y="-626.8" font-family="Times,serif" font-size="14.00">city</text>
<polygon fill="none" stroke="black" points="609,-601 609,-621 715,-621 715,-601 609,-601"/>
<text text-anchor="start" x="636.34" y="-606.8" font-family="Times,serif" font-size="14.00">company</text>
<polygon fill="none" stroke="black" points="609,-581 609,-601 715,-601 715,-581 609,-581"/>
<text text-anchor="start" x="640.62" y="-586.8" font-family="Times,serif" font-size="14.00">country</text>
<polygon fill="none" stroke="black" points="609,-561 609,-581 715,-581 715,-561 609,-561"/>
<text text-anchor="start" x="623.9" y="-566.8" font-family="Times,serif" font-size="14.00">country_code</text>
<polygon fill="none" stroke="black" points="609,-541 609,-561 715,-561 715,-541 609,-541"/>
<text text-anchor="start" x="627.4" y="-546.8" font-family="Times,serif" font-size="14.00">customer_id</text>
<polygon fill="none" stroke="black" points="609,-521 609,-541 715,-541 715,-521 609,-521"/>
<text text-anchor="start" x="632.45" y="-526.8" font-family="Times,serif" font-size="14.00">first_name</text>
<polygon fill="none" stroke="black" points="609,-501 609,-521 715,-521 715,-501 609,-501"/>
<text text-anchor="start" x="633.62" y="-506.8" font-family="Times,serif" font-size="14.00">last_name</text>
<polygon fill="none" stroke="black" points="609,-481 609,-501 715,-501 715,-481 609,-481"/>
<text text-anchor="start" x="641.01" y="-486.8" font-family="Times,serif" font-size="14.00">latitude</text>
<polygon fill="none" stroke="black" points="609,-461 609,-481 715,-481 715,-461 609,-461"/>
<text text-anchor="start" x="635.56" y="-466.8" font-family="Times,serif" font-size="14.00">longitude</text>
<polygon fill="none" stroke="black" points="609,-441 609,-461 715,-461 715,-441 609,-441"/>
<text text-anchor="start" x="646.84" y="-446.8" font-family="Times,serif" font-size="14.00">name</text>
<polygon fill="none" stroke="black" points="609,-421 609,-441 715,-441 715,-421 609,-421"/>
<text text-anchor="start" x="644.89" y="-426.8" font-family="Times,serif" font-size="14.00">phone</text>
<polygon fill="none" stroke="black" points="609,-401 609,-421 715,-421 715,-401 609,-401"/>
<text text-anchor="start" x="637.51" y="-406.8" font-family="Times,serif" font-size="14.00">province</text>
<polygon fill="none" stroke="black" points="609,-381 609,-401 715,-401 715,-381 609,-381"/>
<text text-anchor="start" x="620.8" y="-386.8" font-family="Times,serif" font-size="14.00">province_code</text>
<polygon fill="none" stroke="black" points="609,-361 609,-381 715,-381 715,-361 609,-361"/>
<text text-anchor="start" x="653.45" y="-366.8" font-family="Times,serif" font-size="14.00">zip</text>
</g>
<!-- customer_address&#45;&gt;customer -->
<g id="edge11" class="edge">
<title>customer_address:customer_addresscustomer_id&#45;&gt;customer:customerid</title>
<path fill="none" stroke="black" d="M608,-551C495.85,-551 560.45,-744.72 459,-756.45"/>
<polygon fill="black" stroke="black" points="458.79,-752.95 449,-757 459.18,-759.94 458.79,-752.95"/>
</g>
<!-- location -->
<g id="node14" class="node">
<title>location</title>
<polygon fill="none" stroke="black" points="362.5,-451 362.5,-471 423.5,-471 423.5,-451 362.5,-451"/>
<text text-anchor="start" x="370.45" y="-457.8" font-family="Times,serif" font-style="italic" font-size="14.00">location</text>
<polygon fill="none" stroke="black" points="362.5,-431 362.5,-451 423.5,-451 423.5,-431 362.5,-431"/>
<text text-anchor="start" x="387.56" y="-436.8" font-family="Times,serif" font-size="14.00">id</text>
<polygon fill="none" stroke="black" points="362.5,-411 362.5,-431 423.5,-431 423.5,-411 362.5,-411"/>
<text text-anchor="start" x="376.29" y="-416.8" font-family="Times,serif" font-size="14.00">active</text>
<polygon fill="none" stroke="black" points="362.5,-391 362.5,-411 423.5,-411 423.5,-391 362.5,-391"/>
<text text-anchor="start" x="365.01" y="-396.8" font-family="Times,serif" font-size="14.00">address_1</text>
<polygon fill="none" stroke="black" points="362.5,-371 362.5,-391 423.5,-391 423.5,-371 362.5,-371"/>
<text text-anchor="start" x="365.01" y="-376.8" font-family="Times,serif" font-size="14.00">address_2</text>
<polygon fill="none" stroke="black" points="362.5,-351 362.5,-371 423.5,-371 423.5,-351 362.5,-351"/>
<text text-anchor="start" x="382.5" y="-356.8" font-family="Times,serif" font-size="14.00">city</text>
<polygon fill="none" stroke="black" points="362.5,-331 362.5,-351 423.5,-351 423.5,-331 362.5,-331"/>
<text text-anchor="start" x="371.62" y="-336.8" font-family="Times,serif" font-size="14.00">country</text>
<polygon fill="none" stroke="black" points="362.5,-311 362.5,-331 423.5,-331 423.5,-311 362.5,-311"/>
<text text-anchor="start" x="374.73" y="-316.8" font-family="Times,serif" font-size="14.00">legacy</text>
<polygon fill="none" stroke="black" points="362.5,-291 362.5,-311 423.5,-311 423.5,-291 362.5,-291"/>
<text text-anchor="start" x="377.84" y="-296.8" font-family="Times,serif" font-size="14.00">name</text>
<polygon fill="none" stroke="black" points="362.5,-271 362.5,-291 423.5,-291 423.5,-271 362.5,-271"/>
<text text-anchor="start" x="375.89" y="-276.8" font-family="Times,serif" font-size="14.00">phone</text>
<polygon fill="none" stroke="black" points="362.5,-251 362.5,-271 423.5,-271 423.5,-251 362.5,-251"/>
<text text-anchor="start" x="368.51" y="-256.8" font-family="Times,serif" font-size="14.00">province</text>
<polygon fill="none" stroke="black" points="362.5,-231 362.5,-251 423.5,-251 423.5,-231 362.5,-231"/>
<text text-anchor="start" x="384.45" y="-236.8" font-family="Times,serif" font-size="14.00">zip</text>
</g>
<!-- location&#45;&gt;order -->
<g id="edge3" class="edge">
<title>location:locationid&#45;&gt;order:orderlocation_id</title>
<path fill="none" stroke="black" d="M361.5,-441C245.41,-441 307.68,-637.93 202.03,-649.47"/>
<polygon fill="black" stroke="black" points="201.8,-645.98 192,-650 202.17,-652.97 201.8,-645.98"/>
</g>
</g>
</svg>
